<?xml version="1.0" encoding="ISO-8859-1"?>
<!DOCTYPE svg PUBLIC "-//W3C//DTD SVG 1.0//EN" "http://www.w3.org/TR/2001/REC-SVG-20010904/DTD/svg10.dtd">
<!-- generated by Grace-5.1.25 -->
<svg xml:space="preserve" width="11.0000in" height="8.5000in" viewBox="0.0000 0.0000 792.0000 612.0000">
 <g transform="translate(0,612.0000) scale(1,-1)">
  <g style="fill:#FFFFFF; fill-rule:nonzero">
   <path  d="M0.0000,0.0000L0.0000,612.0000L792.0000,612.0000L792.0000,0.0000z"/>
  </g>
  <g style="fill:none; stroke:#000000; stroke-width:  0.9180; stroke-linecap:butt; stroke-linejoin:miter; stroke-dasharray:none">
   <path d="M91.8000,91.8000L94.8600,91.8346L97.9200,91.8583L100.9800,91.8993L100.9800,102.5529L104.0400,101.1997L107.1000,99.7962L110.1600,97.1840L110.1600,98.6306L113.2200,97.4265
            L116.2800,96.6843L119.3400,96.6578L119.3400,106.1644L122.4000,103.8345L125.4600,103.3198L128.5200,102.2575L128.5200,110.6479L131.5800,109.2420L134.6400,108.1483L137.7000,107.3057
            L137.7000,116.0690L140.7600,113.8197L143.8200,112.4701L146.8800,109.4419L146.8800,119.0725L149.9400,114.6671L153.0000,114.8153L156.0600,114.7317L156.0600,127.6531L159.1200,123.1670
            L162.1800,122.0763L165.2400,122.2611L165.2400,133.3369L168.3000,129.2135L171.3600,129.0096L174.4200,126.7658L174.4200,137.4109L177.4800,132.1435L180.5400,130.1996L183.6000,133.9966
            L183.6000,146.6871L186.6600,138.5154L189.7200,142.7506L192.7800,136.0175L192.7800,145.8276L195.8400,142.2730L198.9000,145.5901L201.9600,145.5308L201.9600,157.2352L205.0200,147.7460
            L208.0800,152.7100L211.1400,151.6191L211.1400,161.6994L214.2000,156.0643L217.2600,154.4672L220.3200,155.0690L220.3200,165.2811L223.3800,159.9274L226.4400,165.6329L229.5000,159.4634
            L229.5000,168.4444L232.5600,168.9199L235.6200,172.0196L238.6800,172.0260L238.6800,179.0753L241.7400,171.9646L244.8000,168.8951L247.8600,170.6605L247.8600,180.1695L250.9200,176.6040
            L253.9800,176.4691L257.0400,177.5072L257.0400,188.6831L260.1000,179.7273L263.1600,175.9652L266.2200,181.1591L266.2200,196.5609L269.2800,182.4693L272.3400,180.4760L275.4000,184.8871
            L275.4000,196.8745L278.4600,197.1890L281.5200,195.8465L284.5800,192.4061L284.5800,205.2148L287.6400,197.0228L290.7000,200.1839L293.7600,198.9726L293.7600,209.4611L296.8200,200.2581
            L299.8800,203.5580L302.9400,208.6449L302.9400,220.5025L306.0000,214.0994L309.0600,211.8962L312.1200,211.0380L312.1200,218.5998L315.1800,223.3486L318.2400,226.0264L321.3000,227.0858
            L321.3000,230.4388L324.3600,228.1908L327.4200,225.0791L330.4800,222.8706L330.4800,228.0860L333.5400,228.3089L336.6000,226.2920L339.6600,223.6224L339.6600,231.5802L342.7200,234.2098
            L345.7800,228.8804L348.8400,231.8523L348.8400,243.8948L351.9000,240.7945L354.9600,233.0232L358.0200,237.0784L358.0200,245.5453L361.0800,245.9590L364.1400,250.0941L367.2000,243.9093
            L367.2000,250.2947L370.2600,241.6986L373.3200,244.5464L376.3800,244.0360L376.3800,255.2162L379.4400,256.2472L382.5000,254.5208L385.5600,259.7740L385.5600,272.2475L388.6200,257.2940
            L391.6800,259.2231L394.7400,252.2613L394.7400,259.1414L397.8000,264.1425L400.8600,259.8368L403.9200,249.4485L403.9200,259.6073L406.9800,266.0053L410.0400,267.8192L413.1000,272.7295
            L413.1000,286.4050L416.1600,282.6263L419.2200,274.9353L422.2800,277.0873L422.2800,286.4333L425.3400,282.0262L428.4000,279.1433L431.4600,282.0522L431.4600,290.8860L434.5200,286.5151
            L437.5800,278.9337L440.6400,290.0294L440.6400,298.0962L443.7000,285.0273L446.7600,294.7130L449.8200,293.1982L449.8200,303.9256L452.8800,295.4334L455.9400,288.9661L459.0000,305.1156
            L459.0000,315.6303L462.0600,299.7304L465.1200,300.7632L468.1800,303.5826L468.1800,312.4156L471.2400,298.0538L474.3000,299.8902L477.3600,305.6701L477.3600,317.9213L480.4200,315.1023
            L483.4800,312.0204L486.5400,306.4849L486.5400,313.3407L489.6000,316.0224L492.6600,314.7838L495.7200,318.0393L495.7200,326.5093L498.7800,326.4821L501.8400,317.7970L504.9000,325.5107
            L504.9000,336.0596L507.9600,327.9287L511.0200,329.0737L514.0800,320.9020L514.0800,332.1196L517.1400,332.3615L520.2000,335.1806L523.2600,339.3397L523.2600,347.5451L526.3200,341.5832
            L529.3800,337.0049L532.4400,341.7051L532.4400,352.1156L535.5000,342.0942L538.5600,334.9810L541.6200,346.7858L541.6200,358.5377L544.6800,348.5895L547.7400,348.1167L550.8000,343.6301
            L550.8000,353.4098L553.8600,346.9932L556.9200,340.7369L559.9800,361.9024L559.9800,377.5908L563.0400,362.2987L566.1000,362.8796L569.1600,365.6655L569.1600,373.5980L572.2200,362.6449
            L575.2800,365.2914L578.3400,371.0012L578.3400,381.8642L581.4000,379.3867L584.4600,371.9821L587.5200,358.3303L587.5200,364.6079L590.5800,371.8298L593.6400,373.3644L596.7000,373.2309
            L596.7000,383.6949L599.7600,377.1061L602.8200,384.4569L605.8800,378.7184L605.8800,387.7455L608.9400,397.1466L612.0000,386.9500L615.0600,393.9573L615.0600,403.5165L618.1200,389.8091
            L621.1800,394.3912L624.2400,384.2625L624.2400,399.6463L627.3000,407.1913L630.3600,403.6548L633.4200,404.2188L633.4200,414.5463L636.4800,403.0493L639.5400,396.8914L642.6000,401.5473
            L642.6000,411.2355L645.6600,407.9143L648.7200,399.0571L651.7800,405.5648L651.7800,411.2750L654.8400,408.8126L657.9000,410.1789L660.9600,409.2057L664.0200,398.6091L667.0800,409.5505
            L670.1400,406.7302L673.2000,407.3531L676.2600,418.5814L679.3200,412.9438L682.3800,409.7513L685.4400,407.6346L688.5000,415.9266L691.5600,415.2258L694.6200,403.5290L697.6800,413.2397
            L700.7400,417.3515L703.8000,420.0961"/>
   <path d="M91.8000,91.8000L703.8000,91.8000"/>
   <path d="M91.8000,520.2000L703.8000,520.2000"/>
   <path d="M168.3000,91.8000L168.3000,97.9200"/>
   <path d="M168.3000,520.2000L168.3000,514.0800"/>
   <path d="M321.3000,91.8000L321.3000,97.9200"/>
   <path d="M321.3000,520.2000L321.3000,514.0800"/>
   <path d="M474.3000,91.8000L474.3000,97.9200"/>
   <path d="M474.3000,520.2000L474.3000,514.0800"/>
   <path d="M627.3000,91.8000L627.3000,97.9200"/>
   <path d="M627.3000,520.2000L627.3000,514.0800"/>
   <path d="M91.8000,91.8000L91.8000,104.0400"/>
   <path d="M91.8000,520.2000L91.8000,507.9600"/>
   <path d="M244.8000,91.8000L244.8000,104.0400"/>
   <path d="M244.8000,520.2000L244.8000,507.9600"/>
   <path d="M397.8000,91.8000L397.8000,104.0400"/>
   <path d="M397.8000,520.2000L397.8000,507.9600"/>
   <path d="M550.8000,91.8000L550.8000,104.0400"/>
   <path d="M550.8000,520.2000L550.8000,507.9600"/>
   <path d="M703.8000,91.8000L703.8000,104.0400"/>
   <path d="M703.8000,520.2000L703.8000,507.9600"/>
  </g>
  <g style="fill:#000000; fill-rule:nonzero">
   <text   style="font-family:'Times','Nimbus Roman No9 L'; font-style:normal; font-weight:normal; font-size:612.0000" transform="matrix(0.0280,0.0000,-0.0000,-0.0280,87.8000,74.6800)">0</text>
   <text   style="font-family:'Times','Nimbus Roman No9 L'; font-style:normal; font-weight:normal; font-size:612.0000" transform="matrix(0.0280,0.0000,-0.0000,-0.0280,240.8000,73.6800)">5</text>
   <text   style="font-family:'Times','Nimbus Roman No9 L'; font-style:normal; font-weight:normal; font-size:612.0000" transform="matrix(0.0280,0.0000,-0.0000,-0.0280,389.3000,73.6800)">10</text>
   <text   style="font-family:'Times','Nimbus Roman No9 L'; font-style:normal; font-weight:normal; font-size:612.0000" transform="matrix(0.0280,0.0000,-0.0000,-0.0280,542.3000,73.6800)">15</text>
   <text   style="font-family:'Times','Nimbus Roman No9 L'; font-style:normal; font-weight:normal; font-size:612.0000" transform="matrix(0.0280,0.0000,-0.0000,-0.0280,695.3000,74.6800)">20</text>
   <text   style="font-family:'Times','Nimbus Roman No9 L'; font-style:normal; font-weight:normal; font-size:612.0000" transform="matrix(0.0280,0.0000,-0.0000,-0.0280,364.8000,55.5600)">Time (ps)</text>
  </g>
  <g style="fill:none; stroke:#000000; stroke-width:  0.9180; stroke-linecap:butt; stroke-linejoin:miter; stroke-dasharray:none">
   <path d="M91.8000,91.8000L91.8000,520.2000"/>
   <path d="M703.8000,91.8000L703.8000,520.2000"/>
   <path d="M91.8000,145.3500L97.9200,145.3500"/>
   <path d="M703.8000,145.3500L697.6800,145.3500"/>
   <path d="M91.8000,252.4500L97.9200,252.4500"/>
   <path d="M703.8000,252.4500L697.6800,252.4500"/>
   <path d="M91.8000,359.5500L97.9200,359.5500"/>
   <path d="M703.8000,359.5500L697.6800,359.5500"/>
   <path d="M91.8000,466.6500L97.9200,466.6500"/>
   <path d="M703.8000,466.6500L697.6800,466.6500"/>
   <path d="M91.8000,91.8000L104.0400,91.8000"/>
   <path d="M703.8000,91.8000L691.5600,91.8000"/>
   <path d="M91.8000,198.9000L104.0400,198.9000"/>
   <path d="M703.8000,198.9000L691.5600,198.9000"/>
   <path d="M91.8000,306.0000L104.0400,306.0000"/>
   <path d="M703.8000,306.0000L691.5600,306.0000"/>
   <path d="M91.8000,413.1000L104.0400,413.1000"/>
   <path d="M703.8000,413.1000L691.5600,413.1000"/>
   <path d="M91.8000,520.2000L104.0400,520.2000"/>
   <path d="M703.8000,520.2000L691.5600,520.2000"/>
  </g>
  <g style="fill:#000000; fill-rule:nonzero">
   <text   style="font-family:'Times','Nimbus Roman No9 L'; font-style:normal; font-weight:normal; font-size:612.0000" transform="matrix(0.0280,0.0000,-0.0000,-0.0280,77.6800,86.3000)">0</text>
   <text   style="font-family:'Times','Nimbus Roman No9 L'; font-style:normal; font-weight:normal; font-size:612.0000" transform="matrix(0.0280,0.0000,-0.0000,-0.0280,60.6800,192.9000)">100</text>
   <text   style="font-family:'Times','Nimbus Roman No9 L'; font-style:normal; font-weight:normal; font-size:612.0000" transform="matrix(0.0280,0.0000,-0.0000,-0.0280,60.6800,300.5000)">200</text>
   <text   style="font-family:'Times','Nimbus Roman No9 L'; font-style:normal; font-weight:normal; font-size:612.0000" transform="matrix(0.0280,0.0000,-0.0000,-0.0280,60.6800,407.6000)">300</text>
   <text   style="font-family:'Times','Nimbus Roman No9 L'; font-style:normal; font-weight:normal; font-size:612.0000" transform="matrix(0.0280,0.0000,-0.0000,-0.0280,60.6800,514.7000)">400</text>
   <text   style="font-family:'Times','Nimbus Roman No9 L'; font-style:normal; font-weight:normal; font-size:612.0000" transform="matrix(0.0000,0.0280,0.0280,-0.0000,49.5600,248.5000)">Temperature (K)</text>
  </g>
  <g style="fill:none; stroke:#000000; stroke-width:  0.9180; stroke-linecap:butt; stroke-linejoin:miter; stroke-dasharray:none">
   <path d="M91.8000,91.8000L91.8000,520.2000L703.8000,520.2000L703.8000,91.8000z"/>
  </g>
  <g style="fill:#000000; fill-rule:nonzero">
   <text   style="font-family:'Times','Nimbus Roman No9 L'; font-style:normal; font-weight:normal; font-size:612.0000" transform="matrix(0.0420,0.0000,-0.0000,-0.0420,214.3000,562.9200)">Temperature while heating to 300K</text>
  </g>
 </g>
</svg>
