<?xml version="1.0" encoding="ISO-8859-1"?>
<!DOCTYPE svg PUBLIC "-//W3C//DTD SVG 1.0//EN" "http://www.w3.org/TR/2001/REC-SVG-20010904/DTD/svg10.dtd">
<!-- generated by Grace-5.1.25 -->
<svg xml:space="preserve" width="11.0000in" height="8.5000in" viewBox="0.0000 0.0000 792.0000 612.0000">
 <g transform="translate(0,612.0000) scale(1,-1)">
  <g style="fill:#FFFFFF; fill-rule:nonzero">
   <path  d="M0.0000,0.0000L0.0000,612.0000L792.0000,612.0000L792.0000,0.0000z"/>
  </g>
  <g style="fill:none; stroke:#000000; stroke-width:  0.9180; stroke-linecap:butt; stroke-linejoin:miter; stroke-dasharray:none">
   <path d="M91.8000,266.8666L94.8600,267.6244L97.9200,267.7390L100.9800,267.4930L104.0400,267.8192L107.1000,267.9025L110.1600,267.7284L113.2200,267.8727L116.2800,267.5168L119.3400,267.7429
            L122.4000,267.6934L122.4000,239.3273L125.4600,239.0484L128.5200,239.3221L131.5800,239.1518L134.6400,239.0229L137.7000,239.1301L140.7600,239.0256L143.8200,239.0961L146.8800,239.0348
            L149.9400,239.1236L153.0000,238.9452L153.0000,237.6528L156.0600,237.7570L159.1200,237.8634L162.1800,237.8359L165.2400,237.7600L168.3000,237.9254L171.3600,237.7093L174.4200,237.7317
            L177.4800,237.8424L180.5400,237.8797L183.6000,237.7351L183.6000,236.7889L186.6600,236.9449L189.7200,236.9050L192.7800,236.7261L195.8400,236.9476L198.9000,236.7098L201.9600,236.8122
            L205.0200,236.8899L208.0800,236.7191L211.1400,236.6599L214.2000,236.8208L214.2000,237.5007L217.2600,237.5165L220.3200,237.2666L223.3800,237.3882L226.4400,237.6175L229.5000,237.4141
            L232.5600,237.5772L235.6200,237.4344L238.6800,237.3743L241.7400,237.4261L244.8000,237.3901L244.8000,237.0524L247.8600,237.1045L250.9200,237.0136L253.9800,236.9914L257.0400,237.1340
            L260.1000,237.1535L263.1600,237.0572L266.2200,237.1714L269.2800,237.1589L272.3400,237.0127L275.4000,237.0812L275.4000,236.1566L278.4600,236.0604L281.5200,236.0420L284.5800,236.1056
            L287.6400,236.1741L290.7000,236.1560L293.7600,236.0259L296.8200,236.2236L299.8800,236.2950L302.9400,236.0473L306.0000,236.1681L306.0000,237.1036L309.0600,237.2137L312.1200,237.1085
            L315.1800,237.1749L318.2400,237.1192L321.3000,237.2289L324.3600,237.1731L327.4200,237.0042L330.4800,237.1353L333.5400,237.0026L336.6000,237.0460L336.6000,237.2425L339.6600,237.4180
            L342.7200,237.4651L345.7800,237.3803L348.8400,237.2996L351.9000,237.3371L354.9600,237.3212L358.0200,237.1596L361.0800,237.3097L364.1400,237.4465L367.2000,237.3374L367.2000,236.3974
            L370.2600,236.3438L373.3200,236.5268L376.3800,236.4959L379.4400,236.4418L382.5000,236.4153L385.5600,236.4864L388.6200,236.3028L391.6800,236.3200L394.7400,236.3931L397.8000,236.3605
            L397.8000,237.4168L400.8600,237.4866L403.9200,237.4913L406.9800,237.5468L410.0400,237.5072L413.1000,237.3852L416.1600,237.3835L419.2200,237.3414L422.2800,237.4686L425.3400,237.4095
            L428.4000,237.3332L428.4000,236.4757L431.4600,236.7679L434.5200,236.5368L437.5800,236.6254L440.6400,236.6565L443.7000,236.5406L446.7600,236.7172L449.8200,236.6114L452.8800,236.5185
            L455.9400,236.5236L459.0000,236.4509L459.0000,236.4703L462.0600,236.4991L465.1200,236.5324L468.1800,236.4437L471.2400,236.6301L474.3000,236.5149L477.3600,236.6696L480.4200,236.5673
            L483.4800,236.5539L486.5400,236.6797L489.6000,236.5680L489.6000,236.5264L492.6600,236.5799L495.7200,236.5929L498.7800,236.5875L501.8400,236.4998L504.9000,236.4669L507.9600,236.7392
            L511.0200,236.6115L514.0800,236.5427L517.1400,236.5247L520.2000,236.5253L520.2000,235.6648L523.2600,235.7959L526.3200,235.5514L529.3800,235.5934L532.4400,235.6962L535.5000,235.8267
            L538.5600,235.7181L541.6200,235.6163L544.6800,235.6064L547.7400,235.7526L550.8000,235.4731L550.8000,236.0311L553.8600,236.1581L556.9200,236.3687L559.9800,236.2498L563.0400,236.1365
            L566.1000,236.3398L569.1600,236.2834L572.2200,236.2733L575.2800,236.2966L578.3400,236.3225L581.4000,236.3155L581.4000,235.8527L584.4600,235.7886L587.5200,235.8399L590.5800,235.7572
            L593.6400,235.8536L596.7000,235.7196L599.7600,235.8011L602.8200,235.7834L605.8800,235.8931L608.9400,235.8190L612.0000,235.7588L612.0000,235.6960L615.0600,235.6908L618.1200,235.8309
            L621.1800,235.4917L624.2400,235.7479L627.3000,235.8760L630.3600,235.6943L633.4200,235.6197L636.4800,235.6384L639.5400,235.7072L642.6000,235.4680L642.6000,235.8959L645.6600,236.0159
            L648.7200,236.1376L651.7800,236.0407L654.8400,235.9067L657.9000,236.1689L660.9600,236.2238L664.0200,236.1821L667.0800,236.2440L670.1400,235.9883L673.2000,236.2031L673.2000,236.1655
            L676.2600,236.2326L679.3200,236.1642L682.3800,235.9978L685.4400,236.0756L688.5000,236.0602L691.5600,236.0463L694.6200,235.9833L697.6800,236.0430L700.7400,236.1161L703.8000,236.0464"/>
  </g>
  <g style="fill:none; stroke:#FF0000; stroke-width:  0.9180; stroke-linecap:butt; stroke-linejoin:miter; stroke-dasharray:none">
   <path d="M91.8000,357.0262L94.8600,341.4253L97.9200,340.7197L100.9800,337.1632L104.0400,335.9543L107.1000,332.3615L110.1600,336.9618L113.2200,332.6861L116.2800,339.2101L119.3400,336.2537
            L122.4000,338.8790L122.4000,310.5128L125.4600,325.4223L128.5200,323.1129L131.5800,321.5842L134.6400,324.5050L137.7000,322.9127L140.7600,325.2385L143.8200,324.6134L146.8800,323.3106
            L149.9400,323.9930L153.0000,324.4850L153.0000,323.1926L156.0600,320.7043L159.1200,322.0689L162.1800,320.7021L165.2400,321.0522L168.3000,323.1315L171.3600,325.6126L174.4200,324.1437
            L177.4800,323.0586L180.5400,321.3905L183.6000,325.2264L183.6000,324.2803L186.6600,323.0192L189.7200,322.5104L192.7800,324.9461L195.8400,322.6984L198.9000,326.6018L201.9600,323.9114
            L205.0200,323.4611L208.0800,319.2488L211.1400,326.6388L214.2000,321.0094L214.2000,321.6892L217.2600,323.5086L220.3200,325.8276L223.3800,325.7945L226.4400,320.4396L229.5000,322.1140
            L232.5600,320.8067L235.6200,324.7662L238.6800,322.3171L241.7400,323.0320L244.8000,322.6889L244.8000,322.3512L247.8600,322.7700L250.9200,324.5650L253.9800,326.8957L257.0400,323.1496
            L260.1000,323.3739L263.1600,328.4563L266.2200,322.5358L269.2800,321.9866L272.3400,320.8734L275.4000,325.5103L275.4000,324.5858L278.4600,324.1857L281.5200,327.9119L284.5800,325.1137
            L287.6400,325.3433L290.7000,322.4627L293.7600,329.1867L296.8200,324.3508L299.8800,322.7724L302.9400,324.7389L306.0000,318.6046L306.0000,319.5401L309.0600,323.4274L312.1200,324.5420
            L315.1800,317.3181L318.2400,325.3306L321.3000,319.6941L324.3600,316.5303L327.4200,325.8081L330.4800,323.3510L333.5400,322.7697L336.6000,324.3278L336.6000,324.5243L339.6600,323.6777
            L342.7200,323.2994L345.7800,319.6659L348.8400,325.6978L351.9000,326.8687L354.9600,323.3726L358.0200,325.1598L361.0800,322.3276L364.1400,323.6298L367.2000,322.8918L367.2000,321.9518
            L370.2600,322.6033L373.3200,322.4093L376.3800,323.6279L379.4400,316.0263L382.5000,321.6989L385.5600,322.6846L388.6200,321.2303L391.6800,324.2630L394.7400,321.1938L397.8000,324.3861
            L397.8000,325.4423L400.8600,325.8956L403.9200,321.5062L406.9800,326.8336L410.0400,321.5819L413.1000,321.6035L416.1600,323.2694L419.2200,329.6137L422.2800,323.9953L425.3400,320.9959
            L428.4000,325.0530L428.4000,324.1956L431.4600,323.2450L434.5200,323.3010L437.5800,323.8723L440.6400,321.6979L443.7000,325.7754L446.7600,323.3923L449.8200,321.7961L452.8800,324.4421
            L455.9400,323.0466L459.0000,325.1088L459.0000,325.1282L462.0600,322.1579L465.1200,323.2303L468.1800,329.0722L471.2400,325.1980L474.3000,329.1344L477.3600,323.7879L480.4200,322.9605
            L483.4800,320.6129L486.5400,323.6191L489.6000,325.8141L489.6000,325.7725L492.6600,322.3148L495.7200,324.8568L498.7800,324.5371L501.8400,325.5479L504.9000,324.0918L507.9600,321.6444
            L511.0200,320.2135L514.0800,324.6756L517.1400,327.7375L520.2000,323.5340L520.2000,322.6735L523.2600,324.0806L526.3200,324.6456L529.3800,326.3692L532.4400,323.8607L535.5000,322.1424
            L538.5600,322.6863L541.6200,324.3472L544.6800,325.3827L547.7400,319.0092L550.8000,327.7271L550.8000,328.2851L553.8600,324.8015L556.9200,322.6429L559.9800,324.6193L563.0400,330.9881
            L566.1000,319.1956L569.1600,320.9232L572.2200,323.1409L575.2800,321.6805L578.3400,323.5078L581.4000,324.0066L581.4000,323.5438L584.4600,323.1276L587.5200,322.6460L590.5800,322.1196
            L593.6400,322.3882L596.7000,324.1491L599.7600,323.4905L602.8200,324.8608L605.8800,320.8718L608.9400,325.5492L612.0000,321.3830L612.0000,321.3202L615.0600,318.8942L618.1200,325.1497
            L621.1800,328.5152L624.2400,324.3538L627.3000,321.3010L630.3600,323.1725L633.4200,324.2124L636.4800,327.0739L639.5400,326.4886L642.6000,326.2214L642.6000,326.6493L645.6600,323.4497
            L648.7200,324.7636L651.7800,327.3155L654.8400,327.8859L657.9000,320.1342L660.9600,321.0508L664.0200,325.3289L667.0800,320.0502L670.1400,326.7882L673.2000,322.1337L673.2000,322.0961
            L676.2600,319.6038L679.3200,324.2078L682.3800,324.7619L685.4400,324.3545L688.5000,327.0788L691.5600,325.0395L694.6200,327.0261L697.6800,326.6098L700.7400,322.3334L703.8000,327.2712"/>
  </g>
  <g style="fill:none; stroke:#00FF00; stroke-width:  0.9180; stroke-linecap:butt; stroke-linejoin:miter; stroke-dasharray:none">
   <path d="M91.8000,100.5019L94.8600,116.8606L97.9200,117.6808L100.9800,120.9914L104.0400,122.5264L107.1000,126.2026L110.1600,121.4281L113.2200,125.8481L116.2800,118.9682L119.3400,122.1508
            L122.4000,119.4760L122.4000,119.4760L125.4600,104.2876L128.5200,106.8707L131.5800,108.2292L134.6400,105.1794L137.7000,106.8789L140.7600,104.4487L143.8200,105.1443L146.8800,106.3857
            L149.9400,105.7921L153.0000,105.1217L153.0000,105.1217L156.0600,107.7143L159.1200,106.4560L162.1800,107.7953L165.2400,107.3694L168.3000,105.4554L171.3600,102.7582L174.4200,104.2496
            L177.4800,105.4454L180.5400,107.1508L183.6000,103.1702L183.6000,103.1702L186.6600,104.5872L189.7200,105.0561L192.7800,102.4415L195.8400,104.9108L198.9000,100.7695L201.9600,103.5624
            L205.0200,104.0904L208.0800,108.1318L211.1400,100.6826L214.2000,106.4730L214.2000,106.4730L217.2600,104.6694L220.3200,102.1005L223.3800,102.2552L226.4400,107.8394L229.5000,105.9617
            L232.5600,107.4320L235.6200,103.3297L238.6800,105.7187L241.7400,105.0557L244.8000,105.3628L244.8000,105.3628L247.8600,104.9960L250.9200,103.1101L253.9800,100.7572L257.0400,104.6460
            L260.1000,104.4412L263.1600,99.2624L266.2200,105.2972L269.2800,105.8337L272.3400,106.8009L275.4000,102.2324L275.4000,102.2324L278.4600,102.5362L281.5200,98.7916L284.5800,101.6534
            L287.6400,101.4922L290.7000,104.3549L293.7600,97.5008L296.8200,102.5343L299.8800,104.1841L302.9400,101.9700L306.0000,108.2251L306.0000,108.2251L309.0600,104.4478L312.1200,103.2281
            L315.1800,110.5183L318.2400,102.4502L321.3000,108.1963L324.3600,111.3043L327.4200,101.8576L330.4800,104.4458L333.5400,104.8944L336.6000,103.3798L336.6000,103.3798L339.6600,104.4018
            L342.7200,104.8273L345.7800,108.3760L348.8400,102.2633L351.9000,101.1300L354.9600,104.6101L358.0200,102.6613L361.0800,105.6436L364.1400,104.4781L367.2000,105.1071L367.2000,105.1071
            L370.2600,104.4020L373.3200,104.7790L376.3800,103.5296L379.4400,111.0770L382.5000,105.3779L385.5600,104.4633L388.6200,105.7341L391.6800,102.7186L394.7400,105.8608L397.8000,102.6360
            L397.8000,102.6360L400.8600,102.2526L403.9200,106.6467L406.9800,101.3747L410.0400,106.5868L413.1000,106.4432L416.1600,104.7756L419.2200,98.3893L422.2800,104.1348L425.3400,107.0752
            L428.4000,102.9417L428.4000,102.9417L431.4600,104.1844L434.5200,103.8973L437.5800,103.4147L440.6400,105.6201L443.7000,101.4268L446.7600,103.9864L449.8200,105.4769L452.8800,102.7379
            L455.9400,104.1386L459.0000,102.0036L459.0000,102.0036L462.0600,105.0028L465.1200,103.9636L468.1800,98.0331L471.2400,102.0937L474.3000,98.0420L477.3600,103.5432L480.4200,104.2683
            L483.4800,106.6025L486.5400,103.7222L489.6000,101.4155L489.6000,101.4155L492.6600,104.9267L495.7200,102.3976L498.7800,102.7119L501.8400,101.6134L504.9000,103.0367L507.9600,105.7564
            L511.0200,107.0595L514.0800,102.5286L517.1400,99.4488L520.2000,103.6528L520.2000,103.6528L523.2600,102.3768L526.3200,101.5674L529.3800,99.8857L532.4400,102.4970L535.5000,104.3458
            L538.5600,103.6933L541.6200,101.9307L544.6800,100.8852L547.7400,107.4049L550.8000,98.4076L550.8000,98.4076L553.8600,102.0182L556.9200,104.3873L559.9800,102.2920L563.0400,95.8099
            L566.1000,107.8058L569.1600,106.0218L572.2200,103.7940L575.2800,105.2777L578.3400,103.4762L581.4000,102.9705L581.4000,102.9705L584.4600,103.3225L587.5200,103.8555L590.5800,104.2991
            L593.6400,104.1269L596.7000,102.2320L599.7600,102.9721L602.8200,101.5841L605.8800,105.6828L608.9400,100.9313L612.0000,105.0373L612.0000,105.0373L615.0600,107.4581L618.1200,101.3427
            L621.1800,97.6380L624.2400,102.0557L627.3000,105.2366L630.3600,103.1834L633.4200,102.0689L636.4800,99.2260L639.5400,99.8801L642.6000,99.9082L642.6000,99.9082L645.6600,103.2277
            L648.7200,102.0355L651.7800,99.3867L654.8400,98.6823L657.9000,106.6962L660.9600,105.8345L664.0200,101.5148L667.0800,106.8553L670.1400,99.8616L673.2000,104.7309L673.2000,104.7309
            L676.2600,107.2903L679.3200,102.6180L682.3800,101.8975L685.4400,102.3826L688.5000,99.6430L691.5600,101.6684L694.6200,99.6188L697.6800,100.0947L700.7400,104.4443L703.8000,99.4368"/>
  </g>
  <g style="fill:none; stroke:#000000; stroke-width:  0.9180; stroke-linecap:butt; stroke-linejoin:miter; stroke-dasharray:none">
   <path d="M91.8000,91.8000L703.8000,91.8000"/>
   <path d="M91.8000,520.2000L703.8000,520.2000"/>
   <path d="M168.3000,91.8000L168.3000,97.9200"/>
   <path d="M168.3000,520.2000L168.3000,514.0800"/>
   <path d="M321.3000,91.8000L321.3000,97.9200"/>
   <path d="M321.3000,520.2000L321.3000,514.0800"/>
   <path d="M474.3000,91.8000L474.3000,97.9200"/>
   <path d="M474.3000,520.2000L474.3000,514.0800"/>
   <path d="M627.3000,91.8000L627.3000,97.9200"/>
   <path d="M627.3000,520.2000L627.3000,514.0800"/>
   <path d="M91.8000,91.8000L91.8000,104.0400"/>
   <path d="M91.8000,520.2000L91.8000,507.9600"/>
   <path d="M244.8000,91.8000L244.8000,104.0400"/>
   <path d="M244.8000,520.2000L244.8000,507.9600"/>
   <path d="M397.8000,91.8000L397.8000,104.0400"/>
   <path d="M397.8000,520.2000L397.8000,507.9600"/>
   <path d="M550.8000,91.8000L550.8000,104.0400"/>
   <path d="M550.8000,520.2000L550.8000,507.9600"/>
   <path d="M703.8000,91.8000L703.8000,104.0400"/>
   <path d="M703.8000,520.2000L703.8000,507.9600"/>
  </g>
  <g style="fill:#000000; fill-rule:nonzero">
   <text   style="font-family:'Times','Nimbus Roman No9 L'; font-style:normal; font-weight:normal; font-size:612.0000" transform="matrix(0.0280,0.0000,-0.0000,-0.0280,87.8000,74.6800)">0</text>
   <text   style="font-family:'Times','Nimbus Roman No9 L'; font-style:normal; font-weight:normal; font-size:612.0000" transform="matrix(0.0280,0.0000,-0.0000,-0.0280,240.8000,73.6800)">5</text>
   <text   style="font-family:'Times','Nimbus Roman No9 L'; font-style:normal; font-weight:normal; font-size:612.0000" transform="matrix(0.0280,0.0000,-0.0000,-0.0280,389.3000,73.6800)">10</text>
   <text   style="font-family:'Times','Nimbus Roman No9 L'; font-style:normal; font-weight:normal; font-size:612.0000" transform="matrix(0.0280,0.0000,-0.0000,-0.0280,542.3000,73.6800)">15</text>
   <text   style="font-family:'Times','Nimbus Roman No9 L'; font-style:normal; font-weight:normal; font-size:612.0000" transform="matrix(0.0280,0.0000,-0.0000,-0.0280,695.3000,74.6800)">20</text>
   <text   style="font-family:'Times','Nimbus Roman No9 L'; font-style:normal; font-weight:normal; font-size:612.0000" transform="matrix(0.0280,0.0000,-0.0000,-0.0280,364.8000,55.5600)">Time (ps)</text>
  </g>
  <g style="fill:none; stroke:#000000; stroke-width:  0.9180; stroke-linecap:butt; stroke-linejoin:miter; stroke-dasharray:none">
   <path d="M91.8000,91.8000L91.8000,520.2000"/>
   <path d="M703.8000,91.8000L703.8000,520.2000"/>
   <path d="M91.8000,149.4692L97.9200,149.4692"/>
   <path d="M703.8000,149.4692L697.6800,149.4692"/>
   <path d="M91.8000,231.8538L97.9200,231.8538"/>
   <path d="M703.8000,231.8538L697.6800,231.8538"/>
   <path d="M91.8000,314.2385L97.9200,314.2385"/>
   <path d="M703.8000,314.2385L697.6800,314.2385"/>
   <path d="M91.8000,396.6231L97.9200,396.6231"/>
   <path d="M703.8000,396.6231L697.6800,396.6231"/>
   <path d="M91.8000,479.0077L97.9200,479.0077"/>
   <path d="M703.8000,479.0077L697.6800,479.0077"/>
   <path d="M91.8000,108.2769L104.0400,108.2769"/>
   <path d="M703.8000,108.2769L691.5600,108.2769"/>
   <path d="M91.8000,190.6615L104.0400,190.6615"/>
   <path d="M703.8000,190.6615L691.5600,190.6615"/>
   <path d="M91.8000,273.0462L104.0400,273.0462"/>
   <path d="M703.8000,273.0462L691.5600,273.0462"/>
   <path d="M91.8000,355.4308L104.0400,355.4308"/>
   <path d="M703.8000,355.4308L691.5600,355.4308"/>
   <path d="M91.8000,437.8154L104.0400,437.8154"/>
   <path d="M703.8000,437.8154L691.5600,437.8154"/>
   <path d="M91.8000,520.2000L104.0400,520.2000"/>
   <path d="M703.8000,520.2000L691.5600,520.2000"/>
  </g>
  <g style="fill:#000000; fill-rule:nonzero">
   <text   style="font-family:'Times','Nimbus Roman No9 L'; font-style:normal; font-weight:normal; font-size:612.0000" transform="matrix(0.0280,0.0000,-0.0000,-0.0280,54.6800,102.2769)">-500</text>
   <text   style="font-family:'Times','Nimbus Roman No9 L'; font-style:normal; font-weight:normal; font-size:612.0000" transform="matrix(0.0280,0.0000,-0.0000,-0.0280,77.6800,185.1615)">0</text>
   <text   style="font-family:'Times','Nimbus Roman No9 L'; font-style:normal; font-weight:normal; font-size:612.0000" transform="matrix(0.0280,0.0000,-0.0000,-0.0280,60.6800,267.0462)">500</text>
   <text   style="font-family:'Times','Nimbus Roman No9 L'; font-style:normal; font-weight:normal; font-size:612.0000" transform="matrix(0.0280,0.0000,-0.0000,-0.0280,51.6800,349.4308)">1000</text>
   <text   style="font-family:'Times','Nimbus Roman No9 L'; font-style:normal; font-weight:normal; font-size:612.0000" transform="matrix(0.0280,0.0000,-0.0000,-0.0280,51.6800,431.8154)">1500</text>
   <text   style="font-family:'Times','Nimbus Roman No9 L'; font-style:normal; font-weight:normal; font-size:612.0000" transform="matrix(0.0280,0.0000,-0.0000,-0.0280,51.6800,514.7000)">2000</text>
   <text   style="font-family:'Times','Nimbus Roman No9 L'; font-style:normal; font-weight:normal; font-size:612.0000" transform="matrix(0.0000,0.0280,0.0280,-0.0000,41.5600,240.0000)">Energy (kcal/mole)</text>
  </g>
  <g style="fill:none; stroke:#000000; stroke-width:  0.9180; stroke-linecap:butt; stroke-linejoin:miter; stroke-dasharray:none">
   <path d="M91.8000,91.8000L91.8000,520.2000L703.8000,520.2000L703.8000,91.8000z"/>
  </g>
  <g style="fill:#FFFFFF; fill-rule:nonzero">
   <path  d="M520.2000,489.6000L520.2000,430.1200L629.6190,430.1200L629.6190,489.6000z"/>
  </g>
  <g style="fill:none; stroke:#000000; stroke-width:  0.9180; stroke-linecap:butt; stroke-linejoin:miter; stroke-dasharray:none">
   <path d="M520.2000,489.6000L520.2000,430.1200L629.6190,430.1200L629.6190,489.6000z"/>
  </g>
  <g style="fill:#000000; fill-rule:nonzero">
   <text   style="font-family:'Times','Nimbus Roman No9 L'; font-style:normal; font-weight:normal; font-size:612.0000" transform="matrix(0.0280,0.0000,-0.0000,-0.0280,563.4990,471.4800)">Total</text>
  </g>
  <g style="fill:none; stroke:#000000; stroke-width:  0.9180; stroke-linecap:butt; stroke-linejoin:miter; stroke-dasharray:none">
   <path d="M526.7790,477.4800L551.2590,477.4800"/>
  </g>
  <g style="fill:#000000; fill-rule:nonzero">
   <text   style="font-family:'Times','Nimbus Roman No9 L'; font-style:normal; font-weight:normal; font-size:612.0000" transform="matrix(0.0280,0.0000,-0.0000,-0.0280,563.4990,454.3600)">Kinetic</text>
  </g>
  <g style="fill:none; stroke:#FF0000; stroke-width:  0.9180; stroke-linecap:butt; stroke-linejoin:miter; stroke-dasharray:none">
   <path d="M526.7790,459.8600L551.2590,459.8600"/>
  </g>
  <g style="fill:#000000; fill-rule:nonzero">
   <text   style="font-family:'Times','Nimbus Roman No9 L'; font-style:normal; font-weight:normal; font-size:612.0000" transform="matrix(0.0280,0.0000,-0.0000,-0.0280,563.4990,436.2400)">Potential</text>
  </g>
  <g style="fill:none; stroke:#00FF00; stroke-width:  0.9180; stroke-linecap:butt; stroke-linejoin:miter; stroke-dasharray:none">
   <path d="M526.7790,442.2400L551.2590,442.2400"/>
  </g>
  <g style="fill:#000000; fill-rule:nonzero">
   <text   style="font-family:'Times','Nimbus Roman No9 L'; font-style:normal; font-weight:normal; font-size:612.0000" transform="matrix(0.0420,0.0000,-0.0000,-0.0420,255.3000,562.9200)">Energy during equilibration</text>
  </g>
 </g>
</svg>
