<?xml version="1.0" encoding="ISO-8859-1"?>
<!DOCTYPE svg PUBLIC "-//W3C//DTD SVG 1.0//EN" "http://www.w3.org/TR/2001/REC-SVG-20010904/DTD/svg10.dtd">
<!-- generated by Grace-5.1.25 -->
<svg xml:space="preserve" width="11.0000in" height="8.5000in" viewBox="0.0000 0.0000 792.0000 612.0000">
 <g transform="translate(0,612.0000) scale(1,-1)">
 <desc></desc>
  <g style="fill:#FFFFFF; fill-rule:nonzero">
   <path  d="M0.0000,0.0000L0.0000,612.0000L792.0000,612.0000L792.0000,0.0000z"/>
  </g>
  <g style="fill:none; stroke:#000000; stroke-width:  0.9180; stroke-linecap:butt; stroke-linejoin:miter; stroke-dasharray:none">
   <path d="M93.0240,163.4741L94.2480,196.6083L95.4720,217.9379L96.6960,239.3572L97.9200,259.2356L99.1440,277.3060L100.3680,290.8481L101.5920,297.4127L102.8160,302.2768L104.0400,304.3421
            L105.2640,304.7411L106.4880,307.2445L107.7120,310.4382L108.9360,312.7516L110.1600,313.6405L111.3840,312.1154L112.6080,311.2201L113.8320,307.3280L115.0560,306.6319L116.2800,304.1611
            L117.5040,300.4539L118.7280,296.8423L119.9520,296.3936L121.1760,296.6645L122.4000,296.2595L123.6240,298.2809L124.8480,304.8191L126.0720,314.4630L127.2960,322.0050L128.5200,323.3459
            L129.7440,324.4876L130.9680,325.1559L132.1920,327.7713L133.4160,331.4791L134.6400,333.4133L135.8640,333.4969L137.0880,333.9724L138.3120,335.7053L139.5360,337.4360L140.7600,336.1915
            L141.9840,328.8616L143.2080,322.0693L144.4320,317.9245L145.6560,312.1047L146.8800,302.3048L148.1040,297.0051L149.3280,295.6062L150.5520,299.0385L151.7760,302.3479L153.0000,305.3167
            L154.2240,308.8296L155.4480,310.2283L156.6720,313.1757L157.8960,312.4046L159.1200,312.6188L160.3440,313.1414L161.5680,311.7534L162.7920,310.4382L164.0160,310.2861L165.2400,312.0276
            L166.4640,309.4015L167.6880,305.4881L168.9120,302.9065L170.1360,303.2480L171.3600,302.5869L172.5840,298.5677L173.8080,292.0228L175.0320,283.9436L176.2560,279.5570L177.4800,280.1403
            L178.7040,278.0032L179.9280,281.1172L181.1520,281.3355L182.3760,277.0519L183.6000,274.7452L184.8240,275.9520L186.0480,279.6731L187.2720,288.2203L188.4960,295.6972L189.7200,305.0014
            L190.9440,308.5533L192.1680,309.1959L193.3920,309.1188L194.6160,307.5037L195.8400,308.0456L197.0640,309.0952L198.2880,311.8755L199.5120,310.8388L200.7360,310.2305L201.9600,313.9597
            L203.1840,319.1647L204.4080,322.9946L205.6320,324.9353L206.8560,327.9662L208.0800,330.7444L209.3040,333.0963L210.5280,332.9935L211.7520,329.1443L212.9760,322.6669L214.2000,316.6522
            L215.4240,310.8816L216.6480,303.8147L217.8720,296.6302L219.0960,295.1137L220.3200,296.0650L221.5440,296.4640L222.7680,294.4525L223.9920,288.7430L225.2160,284.2563L226.4400,279.3794
            L227.6640,270.7622L228.8880,263.2228L230.1120,256.1447L231.3360,253.3503L232.5600,253.0283L233.7840,259.5593L235.0080,264.8535L236.2320,268.0615L237.4560,274.8438L238.6800,281.5013
            L239.9040,287.5632L241.1280,291.0625L242.3520,293.9131L243.5760,296.9162L244.8000,301.6406L246.0240,306.9253L247.2480,309.9841L248.4720,306.7861L249.6960,306.7240L250.9200,307.4694
            L252.1440,305.4986L253.3680,306.7733L254.5920,308.1591L255.8160,309.3544L257.0400,310.2840L258.2640,311.3828L259.4880,312.5952L260.7120,313.5270L261.9360,309.8770L263.1600,308.6711
            L264.3840,305.0303L265.6080,302.3672L266.8320,301.8724L268.0560,306.9018L269.2800,312.3982L270.5040,314.0111L271.7280,314.2553L272.9520,313.2121L274.1760,311.9805L275.4000,307.6472
            L276.6240,303.5656L277.8480,298.1127L279.0720,294.9582L280.2960,294.8597L281.5200,291.1639L282.7440,288.1548L283.9680,282.7008L285.1920,275.8976L286.4160,270.8635L287.6400,268.5705
            L288.8640,266.6328L290.0880,269.5485L291.3120,273.5845L292.5360,274.5771L293.7600,273.2959L294.9840,271.8539L296.2080,273.4026L297.4320,276.5841L298.6560,278.8510L299.8800,281.1524
            L301.1040,285.3916L302.3280,288.9240L303.5520,294.5011L304.7760,299.2099L306.0000,302.8992L307.2240,307.2595L308.4480,310.0569L309.6720,311.5671L310.8960,316.3352L312.1200,318.6292
            L313.3440,319.1069L314.5680,320.4178L315.7920,322.3113L317.0160,319.7409L318.2400,316.7400L319.4640,316.1060L320.6880,315.8832L321.9120,318.9634L323.1360,321.1889L324.3600,320.9404
            L325.5840,318.5200L326.8080,315.6283L328.0320,314.3238L329.2560,312.0726L330.4800,311.5970L331.7040,311.8091L332.9280,311.0187L334.1520,309.4550L335.3760,309.0845L336.6000,309.8320
            L337.8240,313.1243L339.0480,316.4979L340.2720,318.5478L341.4960,318.7085L342.7200,318.6871L343.9440,316.5965L345.1680,313.6191L346.3920,306.9489L347.6160,302.0140L348.8400,298.8055
            L350.0640,296.7815L351.2880,293.4479L352.5120,293.0381L353.7360,293.6231L354.9600,291.3164L356.1840,289.4698L357.4080,284.2321L358.6320,279.8348L359.8560,280.4982L361.0800,283.4171
            L362.3040,286.8302L363.5280,290.0233L364.7520,292.3268L365.9760,292.3535L367.2000,294.3876L368.4240,296.0069L369.6480,295.7163L370.8720,300.2012L372.0960,307.3880L373.3200,314.2638
            L374.5440,322.0414L375.7680,326.3619L376.9920,327.8977L378.2160,327.5828L379.4400,329.5984L380.6640,332.0510L381.8880,335.0991L383.1120,341.3301L384.3360,340.6319L385.5600,337.3375
            L386.7840,333.0428L388.0080,326.7988L389.2320,317.4875L390.4560,308.1827L391.6800,303.1768L392.9040,294.5407L394.1280,285.9926L395.3520,285.0020L396.5760,293.2478L397.8000,302.6026
            L399.0240,312.1968L400.2480,319.7152L401.4720,322.8297L402.6960,322.4720L403.9200,320.2293L405.1440,318.2394L406.3680,316.1102L407.5920,313.7969L408.8160,309.7699L410.0400,308.4140
            L411.2640,304.3305L412.4880,303.6541L413.7120,305.2434L414.9360,306.9189L416.1600,311.7149L417.3840,315.7161L418.6080,322.2642L419.8320,326.6746L421.0560,329.7291L422.2800,332.6979
            L423.5040,336.4978L424.7280,341.2530L425.9520,341.4822L427.1760,339.8115L428.4000,337.9586L429.6240,336.3500L430.8480,334.3794L432.0720,328.7566L433.2960,326.3169L434.5200,327.2593
            L435.7440,322.8661L436.9680,318.7749L438.1920,316.9499L439.4160,317.9352L440.6400,323.7786L441.8640,330.6009L443.0880,335.9816L444.3120,333.2570L445.5360,327.9619L446.7600,318.0873
            L447.9840,311.2907L449.2080,303.4225L450.4320,299.6235L451.6560,301.4864L452.8800,303.8396L454.1040,306.7925L455.3280,309.3330L456.5520,309.8342L457.7760,309.6950L459.0000,308.3112
            L460.2240,309.2730L461.4480,308.0028L462.6720,307.8036L463.8960,307.4052L465.1200,306.7133L466.3440,305.8518L467.5680,305.3640L468.7920,305.0153L470.0160,304.7311L471.2400,306.6876
            L472.4640,309.8899L473.6880,309.7999L474.9120,307.1888L476.1360,307.3709L477.3600,307.9000L478.5840,307.4758L479.8080,305.6003L481.0320,308.2127L482.2560,308.8403L483.4800,307.4523
            L484.7040,308.8681L485.9280,309.4465L487.1520,309.1402L488.3760,302.8373L489.6000,296.0643L490.8240,291.6548L492.0480,288.4521L493.2720,284.2683L494.4960,282.8124L495.7200,286.1728
            L496.9440,291.4757L498.1680,294.7149L499.3920,290.9835L500.6160,287.9779L501.8400,288.8649L503.0640,293.6700L504.2880,301.3773L505.5120,308.1720L506.7360,313.9254L507.9600,320.5785
            L509.1840,327.4093L510.4080,331.5326L511.6320,334.5828L512.8560,334.9149L514.0800,334.4201L515.3040,337.0055L516.5280,338.6248L517.7520,337.5667L518.9760,338.9975L520.2000,339.1346
            L521.4240,335.3668L522.6480,332.0917L523.8720,333.7175L525.0960,337.1340L526.3200,334.8635L527.5440,333.5033L528.7680,333.4369L529.9920,331.5091L531.2160,331.0271L532.4400,330.2389
            L533.6640,334.3237L534.8880,339.0939L536.1120,340.4926L537.3360,337.8922L538.5600,338.2435L539.7840,339.8886L541.0080,346.3981L542.2320,353.9851L543.4560,355.5852L544.6800,356.9775
            L545.9040,356.8082L547.1280,357.1360L548.3520,358.9652L549.5760,359.2780L550.8000,361.0730L552.0240,361.1415L553.2480,361.3985L554.4720,361.0173L555.6960,361.5742L556.9200,356.3391
            L558.1440,350.0074L559.3680,344.8130L560.5920,338.8947L561.8160,330.6480L563.0400,328.5510L564.2640,329.9433L565.4880,328.1419L566.7120,326.6103L567.9360,328.9130L569.1600,325.9570
            L570.3840,321.2639L571.6080,317.2669L572.8320,310.0034L574.0560,302.1226L575.2800,299.6545L576.5040,303.5176L577.7280,304.3526L578.9520,307.5208L580.1760,308.5276L581.4000,308.4440
            L582.6240,304.4929L583.8480,300.1303L585.0720,296.6883L586.2960,298.0200L587.5200,296.6527L588.7440,295.4864L589.9680,296.3010L591.1920,298.6562L592.4160,307.4694L593.6400,314.8550
            L594.8640,318.7556L596.0880,318.0166L597.3120,317.4640L598.5360,319.7431L599.7600,323.6265L600.9840,328.0712L602.2080,332.6272L603.4320,337.1490L604.6560,344.0740L605.8800,349.6240
            L607.1040,350.7507L608.3280,350.8578L609.5520,351.6503L610.7760,351.3954L612.0000,352.0209L613.2240,353.9273L614.4480,357.9178L615.6720,360.7431L616.8960,359.5993L618.1200,357.9885
            L619.3440,356.9089L620.5680,352.2372L621.7920,347.0300L623.0160,344.8966L624.2400,342.6775L625.4640,340.2463L626.6880,340.2142L627.9120,341.7735L629.1360,341.8764L630.3600,339.7579
            L631.5840,337.8430L632.8080,336.7291L634.0320,334.8592L635.2560,331.3656L636.4800,329.6198L637.7040,326.8074L638.9280,324.1363L640.1520,318.4836L641.3760,314.8100L642.6000,316.0267
            L643.8240,321.2446L645.0480,327.9898L646.2720,329.4163L647.4960,331.1192L648.7200,334.7885L649.9440,336.9862L651.1680,335.0648L652.3920,329.9176L653.6160,328.8273L654.8400,331.3420
            L656.0640,328.4439L657.2880,323.5773L658.5120,318.0295L659.7360,314.3003L660.9600,312.8180L662.1840,313.6362L663.4080,316.9006L664.6320,319.0533L665.8560,321.3196L667.0800,323.6437
            L668.3040,320.1286L669.5280,322.9796L670.7520,323.3802L671.9760,324.9867L673.2000,331.8240L674.4240,337.3203L675.6480,339.7386L676.8720,342.7739L678.0960,341.8185L679.3200,341.3601
            L680.5440,339.4559L681.7680,340.2591L682.9920,344.6138L684.2160,349.4055L685.4400,354.4071L686.6640,361.1094L687.8880,367.8310L689.1120,374.0535L690.3360,379.2735L691.5600,381.3127
            L692.7840,378.7273L694.0080,373.7686L695.2320,366.3851L696.4560,358.0699L697.6800,351.8945L698.9040,344.3761L700.1280,342.2726L701.3520,341.8614L702.5760,346.4388L703.8000,348.9278"/>
  </g>
  <g style="fill:none; stroke:#FF0000; stroke-width:  0.9180; stroke-linecap:butt; stroke-linejoin:miter; stroke-dasharray:none">
   <path d="M93.0240,155.0265L94.2480,177.9626L95.4720,197.6026L96.6960,214.6953L97.9200,233.0178L99.1440,253.8907L100.3680,262.5412L101.5920,265.3003L102.8160,272.7219L104.0400,279.0958
            L105.2640,278.7143L106.4880,274.6630L107.7120,274.2586L108.9360,274.4989L110.1600,276.1994L111.3840,275.3298L112.6080,282.2765L113.8320,277.8563L115.0560,275.8462L116.2800,277.9889
            L117.5040,274.7654L118.7280,275.6014L119.9520,273.1694L121.1760,266.8472L122.4000,269.5425L123.6240,271.8413L124.8480,278.5406L126.0720,290.0822L127.2960,300.6060L128.5200,303.9218
            L129.7440,302.0915L130.9680,296.0393L132.1920,296.1607L133.4160,300.7939L134.6400,305.6703L135.8640,312.1068L137.0880,307.4159L138.3120,302.4880L139.5360,298.0031L140.7600,295.5196
            L141.9840,291.1067L143.2080,286.7464L144.4320,277.1772L145.6560,271.2705L146.8800,267.2546L148.1040,262.9197L149.3280,257.6099L150.5520,260.7897L151.7760,266.6907L153.0000,266.5364
            L154.2240,264.9286L155.4480,265.9485L156.6720,268.8462L157.8960,267.8915L159.1200,269.1304L160.3440,274.1767L161.5680,278.0728L162.7920,276.0186L164.0160,280.7259L165.2400,282.9482
            L166.4640,281.3147L167.6880,279.8661L168.9120,280.8369L170.1360,283.1324L171.3600,283.6675L172.5840,284.0822L173.8080,277.1059L175.0320,265.6728L176.2560,256.8413L177.4800,255.3070
            L178.7040,250.1152L179.9280,252.9529L181.1520,254.9833L182.3760,259.0062L183.6000,258.5436L184.8240,263.4759L186.0480,274.0900L187.2720,280.0846L188.4960,286.0021L189.7200,293.1197
            L190.9440,291.4560L192.1680,289.3695L193.3920,288.2225L194.6160,287.6413L195.8400,287.7101L197.0640,284.1687L198.2880,286.0794L199.5120,283.9693L200.7360,286.8775L201.9600,297.0334
            L203.1840,295.0013L204.4080,300.2873L205.6320,303.9347L206.8560,304.3674L208.0800,301.0389L209.3040,301.8715L210.5280,300.0647L211.7520,297.2748L212.9760,296.5467L214.2000,289.2245
            L215.4240,283.6409L216.6480,276.4648L217.8720,266.2156L219.0960,261.8919L220.3200,260.2083L221.5440,259.7499L222.7680,260.0777L223.9920,255.0168L225.2160,255.5949L226.4400,253.9704
            L227.6640,247.5862L228.8880,240.4985L230.1120,234.3128L231.3360,232.8571L232.5600,230.6372L233.7840,239.0578L235.0080,245.2794L236.2320,245.3988L237.4560,248.0287L238.6800,257.0431
            L239.9040,263.8735L241.1280,266.4600L242.3520,274.6304L243.5760,273.6854L244.8000,275.6110L246.0240,279.8528L247.2480,286.5781L248.4720,288.0648L249.6960,291.0829L250.9200,291.2361
            L252.1440,288.2664L253.3680,293.6818L254.5920,297.7272L255.8160,296.1582L257.0400,292.5570L258.2640,295.4085L259.4880,296.5334L260.7120,296.4942L261.9360,288.8739L263.1600,284.6271
            L264.3840,279.3118L265.6080,275.9330L266.8320,280.7537L268.0560,290.1623L269.2800,295.2971L270.5040,295.6098L271.7280,285.9894L272.9520,278.1206L274.1760,274.2121L275.4000,269.3718
            L276.6240,265.8525L277.8480,259.9061L279.0720,256.2688L280.2960,250.4325L281.5200,247.6260L282.7440,246.6499L283.9680,248.6976L285.1920,245.1929L286.4160,241.8441L287.6400,237.5961
            L288.8640,239.6387L290.0880,251.9880L291.3120,260.3895L292.5360,257.4008L293.7600,253.7412L294.9840,249.1841L296.2080,248.3676L297.4320,251.1181L298.6560,246.7017L299.8800,251.7748
            L301.1040,264.4396L302.3280,269.2463L303.5520,274.4143L304.7760,278.1803L306.0000,288.1668L307.2240,290.6577L308.4480,288.3491L309.6720,292.4221L310.8960,295.4903L312.1200,293.2009
            L313.3440,286.6524L314.5680,282.3695L315.7920,281.4248L317.0160,276.9562L318.2400,270.5488L319.4640,268.5859L320.6880,266.5152L321.9120,268.4452L323.1360,271.6963L324.3600,272.3642
            L325.5840,264.5302L326.8080,256.3125L328.0320,259.8782L329.2560,264.5495L330.4800,271.8227L331.7040,272.9976L332.9280,275.4285L334.1520,278.7430L335.3760,282.9724L336.6000,286.4493
            L337.8240,292.6119L339.0480,296.1342L340.2720,300.2020L341.4960,297.1480L342.7200,294.8038L343.9440,292.8693L345.1680,292.5744L346.3920,285.7645L347.6160,281.2183L348.8400,275.9848
            L350.0640,269.7751L351.2880,266.6016L352.5120,268.8033L353.7360,269.8045L354.9600,262.4615L356.1840,261.8307L357.4080,258.1912L358.6320,249.9762L359.8560,249.7920L361.0800,247.4782
            L362.3040,246.1420L363.5280,245.7742L364.7520,246.1984L365.9760,239.9621L367.2000,243.6222L368.4240,250.9994L369.6480,248.8724L370.8720,247.4962L372.0960,251.5420L373.3200,253.2822
            L374.5440,258.2152L375.7680,264.2040L376.9920,256.4067L378.2160,247.2963L379.4400,240.9725L380.6640,245.9501L381.8880,254.0109L383.1120,270.6232L384.3360,279.3312L385.5600,282.1752
            L386.7840,282.9022L388.0080,279.5133L389.2320,278.0885L390.4560,273.8888L391.6800,275.4774L392.9040,270.0527L394.1280,262.8967L395.3520,267.2375L396.5760,273.5547L397.8000,284.5157
            L399.0240,296.7196L400.2480,301.4682L401.4720,298.5201L402.6960,297.8304L403.9200,298.4317L405.1440,295.8028L406.3680,296.4298L407.5920,292.1560L408.8160,285.6274L410.0400,284.7272
            L411.2640,277.8149L412.4880,273.7239L413.7120,275.0078L414.9360,276.4203L416.1600,275.0344L417.3840,277.3098L418.6080,283.3207L419.8320,288.2683L421.0560,297.4813L422.2800,291.8495
            L423.5040,292.8858L424.7280,294.5759L425.9520,295.6623L427.1760,302.0746L428.4000,299.2876L429.6240,303.9713L430.8480,301.2889L432.0720,297.4273L433.2960,293.0732L434.5200,292.4251
            L435.7440,285.8560L436.9680,278.5194L438.1920,276.4033L439.4160,281.7213L440.6400,293.4800L441.8640,308.3348L443.0880,313.6448L444.3120,305.0162L445.5360,294.6350L446.7600,285.4552
            L447.9840,280.9836L449.2080,270.6686L450.4320,268.1504L451.6560,273.2760L452.8800,275.5725L454.1040,274.4359L455.3280,277.5823L456.5520,279.9891L457.7760,284.1323L459.0000,285.0185
            L460.2240,285.2836L461.4480,291.7081L462.6720,299.3255L463.8960,301.7164L465.1200,300.7298L466.3440,297.3626L467.5680,296.0564L468.7920,296.3771L470.0160,289.4858L471.2400,284.9681
            L472.4640,287.3500L473.6880,284.8972L474.9120,282.2202L476.1360,281.5855L477.3600,281.3809L478.5840,287.4265L479.8080,290.8899L481.0320,293.7760L482.2560,290.8216L483.4800,285.9119
            L484.7040,291.1960L485.9280,293.3693L487.1520,290.9822L488.3760,283.6300L489.6000,278.9238L490.8240,278.0023L492.0480,273.5611L493.2720,267.9251L494.4960,267.5427L495.7200,275.7905
            L496.9440,280.6593L498.1680,279.9561L499.3920,279.2040L500.6160,275.0179L501.8400,280.1536L503.0640,277.8291L504.2880,284.2808L505.5120,293.2817L506.7360,301.8135L507.9600,308.9431
            L509.1840,315.2899L510.4080,319.7773L511.6320,319.6274L512.8560,322.9732L514.0800,318.9484L515.3040,320.1243L516.5280,320.1308L517.7520,315.2042L518.9760,311.5178L520.2000,309.4122
            L521.4240,303.8173L522.6480,293.2540L523.8720,294.1693L525.0960,302.1952L526.3200,301.0252L527.5440,304.4064L528.7680,302.8817L529.9920,300.0594L531.2160,306.0064L532.4400,306.0793
            L533.6640,312.5695L534.8880,317.7981L536.1120,318.1666L537.3360,316.0867L538.5600,317.4083L539.7840,318.9141L541.0080,329.8383L542.2320,337.5538L543.4560,339.3638L544.6800,343.7742
            L545.9040,348.6237L547.1280,345.4064L548.3520,347.2806L549.5760,344.8880L550.8000,341.2359L552.0240,340.8953L553.2480,338.8047L554.4720,343.6114L555.6960,348.6815L556.9200,343.5557
            L558.1440,331.1257L559.3680,321.2960L560.5920,314.0518L561.8160,303.0391L563.0400,295.6957L564.2640,294.7856L565.4880,289.0206L566.7120,286.6727L567.9360,295.3395L569.1600,296.5638
            L570.3840,295.8238L571.6080,291.2997L572.8320,285.4970L574.0560,275.6449L575.2800,266.3882L576.5040,276.5089L577.7280,280.0379L578.9520,287.5015L580.1760,290.1460L581.4000,287.6360
            L582.6240,284.3463L583.8480,281.1601L585.0720,275.3604L586.2960,272.8446L587.5200,272.7701L588.7440,274.0641L589.9680,274.3018L591.1920,272.3162L592.4160,282.6468L593.6400,286.4091
            L594.8640,290.4658L596.0880,290.9336L597.3120,287.9119L598.5360,294.2402L599.7600,300.1108L600.9840,306.8718L602.2080,314.7458L603.4320,318.8456L604.6560,326.7453L605.8800,330.2132
            L607.1040,335.5853L608.3280,336.7056L609.5520,328.1311L610.7760,322.1550L612.0000,319.9873L613.2240,321.9301L614.4480,323.0139L615.6720,325.4793L616.8960,322.0500L618.1200,323.3823
            L619.3440,324.4233L620.5680,320.5206L621.7920,314.5209L623.0160,312.5609L624.2400,315.8082L625.4640,317.3205L626.6880,319.0876L627.9120,325.2073L629.1360,328.4160L630.3600,323.0546
            L631.5840,318.7042L632.8080,314.1396L634.0320,312.2568L635.2560,309.1937L636.4800,305.2216L637.7040,302.2344L638.9280,300.2423L640.1520,285.7712L641.3760,283.1042L642.6000,279.0755
            L643.8240,284.6749L645.0480,288.5637L646.2720,285.7973L647.4960,286.9737L648.7200,286.9013L649.9440,288.8747L651.1680,282.3808L652.3920,275.4375L653.6160,277.6500L654.8400,286.4538
            L656.0640,291.1932L657.2880,288.8145L658.5120,287.1935L659.7360,287.3115L660.9600,288.2276L662.1840,287.9442L663.4080,291.4018L664.6320,291.5837L665.8560,290.2756L667.0800,290.5108
            L668.3040,289.7127L669.5280,293.1600L670.7520,295.7690L671.9760,291.8033L673.2000,293.5556L674.4240,294.2548L675.6480,292.0453L676.8720,294.1774L678.0960,291.1242L679.3200,286.2321
            L680.5440,286.3632L681.7680,289.7109L682.9920,294.0258L684.2160,296.5694L685.4400,297.5012L686.6640,300.8774L687.8880,309.3180L689.1120,316.0974L690.3360,317.3869L691.5600,321.3646
            L692.7840,321.7823L694.0080,317.3397L695.2320,311.8991L696.4560,307.1138L697.6800,301.4198L698.9040,295.2084L700.1280,293.6644L701.3520,298.2794L702.5760,303.7243L703.8000,310.5475"/>
  </g>
  <g style="fill:none; stroke:#00FF00; stroke-width:  0.9180; stroke-linecap:butt; stroke-linejoin:miter; stroke-dasharray:none">
   <path d="M93.0240,170.6252L94.2480,211.7906L95.4720,234.7774L96.6960,259.6681L97.9200,281.3863L99.1440,296.3394L100.3680,313.7562L101.5920,321.9943L102.8160,325.1516L104.0400,324.0121
            L105.2640,325.9142L106.4880,332.6850L107.7120,339.1989L108.9360,342.9645L110.1600,342.7867L111.3840,341.3559L112.6080,334.7585L113.8320,332.2202L115.0560,332.2181L116.2800,326.0791
            L117.5040,322.8104L118.7280,315.0521L119.9520,316.0031L121.1760,323.0182L122.4000,320.4242L123.6240,321.4545L124.8480,327.1715L126.0720,334.5700L127.2960,339.8457L128.5200,340.0599
            L129.7440,343.6285L130.9680,349.2234L132.1920,353.2033L133.4160,355.5230L134.6400,353.8523L135.8640,348.6515L137.0880,355.2060L138.3120,363.1014L139.5360,370.0587L140.7600,369.7888
            L141.9840,360.8395L143.2080,351.6310L144.4320,351.0827L145.6560,344.3397L146.8800,330.8708L148.1040,324.8582L149.3280,326.2955L150.5520,329.9925L151.7760,331.4084L153.0000,335.8445
            L154.2240,343.7977L155.4480,346.1646L156.6720,349.6604L157.8960,349.2641L159.1200,349.0242L160.3440,345.2993L161.5680,339.9293L162.7920,339.0425L164.0160,335.1762L165.2400,337.7509
            L166.4640,334.3579L167.6880,327.8141L168.9120,322.4720L170.1360,321.2660L171.3600,319.6553L172.5840,311.5949L173.8080,304.2590L175.0320,299.0199L176.2560,298.1620L177.4800,299.8426
            L178.7040,301.4911L179.9280,304.9481L181.1520,302.7324L182.3760,291.2999L183.6000,288.1702L184.8240,286.2236L186.0480,283.0112L187.2720,293.6242L188.4960,301.5541L189.7200,312.8480
            L190.9440,320.7777L192.1680,324.6590L193.3920,326.8160L194.6160,324.6076L195.8400,324.4041L197.0640,329.4335L198.2880,332.9357L199.5120,331.6954L200.7360,327.9748L201.9600,326.2033
            L203.1840,338.4256L204.4080,341.5722L205.6320,341.1245L206.8560,346.4260L208.0800,354.3942L209.3040,358.4854L210.5280,359.8370L211.7520,356.0564L212.9760,343.7592L214.2000,339.3488
            L215.4240,332.9978L216.6480,327.5250L217.8720,323.6030L219.0960,324.5883L220.3200,327.5978L221.5440,327.9726L222.7680,323.7700L223.9920,317.8731L225.2160,309.0738L226.4400,301.1745
            L227.6640,289.7990L228.8880,281.7344L230.1120,273.8717L231.3360,269.9131L232.5600,270.7133L233.7840,276.0645L235.0080,280.6824L236.2320,285.9834L237.4560,296.6887L238.6800,301.1370
            L239.9040,305.8143L241.1280,310.3868L242.3520,309.7464L243.5760,315.4334L244.8000,323.6608L246.0240,330.8858L247.2480,330.5238L248.4720,323.0653L249.6960,319.7816L250.9200,320.4564
            L252.1440,320.0172L253.3680,318.0466L254.5920,316.4894L255.8160,318.9120L257.0400,323.4337L258.2640,323.5987L259.4880,324.2177L260.7120,326.0555L261.9360,325.7407L263.1600,327.2701
            L264.3840,324.6397L265.6080,321.9793L266.8320,317.8667L268.0560,319.2269L269.2800,324.8667L270.5040,327.4950L271.7280,335.8895L272.9520,341.0581L274.1760,343.1123L275.4000,339.3145
            L276.6240,334.7371L277.8480,329.5663L279.0720,327.0880L280.2960,330.6459L281.5200,325.9270L282.7440,322.2663L283.9680,311.4321L285.1920,301.6774L286.4160,294.7530L287.6400,293.4202
            L288.8640,287.9245L290.0880,282.9045L291.3120,282.1358L292.5360,287.4758L293.7600,288.2949L294.9840,288.3778L296.2080,292.9164L297.4320,296.7106L298.6560,304.1185L299.8800,304.3554
            L301.1040,302.5340L302.3280,305.6204L303.5520,311.7877L304.7760,317.6482L306.0000,315.6861L307.2240,321.2382L308.4480,328.8551L309.6720,329.0629L310.8960,335.5403L312.1200,341.6365
            L313.3440,347.3792L314.5680,352.4900L315.7920,356.3927L317.0160,355.1482L318.2400,354.5677L319.4640,354.2614L320.6880,355.3495L321.9120,358.7210L323.1360,358.7682L324.3600,358.4147
            L325.5840,361.2936L326.8080,362.3732L328.0320,358.0356L329.2560,351.8088L330.4800,346.3039L331.7040,345.2307L332.9280,341.5336L334.1520,336.0330L335.3760,332.1474L336.6000,330.7230
            L337.8240,331.1899L339.0480,334.4393L340.2720,334.5293L341.4960,336.6135L342.7200,338.4406L343.9440,336.7677L345.1680,332.2159L346.3920,324.7404L347.6160,317.9331L348.8400,315.9003
            L350.0640,317.8538L351.2880,315.3905L352.5120,312.7430L353.7360,313.2378L354.9600,315.2620L356.1840,311.9291L357.4080,304.6469L358.6320,304.2686L359.8560,306.1457L361.0800,312.9294
            L362.3040,319.0683L363.5280,324.2348L364.7520,327.9833L365.9760,332.9999L367.2000,334.4629L368.4240,332.0403L369.6480,333.8481L370.8720,342.8253L372.0960,351.2990L373.3200,362.1204
            L374.5440,372.5327L375.7680,375.9556L376.9920,383.0649L378.2160,387.3060L379.4400,393.3315L380.6640,395.3043L381.8880,396.4352L383.1120,395.9640L384.3360,389.9921L385.5600,383.0199
            L386.7840,374.2248L388.0080,365.7104L389.2320,350.5879L390.4560,336.9883L391.6800,326.2912L392.9040,314.9728L394.1280,305.2458L395.3520,299.8002L396.5760,309.2880L397.8000,317.2155
            L399.0240,323.9500L400.2480,334.5893L401.4720,343.4293L402.6960,343.1187L403.9200,338.6955L405.1440,337.8001L406.3680,332.3980L407.5920,331.8882L408.8160,330.2796L410.0400,327.5378
            L411.2640,326.5289L412.4880,328.5510L413.7120,331.2071L414.9360,333.8203L416.1600,343.3436L417.3840,348.6344L418.6080,356.0950L419.8320,360.1926L421.0560,358.5390L422.2800,368.7435
            L423.5040,374.6832L424.7280,381.3470L425.9520,380.6423L427.1760,372.2542L428.4000,371.2410L429.6240,364.9671L430.8480,363.4527L432.0720,355.9407L433.2960,354.9276L434.5200,356.6883
            L435.7440,353.5160L436.9680,351.0098L438.1920,347.9275L439.4160,345.2757L440.6400,347.8333L441.8640,347.9404L443.0880,354.0194L444.3120,356.2106L445.5360,355.2938L446.7600,345.9033
            L447.9840,337.1490L449.2080,330.6201L450.4320,324.8539L451.6560,323.6544L452.8800,326.2098L454.1040,333.1606L455.3280,336.3157L456.5520,335.8445L457.7760,332.7172L459.0000,329.6562
            L460.2240,331.2413L461.4480,322.9132L462.6720,314.7458L463.8960,311.4257L465.1200,310.1169L466.3440,310.0398L467.5680,308.5554L468.7920,308.3391L470.0160,313.6855L471.2400,320.9897
            L472.4640,325.6357L473.6880,326.4518L474.9120,322.8104L476.1360,322.8554L477.3600,324.7446L478.5840,318.2137L479.8080,311.1943L481.0320,315.9796L482.2560,320.9940L483.4800,322.8104
            L484.7040,321.7673L485.9280,320.1094L487.1520,322.3328L488.3760,317.5561L489.6000,308.4997L490.8240,301.1672L492.0480,299.3664L493.2720,295.9992L494.4960,293.1214L495.7200,292.3006
            L496.9440,298.1365L498.1680,304.6683L499.3920,298.5073L500.6160,296.1112L501.8400,293.9748L503.0640,304.8763L504.2880,313.8954L505.5120,319.2847L506.7360,321.6259L507.9600,327.4843
            L509.1840,335.5275L510.4080,340.6104L511.6320,347.1071L512.8560,344.7424L514.0800,347.7369L515.3040,351.2926L516.5280,354.6684L517.7520,356.2278L518.9760,362.3967L520.2000,364.6694
            L521.4240,362.4546L522.6480,365.1578L523.8720,367.8053L525.0960,367.8588L526.3200,364.9885L527.5440,359.1387L528.7680,359.6185L529.9920,358.6761L531.2160,352.6699L532.4400,351.2305
            L533.6640,353.4603L534.8880,357.3802L536.1120,360.1519L537.3360,357.3459L538.5600,356.1892L539.7840,358.0142L541.0080,360.4839L542.2320,368.5635L543.4560,369.4653L544.6800,367.7581
            L545.9040,362.4160L547.1280,365.7125L548.3520,367.8138L549.5760,371.4402L550.8000,378.1661L552.0240,378.1725L553.2480,381.0750L554.4720,376.8702L555.6960,373.3338L556.9200,367.8096
            L558.1440,366.7728L559.3680,365.8668L560.5920,360.3447L561.8160,353.1026L563.0400,355.0068L564.2640,358.8881L565.4880,361.2422L566.7120,360.9273L567.9360,357.9971L569.1600,351.4125
            L570.3840,344.2947L571.6080,340.8482L572.8320,332.0981L574.0560,325.2330L575.2800,328.4653L576.5040,327.5121L577.7280,326.3404L578.9520,325.6293L580.1760,324.8603L581.4000,327.5592
            L582.6240,322.4077L583.8480,316.6586L585.0720,315.8318L586.2960,320.7734L587.5200,318.1858L588.7440,314.9407L589.9680,316.5665L591.1920,322.9025L592.4160,330.5602L593.6400,340.4455
            L594.8640,343.9284L596.0880,341.3216L597.3120,342.4740L598.5360,342.0499L599.7600,344.3140L600.9840,346.2032L602.2080,347.3620L603.4320,352.9526L604.6560,360.1176L605.8800,367.3576
            L607.1040,364.1060L608.3280,362.7073L609.5520,372.3827L610.7760,377.4850L612.0000,380.3338L613.2240,381.6426L614.4480,388.4563L615.6720,392.2391L616.8960,391.8556L618.1200,387.3810
            L619.3440,385.1833L620.5680,379.9761L621.7920,375.6900L623.0160,373.2974L624.2400,366.7685L625.4640,361.0944L626.6880,359.4108L627.9120,356.0714L629.1360,352.5499L630.3600,353.3575
            L631.5840,353.7602L632.8080,356.5683L634.0320,354.7305L635.2560,350.6200L636.4800,350.9520L637.7040,348.6772L638.9280,345.5692L640.1520,346.7837L641.3760,341.9899L642.6000,347.5976
            L643.8240,352.5050L645.0480,362.2768L646.2720,366.4408L647.4960,369.0241L648.7200,375.7307L649.9440,377.8298L651.1680,379.4235L652.3920,375.0088L653.6160,370.6520L654.8400,368.1673
            L656.0640,359.4900L657.2880,352.8091L658.5120,344.5067L659.7360,337.9843L660.9600,335.0134L662.1840,336.0158L663.4080,338.6869L664.6320,341.9727L665.8560,346.3489L667.0800,351.1512
            L668.3040,345.4214L669.5280,348.5680L670.7520,348.0710L671.9760,355.2746L673.2000,365.4791L674.4240,374.1477L675.6480,380.2010L676.8720,383.5468L678.0960,384.4914L679.3200,387.7794
            L680.5440,384.3351L681.7680,383.6839L682.9920,388.2806L684.2160,394.6381L685.4400,402.5399L686.6640,411.3971L687.8880,416.8721L689.1120,422.6769L690.3360,430.7180L691.5600,431.8125
            L692.7840,427.1644L694.0080,421.8351L695.2320,413.0079L696.4560,402.0451L697.6800,394.8373L698.9040,385.1319L700.1280,382.6493L701.3520,379.0872L702.5760,383.4354L703.8000,382.2038"/>
  </g>
  <g style="fill:none; stroke:#000000; stroke-width:  0.9180; stroke-linecap:butt; stroke-linejoin:miter; stroke-dasharray:none">
   <path d="M91.8000,91.8000L703.8000,91.8000"/>
   <path d="M91.8000,520.2000L703.8000,520.2000"/>
   <path d="M153.0000,91.8000L153.0000,97.9200"/>
   <path d="M153.0000,520.2000L153.0000,514.0800"/>
   <path d="M275.4000,91.8000L275.4000,97.9200"/>
   <path d="M275.4000,520.2000L275.4000,514.0800"/>
   <path d="M397.8000,91.8000L397.8000,97.9200"/>
   <path d="M397.8000,520.2000L397.8000,514.0800"/>
   <path d="M520.2000,91.8000L520.2000,97.9200"/>
   <path d="M520.2000,520.2000L520.2000,514.0800"/>
   <path d="M642.6000,91.8000L642.6000,97.9200"/>
   <path d="M642.6000,520.2000L642.6000,514.0800"/>
   <path d="M91.8000,91.8000L91.8000,104.0400"/>
   <path d="M91.8000,520.2000L91.8000,507.9600"/>
   <path d="M214.2000,91.8000L214.2000,104.0400"/>
   <path d="M214.2000,520.2000L214.2000,507.9600"/>
   <path d="M336.6000,91.8000L336.6000,104.0400"/>
   <path d="M336.6000,520.2000L336.6000,507.9600"/>
   <path d="M459.0000,91.8000L459.0000,104.0400"/>
   <path d="M459.0000,520.2000L459.0000,507.9600"/>
   <path d="M581.4000,91.8000L581.4000,104.0400"/>
   <path d="M581.4000,520.2000L581.4000,507.9600"/>
   <path d="M703.8000,91.8000L703.8000,104.0400"/>
   <path d="M703.8000,520.2000L703.8000,507.9600"/>
  </g>
  <g style="fill:#000000; fill-rule:nonzero">
   <text   style="font-family:'Times','Nimbus Roman No9 L'; font-style:normal; font-weight:normal; font-size:612.0000" transform="matrix(0.0280,0.0000,-0.0000,-0.0280,87.8000,74.6800)">0</text>
   <text   style="font-family:'Times','Nimbus Roman No9 L'; font-style:normal; font-weight:normal; font-size:612.0000" transform="matrix(0.0280,0.0000,-0.0000,-0.0280,201.7000,73.6800)">100</text>
   <text   style="font-family:'Times','Nimbus Roman No9 L'; font-style:normal; font-weight:normal; font-size:612.0000" transform="matrix(0.0280,0.0000,-0.0000,-0.0280,324.1000,74.6800)">200</text>
   <text   style="font-family:'Times','Nimbus Roman No9 L'; font-style:normal; font-weight:normal; font-size:612.0000" transform="matrix(0.0280,0.0000,-0.0000,-0.0280,446.5000,74.6800)">300</text>
   <text   style="font-family:'Times','Nimbus Roman No9 L'; font-style:normal; font-weight:normal; font-size:612.0000" transform="matrix(0.0280,0.0000,-0.0000,-0.0280,568.9000,74.6800)">400</text>
   <text   style="font-family:'Times','Nimbus Roman No9 L'; font-style:normal; font-weight:normal; font-size:612.0000" transform="matrix(0.0280,0.0000,-0.0000,-0.0280,691.3000,73.6800)">500</text>
   <text   style="font-family:'Times','Nimbus Roman No9 L'; font-style:normal; font-weight:normal; font-size:612.0000" transform="matrix(0.0280,0.0000,-0.0000,-0.0280,382.8000,55.5600)">Step</text>
  </g>
  <g style="fill:none; stroke:#000000; stroke-width:  0.9180; stroke-linecap:butt; stroke-linejoin:miter; stroke-dasharray:none">
   <path d="M91.8000,91.8000L91.8000,520.2000"/>
   <path d="M703.8000,91.8000L703.8000,520.2000"/>
   <path d="M91.8000,145.3500L97.9200,145.3500"/>
   <path d="M703.8000,145.3500L697.6800,145.3500"/>
   <path d="M91.8000,252.4500L97.9200,252.4500"/>
   <path d="M703.8000,252.4500L697.6800,252.4500"/>
   <path d="M91.8000,359.5500L97.9200,359.5500"/>
   <path d="M703.8000,359.5500L697.6800,359.5500"/>
   <path d="M91.8000,466.6500L97.9200,466.6500"/>
   <path d="M703.8000,466.6500L697.6800,466.6500"/>
   <path d="M91.8000,91.8000L104.0400,91.8000"/>
   <path d="M703.8000,91.8000L691.5600,91.8000"/>
   <path d="M91.8000,198.9000L104.0400,198.9000"/>
   <path d="M703.8000,198.9000L691.5600,198.9000"/>
   <path d="M91.8000,306.0000L104.0400,306.0000"/>
   <path d="M703.8000,306.0000L691.5600,306.0000"/>
   <path d="M91.8000,413.1000L104.0400,413.1000"/>
   <path d="M703.8000,413.1000L691.5600,413.1000"/>
   <path d="M91.8000,520.2000L104.0400,520.2000"/>
   <path d="M703.8000,520.2000L691.5600,520.2000"/>
  </g>
  <g style="fill:#000000; fill-rule:nonzero">
   <text   style="font-family:'Times','Nimbus Roman No9 L'; font-style:normal; font-weight:normal; font-size:612.0000" transform="matrix(0.0280,0.0000,-0.0000,-0.0280,77.6800,86.3000)">0</text>
   <text   style="font-family:'Times','Nimbus Roman No9 L'; font-style:normal; font-weight:normal; font-size:612.0000" transform="matrix(0.0280,0.0000,-0.0000,-0.0280,64.6800,192.9000)">0.5</text>
   <text   style="font-family:'Times','Nimbus Roman No9 L'; font-style:normal; font-weight:normal; font-size:612.0000" transform="matrix(0.0280,0.0000,-0.0000,-0.0280,78.6800,300.0000)">1</text>
   <text   style="font-family:'Times','Nimbus Roman No9 L'; font-style:normal; font-weight:normal; font-size:612.0000" transform="matrix(0.0280,0.0000,-0.0000,-0.0280,64.6800,407.1000)">1.5</text>
   <text   style="font-family:'Times','Nimbus Roman No9 L'; font-style:normal; font-weight:normal; font-size:612.0000" transform="matrix(0.0280,0.0000,-0.0000,-0.0280,77.6800,514.7000)">2</text>
   <text   style="font-family:'Times','Nimbus Roman No9 L'; font-style:normal; font-weight:normal; font-size:612.0000" transform="matrix(0.0000,0.0280,0.0280,-0.0000,58.5600,282.0000)">RMSD</text>
  </g>
  <g style="fill:none; stroke:#000000; stroke-width:  0.9180; stroke-linecap:butt; stroke-linejoin:miter; stroke-dasharray:none">
   <path d="M91.8000,91.8000L91.8000,520.2000L703.8000,520.2000L703.8000,91.8000z"/>
  </g>
  <g style="fill:#FFFFFF; fill-rule:nonzero">
   <path  d="M520.2000,489.6000L520.2000,417.1200L682.6190,417.1200L682.6190,489.6000z"/>
  </g>
  <g style="fill:none; stroke:#000000; stroke-width:  0.9180; stroke-linecap:butt; stroke-linejoin:miter; stroke-dasharray:none">
   <path d="M520.2000,489.6000L520.2000,417.1200L682.6190,417.1200L682.6190,489.6000z"/>
  </g>
  <g style="fill:#000000; fill-rule:nonzero">
   <text   style="font-family:'Times','Nimbus Roman No9 L'; font-style:normal; font-weight:normal; font-size:612.0000" transform="matrix(0.0280,0.0000,-0.0000,-0.0280,563.4990,471.4800)">Whole protein</text>
  </g>
  <g style="fill:none; stroke:#000000; stroke-width:  0.9180; stroke-linecap:butt; stroke-linejoin:miter; stroke-dasharray:none">
   <path d="M526.7790,475.4800L551.2590,475.4800"/>
  </g>
  <g style="fill:#000000; fill-rule:nonzero">
   <text   style="font-family:'Times','Nimbus Roman No9 L'; font-style:normal; font-weight:normal; font-size:612.0000" transform="matrix(0.0280,0.0000,-0.0000,-0.0280,563.4990,449.3600)">Backbone only</text>
  </g>
  <g style="fill:none; stroke:#FF0000; stroke-width:  0.9180; stroke-linecap:butt; stroke-linejoin:miter; stroke-dasharray:none">
   <path d="M526.7790,453.3600L551.2590,453.3600"/>
  </g>
  <g style="fill:#000000; fill-rule:nonzero">
   <text   style="font-family:'Times','Nimbus Roman No9 L'; font-style:normal; font-weight:normal; font-size:612.0000" transform="matrix(0.0280,0.0000,-0.0000,-0.0280,563.4990,427.2400)">Side chains only</text>
  </g>
  <g style="fill:none; stroke:#00FF00; stroke-width:  0.9180; stroke-linecap:butt; stroke-linejoin:miter; stroke-dasharray:none">
   <path d="M526.7790,431.2400L551.2590,431.2400"/>
  </g>
  <g style="fill:#000000; fill-rule:nonzero">
   <text   style="font-family:'Times','Nimbus Roman No9 L'; font-style:normal; font-weight:normal; font-size:612.0000" transform="matrix(0.0420,0.0000,-0.0000,-0.0420,361.8000,556.9200)">RMSD</text>
  </g>
 </g>
</svg>
