<?xml version="1.0" encoding="ISO-8859-1"?>
<!DOCTYPE svg PUBLIC "-//W3C//DTD SVG 1.0//EN" "http://www.w3.org/TR/2001/REC-SVG-20010904/DTD/svg10.dtd">
<!-- generated by Grace-5.1.25 -->
<svg xml:space="preserve" width="11.0000in" height="8.5000in" viewBox="0.0000 0.0000 792.0000 612.0000">
 <g transform="translate(0,612.0000) scale(1,-1)">
 <desc></desc>
  <g style="fill:#FFFFFF; fill-rule:nonzero">
   <path  d="M0.0000,0.0000L0.0000,612.0000L792.0000,612.0000L792.0000,0.0000z"/>
  </g>
  <g style="fill:none; stroke:#000000; stroke-width:  0.9180; stroke-linecap:butt; stroke-linejoin:miter; stroke-dasharray:none">
   <path d="M93.0240,233.3801L94.2480,256.0140L95.4720,165.0116L96.6960,306.3578L97.9200,373.1263L99.1440,244.7589L100.3680,318.2938L101.5920,240.0695L102.8160,264.3951L104.0400,321.2352
            L105.2640,195.2586L106.4880,310.4446L107.7120,212.4289L108.9360,249.8239L110.1600,407.8339L111.3840,272.8024L112.6080,233.0730L113.8320,333.4673L115.0560,210.7749L116.2800,285.7812
            L117.5040,410.5076L118.7280,269.5582L119.9520,299.8094L121.1760,483.4400L122.4000,327.6152L123.6240,227.0004L124.8480,264.7334L126.0720,310.7055L127.2960,334.5866L128.5200,359.3751
            L129.7440,383.9728L130.9680,248.2250L132.1920,336.1313L133.4160,377.9162L134.6400,226.3768L135.8640,265.6390L137.0880,403.6876L138.3120,296.7768L139.5360,173.5409L140.7600,366.0342
            L141.9840,300.7414L143.2080,367.8123L144.4320,417.1238L145.6560,195.9530L146.8800,303.5118L148.1040,329.3468L149.3280,193.1246L150.5520,154.1919L151.7760,307.3921L153.0000,224.8871
            L154.2240,297.8586L155.4480,301.5333L156.6720,286.5080L157.8960,310.4379L159.1200,438.3395L160.3440,311.6697L161.5680,302.0372L162.7920,273.5486L164.0160,282.9571L165.2400,399.8008
            L166.4640,307.5407L167.6880,293.5488L168.9120,390.9583L170.1360,251.1414L171.3600,255.0056L172.5840,371.9292L173.8080,257.7815L175.0320,299.5171L176.2560,357.4293L177.4800,184.8286
            L178.7040,233.9084L179.9280,301.8311L181.1520,251.4559L182.3760,336.4897L183.6000,243.7728L184.8240,194.9329L186.0480,274.3315L187.2720,311.3959L188.4960,258.3099L189.7200,267.7985
            L190.9440,334.7602L192.1680,300.6696L193.3920,261.8601L194.6160,295.8859L195.8400,293.2074L197.0640,313.3997L198.2880,382.5342L199.5120,335.0975L200.7360,266.1138L201.9600,276.0173
            L203.1840,228.2643L204.4080,213.2623L205.6320,362.1255L206.8560,314.4587L208.0800,337.0155L209.3040,326.9184L210.5280,257.9285L211.7520,293.4424L212.9760,287.6337L214.2000,236.7569
            L215.4240,179.5744L216.6480,346.3967L217.8720,255.1197L219.0960,249.2228L220.3200,327.9320L221.5440,277.3097L222.7680,285.0072L223.9920,307.7516L225.2160,191.3134L226.4400,175.5118
            L227.6640,400.2528L228.8880,310.7813L230.1120,344.8211L231.3360,279.3435L232.5600,192.9190L233.7840,326.9936L235.0080,346.8448L236.2320,154.2931L237.4560,267.9241L238.6800,301.5592
            L239.9040,264.9377L241.1280,309.7488L242.3520,350.9389L243.5760,413.0264L244.8000,297.6450L246.0240,274.8102L247.2480,371.6332L248.4720,287.4686L249.6960,317.7521L250.9200,352.4583
            L252.1440,218.9037L253.3680,228.6428L254.5920,259.1577L255.8160,384.3234L257.0400,288.3448L258.2640,165.5042L259.4880,182.6082L260.7120,212.2783L261.9360,371.9318L263.1600,367.4351
            L264.3840,277.6469L265.6080,286.2855L266.8320,242.1388L268.0560,189.5211L269.2800,305.9280L270.5040,293.2725L271.7280,268.3424L272.9520,266.1480L274.1760,261.5284L275.4000,281.1184
            L276.6240,326.1669L277.8480,360.8024L279.0720,316.5266L280.2960,263.8855L281.5200,343.4054L282.7440,323.4032L283.9680,261.4650L285.1920,314.1212L286.4160,189.9691L287.6400,222.9046
            L288.8640,193.3384L290.0880,233.7014L291.3120,228.4640L292.5360,208.1627L293.7600,192.7773L294.9840,394.6536L296.2080,455.5861L297.4320,402.8072L298.6560,297.2489L299.8800,238.3752
            L301.1040,196.9858L302.3280,320.7835L303.5520,318.9470L304.7760,270.2210L306.0000,251.5319L307.2240,172.9552L308.4480,231.7711L309.6720,292.7939L310.8960,317.8918L312.1200,305.4288
            L313.3440,314.1711L314.5680,314.0739L315.7920,359.9645L317.0160,346.5901L318.2400,322.6123L319.4640,215.8801L320.6880,365.2466L321.9120,221.6144L323.1360,284.5824L324.3600,300.3424
            L325.5840,254.9568L326.8080,255.0102L328.0320,245.8253L329.2560,185.6640L330.4800,246.9201L331.7040,252.2583L332.9280,348.3479L334.1520,263.6736L335.3760,143.5018L336.6000,254.8024
            L337.8240,363.3464L339.0480,322.9566L340.2720,297.1469L341.4960,244.4922L342.7200,255.6006L343.9440,341.0378L345.1680,379.2194L346.3920,322.0856L347.6160,231.5000L348.8400,305.4526
            L350.0640,357.5488L351.2880,145.7413L352.5120,182.4014L353.7360,249.4027L354.9600,213.0553L356.1840,280.9523L357.4080,294.1551L358.6320,242.9096L359.8560,306.0819L361.0800,369.2838
            L362.3040,302.8836L363.5280,275.7326L364.7520,271.8414L365.9760,392.2841L367.2000,322.0700L368.4240,374.7582L369.6480,402.7697L370.8720,143.7581L372.0960,204.7864L373.3200,283.9506
            L374.5440,235.6796L375.7680,264.9112L376.9920,339.9126L378.2160,226.9597L379.4400,247.1253L380.6640,240.5391L381.8880,190.7779L383.1120,304.3315L384.3360,333.9912L385.5600,339.0343
            L386.7840,349.6412L388.0080,263.0080L389.2320,226.4448L390.4560,307.0095L391.6800,319.2822L392.9040,309.0869L394.1280,246.7200L395.3520,212.5543L396.5760,286.3783L397.8000,216.0793
            L399.0240,264.3070L400.2480,372.4910L401.4720,322.1697L402.6960,327.2058L403.9200,337.8747L405.1440,283.1803L406.3680,210.4188L407.5920,275.2733L408.8160,294.7039L410.0400,272.5571
            L411.2640,242.3944L412.4880,268.4123L413.7120,228.9162L414.9360,282.3599L416.1600,191.4750L417.3840,287.9417L418.6080,300.6697L419.8320,212.5260L421.0560,300.6258L422.2800,390.9229
            L423.5040,209.3737L424.7280,179.2842L425.9520,284.4654L427.1760,283.4100L428.4000,350.0384L429.6240,324.7849L430.8480,221.7568L432.0720,259.0526L433.2960,339.4347L434.5200,409.9647
            L435.7440,314.4193L436.9680,224.8007L438.1920,283.3426L439.4160,277.6259L440.6400,277.6737L441.8640,286.3250L443.0880,338.3479L444.3120,293.1734L445.5360,214.3890L446.7600,202.8084
            L447.9840,186.5216L449.2080,385.8539L450.4320,314.8715L451.6560,209.5413L452.8800,371.0941L454.1040,348.4824L455.3280,208.9622L456.5520,322.9717L457.7760,317.9904L459.0000,284.0333
            L460.2240,287.8966L461.4480,312.1264L462.6720,273.4686L463.8960,258.2781L465.1200,348.6235L466.3440,201.6890L467.5680,252.4571L468.7920,350.9165L470.0160,266.6584L471.2400,241.4681
            L472.4640,252.7940L473.6880,207.6488L474.9120,245.1993L476.1360,337.8047L477.3600,268.3535L478.5840,283.2615L479.8080,315.4558L481.0320,212.3055L482.2560,167.7919L483.4800,303.2580
            L484.7040,372.5895L485.9280,352.6220L487.1520,303.5004L488.3760,355.1196L489.6000,276.5410L490.8240,287.5064L492.0480,242.1903L493.2720,302.5717L494.4960,380.0275L495.7200,297.3006
            L496.9440,240.1081L498.1680,218.9694L499.3920,304.5258L500.6160,234.8493L501.8400,240.7582L503.0640,299.3750L504.2880,296.5211L505.5120,328.8763L506.7360,422.1290L507.9600,335.9736
            L509.1840,332.0678L510.4080,239.7982L511.6320,126.1225L512.8560,273.3814L514.0800,364.0041L515.3040,334.7160L516.5280,355.0661L517.7520,294.9606L518.9760,295.4974L520.2000,371.2456
            L521.4240,274.5066L522.6480,102.4170L523.8720,304.4592L525.0960,408.5191L526.3200,192.4838L527.5440,318.9835L528.7680,285.6974L529.9920,253.2875L531.2160,325.8432L532.4400,334.7222
            L533.6640,296.6997L534.8880,179.5320L536.1120,267.4712L537.3360,294.3552L538.5600,207.6666L539.7840,267.5086L541.0080,293.2283L542.2320,230.8110L543.4560,321.3313L544.6800,289.0051
            L545.9040,359.9409L547.1280,345.9988L548.3520,244.8289L549.5760,291.4429L550.8000,334.0378L552.0240,294.7587L553.2480,347.6272L554.4720,378.8271L555.6960,293.4211L556.9200,217.7224
            L558.1440,361.7531L559.3680,318.0919L560.5920,235.6290L561.8160,232.9152L563.0400,192.5650L564.2640,212.3925L565.4880,211.8831L566.7120,308.1279L567.9360,281.9672L569.1600,274.6760
            L570.3840,256.3125L571.6080,277.8027L572.8320,231.8760L574.0560,233.1997L575.2800,336.1891L576.5040,421.8665L577.7280,344.5569L578.9520,317.0788L580.1760,157.1886L581.4000,226.7093
            L582.6240,370.2342L583.8480,304.2653L585.0720,267.3308L586.2960,280.5212L587.5200,262.8868L588.7440,194.5764L589.9680,245.4797L591.1920,226.2388L592.4160,273.1070L593.6400,340.4986
            L594.8640,231.6302L596.0880,191.2788L597.3120,328.7545L598.5360,368.9810L599.7600,328.8440L600.9840,378.0721L602.2080,288.7303L603.4320,258.9311L604.6560,237.8417L605.8800,309.0023
            L607.1040,207.5071L608.3280,333.6602L609.5520,195.5515L610.7760,167.0060L612.0000,339.0932L613.2240,274.3274L614.4480,232.7911L615.6720,295.4638L616.8960,289.8028L618.1200,240.9323
            L619.3440,191.9116L620.5680,291.3411L621.7920,195.4605L623.0160,232.6109L624.2400,324.8030L625.4640,334.4076L626.6880,323.3032L627.9120,265.5067L629.1360,239.1858L630.3600,177.1542
            L631.5840,184.8760L632.8080,275.9377L634.0320,271.5255L635.2560,306.2312L636.4800,334.4487L637.7040,279.8923L638.9280,311.6257L640.1520,299.2386L641.3760,242.1330L642.6000,309.5079
            L643.8240,273.4575L645.0480,262.7571L646.2720,286.0660L647.4960,299.1175L648.7200,311.6502L649.9440,216.6621L651.1680,240.6583L652.3920,317.4209L653.6160,232.6316L654.8400,287.3964
            L656.0640,250.9627L657.2880,280.0279L658.5120,330.9267L659.7360,189.1411L660.9600,250.8864L662.1840,341.4583L663.4080,146.8466L664.6320,278.6915L665.8560,306.7778L667.0800,253.1805
            L668.3040,334.4039L669.5280,359.6777L670.7520,176.7743L671.9760,298.9538L673.2000,384.5950L674.4240,381.3196L675.6480,302.0056L676.8720,256.6440L678.0960,313.6851L679.3200,106.1200
            L680.5440,327.8117L681.7680,356.2486L682.9920,180.2824L684.2160,304.3079L685.4400,431.0259L686.6640,271.0152L687.8880,255.3168L689.1120,288.9889L690.3360,304.8594L691.5600,375.5266
            L692.7840,365.7419L694.0080,225.3804L695.2320,246.9068L696.4560,306.0704L697.6800,277.8865L698.9040,358.9809L700.1280,286.5379L701.3520,328.0749L702.5760,231.4746L703.8000,361.9145"/>
   <path d="M91.8000,91.8000L703.8000,91.8000"/>
   <path d="M91.8000,520.2000L703.8000,520.2000"/>
   <path d="M153.0000,91.8000L153.0000,97.9200"/>
   <path d="M153.0000,520.2000L153.0000,514.0800"/>
   <path d="M275.4000,91.8000L275.4000,97.9200"/>
   <path d="M275.4000,520.2000L275.4000,514.0800"/>
   <path d="M397.8000,91.8000L397.8000,97.9200"/>
   <path d="M397.8000,520.2000L397.8000,514.0800"/>
   <path d="M520.2000,91.8000L520.2000,97.9200"/>
   <path d="M520.2000,520.2000L520.2000,514.0800"/>
   <path d="M642.6000,91.8000L642.6000,97.9200"/>
   <path d="M642.6000,520.2000L642.6000,514.0800"/>
   <path d="M91.8000,91.8000L91.8000,104.0400"/>
   <path d="M91.8000,520.2000L91.8000,507.9600"/>
   <path d="M214.2000,91.8000L214.2000,104.0400"/>
   <path d="M214.2000,520.2000L214.2000,507.9600"/>
   <path d="M336.6000,91.8000L336.6000,104.0400"/>
   <path d="M336.6000,520.2000L336.6000,507.9600"/>
   <path d="M459.0000,91.8000L459.0000,104.0400"/>
   <path d="M459.0000,520.2000L459.0000,507.9600"/>
   <path d="M581.4000,91.8000L581.4000,104.0400"/>
   <path d="M581.4000,520.2000L581.4000,507.9600"/>
   <path d="M703.8000,91.8000L703.8000,104.0400"/>
   <path d="M703.8000,520.2000L703.8000,507.9600"/>
  </g>
  <g style="fill:#000000; fill-rule:nonzero">
   <text   style="font-family:'Times','Nimbus Roman No9 L'; font-style:normal; font-weight:normal; font-size:612.0000" transform="matrix(0.0280,0.0000,-0.0000,-0.0280,87.8000,74.6800)">0</text>
   <text   style="font-family:'Times','Nimbus Roman No9 L'; font-style:normal; font-weight:normal; font-size:612.0000" transform="matrix(0.0280,0.0000,-0.0000,-0.0280,205.7000,73.6800)">10</text>
   <text   style="font-family:'Times','Nimbus Roman No9 L'; font-style:normal; font-weight:normal; font-size:612.0000" transform="matrix(0.0280,0.0000,-0.0000,-0.0280,328.1000,74.6800)">20</text>
   <text   style="font-family:'Times','Nimbus Roman No9 L'; font-style:normal; font-weight:normal; font-size:612.0000" transform="matrix(0.0280,0.0000,-0.0000,-0.0280,450.5000,74.6800)">30</text>
   <text   style="font-family:'Times','Nimbus Roman No9 L'; font-style:normal; font-weight:normal; font-size:612.0000" transform="matrix(0.0280,0.0000,-0.0000,-0.0280,572.9000,74.6800)">40</text>
   <text   style="font-family:'Times','Nimbus Roman No9 L'; font-style:normal; font-weight:normal; font-size:612.0000" transform="matrix(0.0280,0.0000,-0.0000,-0.0280,695.3000,73.6800)">50</text>
   <text   style="font-family:'Times','Nimbus Roman No9 L'; font-style:normal; font-weight:normal; font-size:612.0000" transform="matrix(0.0280,0.0000,-0.0000,-0.0280,364.8000,55.5600)">Time (ps)</text>
  </g>
  <g style="fill:none; stroke:#000000; stroke-width:  0.9180; stroke-linecap:butt; stroke-linejoin:miter; stroke-dasharray:none">
   <path d="M91.8000,91.8000L91.8000,520.2000"/>
   <path d="M703.8000,91.8000L703.8000,520.2000"/>
   <path d="M91.8000,169.6909L97.9200,169.6909"/>
   <path d="M703.8000,169.6909L697.6800,169.6909"/>
   <path d="M91.8000,325.4727L97.9200,325.4727"/>
   <path d="M703.8000,325.4727L697.6800,325.4727"/>
   <path d="M91.8000,481.2545L97.9200,481.2545"/>
   <path d="M703.8000,481.2545L697.6800,481.2545"/>
   <path d="M91.8000,91.8000L104.0400,91.8000"/>
   <path d="M703.8000,91.8000L691.5600,91.8000"/>
   <path d="M91.8000,247.5818L104.0400,247.5818"/>
   <path d="M703.8000,247.5818L691.5600,247.5818"/>
   <path d="M91.8000,403.3636L104.0400,403.3636"/>
   <path d="M703.8000,403.3636L691.5600,403.3636"/>
  </g>
  <g style="fill:#000000; fill-rule:nonzero">
   <text   style="font-family:'Times','Nimbus Roman No9 L'; font-style:normal; font-weight:normal; font-size:612.0000" transform="matrix(0.0280,0.0000,-0.0000,-0.0280,68.6800,86.3000)">80</text>
   <text   style="font-family:'Times','Nimbus Roman No9 L'; font-style:normal; font-weight:normal; font-size:612.0000" transform="matrix(0.0280,0.0000,-0.0000,-0.0280,60.6800,241.5818)">100</text>
   <text   style="font-family:'Times','Nimbus Roman No9 L'; font-style:normal; font-weight:normal; font-size:612.0000" transform="matrix(0.0280,0.0000,-0.0000,-0.0280,60.6800,397.3636)">120</text>
   <text   style="font-family:'Times','Nimbus Roman No9 L'; font-style:normal; font-weight:normal; font-size:612.0000" transform="matrix(0.0000,0.0280,0.0280,-0.0000,50.5600,265.0000)">Angle (deg)</text>
  </g>
  <g style="fill:none; stroke:#000000; stroke-width:  0.9180; stroke-linecap:butt; stroke-linejoin:miter; stroke-dasharray:none">
   <path d="M91.8000,91.8000L91.8000,520.2000L703.8000,520.2000L703.8000,91.8000z"/>
  </g>
  <g style="fill:#000000; fill-rule:nonzero">
   <text   style="font-family:'Times','Nimbus Roman No9 L'; font-style:normal; font-weight:normal; font-size:612.0000" transform="matrix(0.0420,0.0000,-0.0000,-0.0420,124.3000,562.9200)">CYS 14 - CYS 38 disulfide bridge: C-S-S-C dihedral</text>
  </g>
 </g>
</svg>
