<?xml version="1.0" encoding="ISO-8859-1"?>
<!DOCTYPE svg PUBLIC "-//W3C//DTD SVG 1.0//EN" "http://www.w3.org/TR/2001/REC-SVG-20010904/DTD/svg10.dtd">
<!-- generated by Grace-5.1.25 -->
<svg xml:space="preserve" width="11.0000in" height="8.5000in" viewBox="0.0000 0.0000 792.0000 612.0000">
 <g transform="translate(0,612.0000) scale(1,-1)">
 <desc></desc>
  <g style="fill:#FFFFFF; fill-rule:nonzero">
   <path  d="M0.0000,0.0000L0.0000,612.0000L792.0000,612.0000L792.0000,0.0000z"/>
  </g>
  <g style="fill:none; stroke:#000000; stroke-width:  0.9180; stroke-linecap:butt; stroke-linejoin:miter; stroke-dasharray:none">
   <path d="M93.0240,206.9822L94.2480,274.0624L95.4720,306.3948L96.6960,242.1361L97.9200,200.8007L99.1440,283.7229L100.3680,347.8509L101.5920,258.9528L102.8160,223.5571L104.0400,234.8304
            L105.2640,237.1886L106.4880,311.8594L107.7120,305.1792L108.9360,290.2305L110.1600,167.5876L111.3840,337.9480L112.6080,177.5460L113.8320,175.2982L115.0560,199.8504L116.2800,182.8834
            L117.5040,252.4784L118.7280,273.7524L119.9520,260.8895L121.1760,226.1132L122.4000,368.8127L123.6240,292.3565L124.8480,242.2457L126.0720,258.9409L127.2960,236.7994L128.5200,325.4198
            L129.7440,294.9940L130.9680,304.5881L132.1920,280.8703L133.4160,281.6714L134.6400,240.6924L135.8640,200.1805L137.0880,293.0246L138.3120,289.2521L139.5360,260.9295L140.7600,193.1782
            L141.9840,263.6956L143.2080,207.8507L144.4320,226.1107L145.6560,305.3582L146.8800,321.1022L148.1040,170.4811L149.3280,227.3092L150.5520,202.2185L151.7760,235.5439L153.0000,237.9471
            L154.2240,301.7445L155.4480,250.9761L156.6720,325.3216L157.8960,437.0524L159.1200,306.8671L160.3440,258.4949L161.5680,228.3557L162.7920,236.2026L164.0160,313.8354L165.2400,282.5925
            L166.4640,289.2085L167.6880,291.0992L168.9120,267.9507L170.1360,263.7773L171.3600,239.9402L172.5840,245.2524L173.8080,303.0972L175.0320,336.7549L176.2560,293.3343L177.4800,266.4393
            L178.7040,236.8968L179.9280,149.6169L181.1520,372.0175L182.3760,154.8269L183.6000,93.5335L184.8240,202.9082L186.0480,317.6891L187.2720,311.4245L188.4960,313.3222L189.7200,267.7879
            L190.9440,235.0191L192.1680,286.0899L193.3920,250.9216L194.6160,175.4295L195.8400,290.6413L197.0640,362.6758L198.2880,336.7086L199.5120,266.7287L200.7360,193.8982L201.9600,217.9195
            L203.1840,236.2159L204.4080,234.0411L205.6320,251.3972L206.8560,225.2606L208.0800,299.1581L209.3040,298.9921L210.5280,270.3669L211.7520,255.5204L212.9760,246.8132L214.2000,306.1120
            L215.4240,186.6172L216.6480,202.8747L217.8720,240.5316L219.0960,338.2525L220.3200,313.2900L221.5440,358.0921L222.7680,279.8087L223.9920,244.0166L225.2160,203.6431L226.4400,241.1884
            L227.6640,202.7214L228.8880,371.6258L230.1120,321.6597L231.3360,305.8443L232.5600,341.8685L233.7840,214.6292L235.0080,267.5245L236.2320,266.0703L237.4560,193.2030L238.6800,251.9230
            L239.9040,329.3216L241.1280,253.1059L242.3520,248.2665L243.5760,321.6815L244.8000,331.4322L246.0240,331.5661L247.2480,233.8021L248.4720,260.4340L249.6960,257.2180L250.9200,222.1994
            L252.1440,330.6746L253.3680,281.8640L254.5920,322.6273L255.8160,243.5999L257.0400,187.0938L258.2640,218.2471L259.4880,277.4045L260.7120,269.5093L261.9360,238.5678L263.1600,103.9919
            L264.3840,209.1096L265.6080,373.5137L266.8320,351.3104L268.0560,453.7069L269.2800,198.1946L270.5040,258.5796L271.7280,215.4949L272.9520,305.4479L274.1760,255.8523L275.4000,238.3078
            L276.6240,227.8598L277.8480,303.1886L279.0720,343.8809L280.2960,270.4997L281.5200,301.9594L282.7440,233.9826L283.9680,324.2093L285.1920,187.4444L286.4160,317.4977L287.6400,189.6397
            L288.8640,228.3251L290.0880,284.3529L291.3120,245.8220L292.5360,259.8608L293.7600,256.7225L294.9840,221.3889L296.2080,304.4532L297.4320,283.2440L298.6560,204.1118L299.8800,203.4684
            L301.1040,271.0972L302.3280,160.1435L303.5520,308.3978L304.7760,271.9380L306.0000,259.9526L307.2240,227.8546L308.4480,233.8804L309.6720,285.0592L310.8960,266.4818L312.1200,182.1669
            L313.3440,239.0674L314.5680,286.9880L315.7920,273.5233L317.0160,408.4022L318.2400,291.3796L319.4640,316.7224L320.6880,286.8616L321.9120,282.1066L323.1360,278.5114L324.3600,154.6935
            L325.5840,187.6914L326.8080,262.0890L328.0320,226.9700L329.2560,290.1465L330.4800,396.1634L331.7040,338.7189L332.9280,317.2541L334.1520,238.3312L335.3760,175.7672L336.6000,205.5707
            L337.8240,145.0083L339.0480,193.8295L340.2720,307.7698L341.4960,407.0419L342.7200,393.4729L343.9440,339.4519L345.1680,272.3152L346.3920,256.1110L347.6160,184.3815L348.8400,225.0262
            L350.0640,180.9133L351.2880,343.7101L352.5120,230.9646L353.7360,284.5294L354.9600,302.0998L356.1840,216.1206L357.4080,266.6771L358.6320,235.5864L359.8560,197.8742L361.0800,215.1506
            L362.3040,229.1100L363.5280,310.7423L364.7520,347.5495L365.9760,328.1788L367.2000,343.2132L368.4240,229.3085L369.6480,261.0339L370.8720,253.7025L372.0960,258.9780L373.3200,253.7746
            L374.5440,184.0904L375.7680,278.7143L376.9920,211.2089L378.2160,150.3165L379.4400,149.0790L380.6640,100.1472L381.8880,137.7894L383.1120,246.4273L384.3360,355.3215L385.5600,330.2698
            L386.7840,346.4225L388.0080,312.9503L389.2320,335.0128L390.4560,325.3962L391.6800,291.2883L392.9040,163.3316L394.1280,175.5257L395.3520,164.4867L396.5760,211.0415L397.8000,285.2527
            L399.0240,304.6783L400.2480,345.5338L401.4720,338.4115L402.6960,317.1997L403.9200,293.2574L405.1440,113.4445L406.3680,272.7912L407.5920,265.7788L408.8160,201.3486L410.0400,292.2645
            L411.2640,254.9469L412.4880,305.3287L413.7120,265.1705L414.9360,238.0862L416.1600,293.0857L417.3840,287.8347L418.6080,257.3002L419.8320,244.3983L421.0560,219.5218L422.2800,153.6784
            L423.5040,198.2906L424.7280,246.1330L425.9520,245.1116L427.1760,287.2074L428.4000,291.6041L429.6240,211.4157L430.8480,247.3233L432.0720,320.0000L433.2960,290.6867L434.5200,281.2044
            L435.7440,202.3917L436.9680,154.5534L438.1920,318.0983L439.4160,381.6391L440.6400,368.3782L441.8640,330.8957L443.0880,199.4420L444.3120,165.6086L445.5360,280.0509L446.7600,368.3434
            L447.9840,292.3685L449.2080,187.0057L450.4320,101.0419L451.6560,269.4592L452.8800,306.5061L454.1040,313.8203L455.3280,321.3394L456.5520,308.9461L457.7760,343.2642L459.0000,257.1556
            L460.2240,265.8126L461.4480,223.7338L462.6720,310.0847L463.8960,302.9624L465.1200,249.8923L466.3440,262.6452L467.5680,270.5053L468.7920,280.4897L470.0160,209.8088L471.2400,198.0193
            L472.4640,244.0870L473.6880,242.0899L474.9120,279.0793L476.1360,274.6846L477.3600,232.3030L478.5840,196.7220L479.8080,107.4139L481.0320,315.0232L482.2560,208.2050L483.4800,294.3968
            L484.7040,349.7265L485.9280,363.1017L487.1520,246.5926L488.3760,295.1083L489.6000,291.0536L490.8240,193.3812L492.0480,168.9984L493.2720,233.7548L494.4960,339.0590L495.7200,307.4570
            L496.9440,285.8505L498.1680,317.4841L499.3920,221.5934L500.6160,215.2723L501.8400,222.0257L503.0640,257.5136L504.2880,190.6591L505.5120,197.4453L506.7360,267.2567L507.9600,333.9410
            L509.1840,381.9572L510.4080,319.1492L511.6320,294.0120L512.8560,132.3286L514.0800,233.9988L515.3040,182.2137L516.5280,145.9083L517.7520,298.0172L518.9760,355.1171L520.2000,418.1654
            L521.4240,240.2666L522.6480,267.1090L523.8720,167.1114L525.0960,122.5496L526.3200,162.6420L527.5440,208.2991L528.7680,301.7700L529.9920,332.5438L531.2160,231.0651L532.4400,264.3153
            L533.6640,273.9029L534.8880,270.8927L536.1120,246.7768L537.3360,193.6209L538.5600,166.0054L539.7840,195.6415L541.0080,220.4253L542.2320,385.9536L543.4560,408.6557L544.6800,322.0792
            L545.9040,160.7743L547.1280,133.8274L548.3520,227.1251L549.5760,271.6265L550.8000,217.3216L552.0240,237.8314L553.2480,283.2628L554.4720,339.1905L555.6960,301.5909L556.9200,176.5361
            L558.1440,225.4575L559.3680,259.4180L560.5920,307.4729L561.8160,204.7017L563.0400,205.5451L564.2640,259.8038L565.4880,254.3358L566.7120,354.2537L567.9360,300.3441L569.1600,303.0197
            L570.3840,359.5569L571.6080,381.8604L572.8320,329.4716L574.0560,164.9545L575.2800,168.0344L576.5040,105.1056L577.7280,297.8542L578.9520,270.0299L580.1760,304.0341L581.4000,263.4627
            L582.6240,166.0897L583.8480,165.2177L585.0720,192.2996L586.2960,241.5971L587.5200,293.8728L588.7440,249.1625L589.9680,266.0498L591.1920,250.5227L592.4160,339.5786L593.6400,267.3792
            L594.8640,223.8992L596.0880,177.6629L597.3120,282.1779L598.5360,382.8366L599.7600,313.5561L600.9840,157.1965L602.2080,229.6841L603.4320,299.6727L604.6560,313.4291L605.8800,257.6591
            L607.1040,265.4129L608.3280,248.2840L609.5520,200.6184L610.7760,210.8513L612.0000,129.5828L613.2240,251.2134L614.4480,236.9708L615.6720,301.5356L616.8960,164.5688L618.1200,157.7981
            L619.3440,209.3617L620.5680,180.4664L621.7920,197.6185L623.0160,116.6196L624.2400,186.2832L625.4640,269.3279L626.6880,308.6277L627.9120,198.7513L629.1360,320.7323L630.3600,323.2791
            L631.5840,291.1501L632.8080,232.9127L634.0320,254.0903L635.2560,210.3325L636.4800,251.6437L637.7040,306.0658L638.9280,266.5514L640.1520,330.9812L641.3760,340.0681L642.6000,216.4702
            L643.8240,294.1658L645.0480,235.0799L646.2720,202.3544L647.4960,165.5173L648.7200,205.7483L649.9440,267.8762L651.1680,275.4695L652.3920,232.9232L653.6160,172.0177L654.8400,162.6092
            L656.0640,219.2757L657.2880,255.0929L658.5120,259.9592L659.7360,305.7806L660.9600,246.7173L662.1840,264.2818L663.4080,274.5720L664.6320,264.3877L665.8560,370.0426L667.0800,376.2151
            L668.3040,246.3321L669.5280,202.9913L670.7520,179.6836L671.9760,179.0538L673.2000,202.2506L674.4240,375.0324L675.6480,281.2488L676.8720,288.4420L678.0960,216.4059L679.3200,244.3516
            L680.5440,281.3888L681.7680,223.3704L682.9920,287.0870L684.2160,294.5586L685.4400,240.9084L686.6640,287.2380L687.8880,303.3821L689.1120,358.7047L690.3360,319.6255L691.5600,313.7558
            L692.7840,173.7226L694.0080,225.0799L695.2320,210.6125L696.4560,286.1918L697.6800,328.0717L698.9040,288.7017L700.1280,259.4514L701.3520,176.7301L702.5760,262.0653L703.8000,202.0161"/>
   <path d="M93.0240,206.9822L94.2480,274.0624L95.4720,306.3948L96.6960,242.1361L97.9200,200.8007L99.1440,283.7229L100.3680,347.8509L101.5920,258.9528L102.8160,223.5571L104.0400,234.8304
            L105.2640,237.1886L106.4880,311.8594L107.7120,305.1792L108.9360,290.2305L110.1600,167.5876L111.3840,337.9480L112.6080,177.5460L113.8320,175.2982L115.0560,199.8504L116.2800,182.8834
            L117.5040,252.4784L118.7280,273.7524L119.9520,260.8895L121.1760,226.1132L122.4000,368.8127L123.6240,292.3565L124.8480,242.2457L126.0720,258.9409L127.2960,236.7994L128.5200,325.4198
            L129.7440,294.9940L130.9680,304.5881L132.1920,280.8703L133.4160,281.6714L134.6400,240.6924L135.8640,200.1805L137.0880,293.0246L138.3120,289.2521L139.5360,260.9295L140.7600,193.1782
            L141.9840,263.6956L143.2080,207.8507L144.4320,226.1107L145.6560,305.3582L146.8800,321.1022L148.1040,170.4811L149.3280,227.3092L150.5520,202.2185L151.7760,235.5439L153.0000,237.9471
            L154.2240,301.7445L155.4480,250.9761L156.6720,325.3216L157.8960,437.0524L159.1200,306.8671L160.3440,258.4949L161.5680,228.3557L162.7920,236.2026L164.0160,313.8354L165.2400,282.5925
            L166.4640,289.2085L167.6880,291.0992L168.9120,267.9507L170.1360,263.7773L171.3600,239.9402L172.5840,245.2524L173.8080,303.0972L175.0320,336.7549L176.2560,293.3343L177.4800,266.4393
            L178.7040,236.8968L179.9280,149.6169L181.1520,372.0175L182.3760,154.8269L183.6000,93.5335L184.8240,202.9082L186.0480,317.6891L187.2720,311.4245L188.4960,313.3222L189.7200,267.7879
            L190.9440,235.0191L192.1680,286.0899L193.3920,250.9216L194.6160,175.4295L195.8400,290.6413L197.0640,362.6758L198.2880,336.7086L199.5120,266.7287L200.7360,193.8982L201.9600,217.9195
            L203.1840,236.2159L204.4080,234.0411L205.6320,251.3972L206.8560,225.2606L208.0800,299.1581L209.3040,298.9921L210.5280,270.3669L211.7520,255.5204L212.9760,246.8132L214.2000,306.1120
            L215.4240,186.6172L216.6480,202.8747L217.8720,240.5316L219.0960,338.2525L220.3200,313.2900L221.5440,358.0921L222.7680,279.8087L223.9920,244.0166L225.2160,203.6431L226.4400,241.1884
            L227.6640,202.7214L228.8880,371.6258L230.1120,321.6597L231.3360,305.8443L232.5600,341.8685L233.7840,214.6292L235.0080,267.5245L236.2320,266.0703L237.4560,193.2030L238.6800,251.9230
            L239.9040,329.3216L241.1280,253.1059L242.3520,248.2665L243.5760,321.6815L244.8000,331.4322L246.0240,331.5661L247.2480,233.8021L248.4720,260.4340L249.6960,257.2180L250.9200,222.1994
            L252.1440,330.6746L253.3680,281.8640L254.5920,322.6273L255.8160,243.5999L257.0400,187.0938L258.2640,218.2471L259.4880,277.4045L260.7120,269.5093L261.9360,238.5678L263.1600,103.9919
            L264.3840,209.1096L265.6080,373.5137L266.8320,351.3104L268.0560,453.7069L269.2800,198.1946L270.5040,258.5796L271.7280,215.4949L272.9520,305.4479L274.1760,255.8523L275.4000,238.3078
            L276.6240,227.8598L277.8480,303.1886L279.0720,343.8809L280.2960,270.4997L281.5200,301.9594L282.7440,233.9826L283.9680,324.2093L285.1920,187.4444L286.4160,317.4977L287.6400,189.6397
            L288.8640,228.3251L290.0880,284.3529L291.3120,245.8220L292.5360,259.8608L293.7600,256.7225L294.9840,221.3889L296.2080,304.4532L297.4320,283.2440L298.6560,204.1118L299.8800,203.4684
            L301.1040,271.0972L302.3280,160.1435L303.5520,308.3978L304.7760,271.9380L306.0000,259.9526L307.2240,227.8546L308.4480,233.8804L309.6720,285.0592L310.8960,266.4818L312.1200,182.1669
            L313.3440,239.0674L314.5680,286.9880L315.7920,273.5233L317.0160,408.4022L318.2400,291.3796L319.4640,316.7224L320.6880,286.8616L321.9120,282.1066L323.1360,278.5114L324.3600,154.6935
            L325.5840,187.6914L326.8080,262.0890L328.0320,226.9700L329.2560,290.1465L330.4800,396.1634L331.7040,338.7189L332.9280,317.2541L334.1520,238.3312L335.3760,175.7672L336.6000,205.5707
            L337.8240,145.0083L339.0480,193.8295L340.2720,307.7698L341.4960,407.0419L342.7200,393.4729L343.9440,339.4519L345.1680,272.3152L346.3920,256.1110L347.6160,184.3815L348.8400,225.0262
            L350.0640,180.9133L351.2880,343.7101L352.5120,230.9646L353.7360,284.5294L354.9600,302.0998L356.1840,216.1206L357.4080,266.6771L358.6320,235.5864L359.8560,197.8742L361.0800,215.1506
            L362.3040,229.1100L363.5280,310.7423L364.7520,347.5495L365.9760,328.1788L367.2000,343.2132L368.4240,229.3085L369.6480,261.0339L370.8720,253.7025L372.0960,258.9780L373.3200,253.7746
            L374.5440,184.0904L375.7680,278.7143L376.9920,211.2089L378.2160,150.3165L379.4400,149.0790L380.6640,100.1472L381.8880,137.7894L383.1120,246.4273L384.3360,355.3215L385.5600,330.2698
            L386.7840,346.4225L388.0080,312.9503L389.2320,335.0128L390.4560,325.3962L391.6800,291.2883L392.9040,163.3316L394.1280,175.5257L395.3520,164.4867L396.5760,211.0415L397.8000,285.2527
            L399.0240,304.6783L400.2480,345.5338L401.4720,338.4115L402.6960,317.1997L403.9200,293.2574L405.1440,113.4445L406.3680,272.7912L407.5920,265.7788L408.8160,201.3486L410.0400,292.2645
            L411.2640,254.9469L412.4880,305.3287L413.7120,265.1705L414.9360,238.0862L416.1600,293.0857L417.3840,287.8347L418.6080,257.3002L419.8320,244.3983L421.0560,219.5218L422.2800,153.6784
            L423.5040,198.2906L424.7280,246.1330L425.9520,245.1116L427.1760,287.2074L428.4000,291.6041L429.6240,211.4157L430.8480,247.3233L432.0720,320.0000L433.2960,290.6867L434.5200,281.2044
            L435.7440,202.3917L436.9680,154.5534L438.1920,318.0983L439.4160,381.6391L440.6400,368.3782L441.8640,330.8957L443.0880,199.4420L444.3120,165.6086L445.5360,280.0509L446.7600,368.3434
            L447.9840,292.3685L449.2080,187.0057L450.4320,101.0419L451.6560,269.4592L452.8800,306.5061L454.1040,313.8203L455.3280,321.3394L456.5520,308.9461L457.7760,343.2642L459.0000,257.1556
            L460.2240,265.8126L461.4480,223.7338L462.6720,310.0847L463.8960,302.9624L465.1200,249.8923L466.3440,262.6452L467.5680,270.5053L468.7920,280.4897L470.0160,209.8088L471.2400,198.0193
            L472.4640,244.0870L473.6880,242.0899L474.9120,279.0793L476.1360,274.6846L477.3600,232.3030L478.5840,196.7220L479.8080,107.4139L481.0320,315.0232L482.2560,208.2050L483.4800,294.3968
            L484.7040,349.7265L485.9280,363.1017L487.1520,246.5926L488.3760,295.1083L489.6000,291.0536L490.8240,193.3812L492.0480,168.9984L493.2720,233.7548L494.4960,339.0590L495.7200,307.4570
            L496.9440,285.8505L498.1680,317.4841L499.3920,221.5934L500.6160,215.2723L501.8400,222.0257L503.0640,257.5136L504.2880,190.6591L505.5120,197.4453L506.7360,267.2567L507.9600,333.9410
            L509.1840,381.9572L510.4080,319.1492L511.6320,294.0120L512.8560,132.3286L514.0800,233.9988L515.3040,182.2137L516.5280,145.9083L517.7520,298.0172L518.9760,355.1171L520.2000,418.1654
            L521.4240,240.2666L522.6480,267.1090L523.8720,167.1114L525.0960,122.5496L526.3200,162.6420L527.5440,208.2991L528.7680,301.7700L529.9920,332.5438L531.2160,231.0651L532.4400,264.3153
            L533.6640,273.9029L534.8880,270.8927L536.1120,246.7768L537.3360,193.6209L538.5600,166.0054L539.7840,195.6415L541.0080,220.4253L542.2320,385.9536L543.4560,408.6557L544.6800,322.0792
            L545.9040,160.7743L547.1280,133.8274L548.3520,227.1251L549.5760,271.6265L550.8000,217.3216L552.0240,237.8314L553.2480,283.2628L554.4720,339.1905L555.6960,301.5909L556.9200,176.5361
            L558.1440,225.4575L559.3680,259.4180L560.5920,307.4729L561.8160,204.7017L563.0400,205.5451L564.2640,259.8038L565.4880,254.3358L566.7120,354.2537L567.9360,300.3441L569.1600,303.0197
            L570.3840,359.5569L571.6080,381.8604L572.8320,329.4716L574.0560,164.9545L575.2800,168.0344L576.5040,105.1056L577.7280,297.8542L578.9520,270.0299L580.1760,304.0341L581.4000,263.4627
            L582.6240,166.0897L583.8480,165.2177L585.0720,192.2996L586.2960,241.5971L587.5200,293.8728L588.7440,249.1625L589.9680,266.0498L591.1920,250.5227L592.4160,339.5786L593.6400,267.3792
            L594.8640,223.8992L596.0880,177.6629L597.3120,282.1779L598.5360,382.8366L599.7600,313.5561L600.9840,157.1965L602.2080,229.6841L603.4320,299.6727L604.6560,313.4291L605.8800,257.6591
            L607.1040,265.4129L608.3280,248.2840L609.5520,200.6184L610.7760,210.8513L612.0000,129.5828L613.2240,251.2134L614.4480,236.9708L615.6720,301.5356L616.8960,164.5688L618.1200,157.7981
            L619.3440,209.3617L620.5680,180.4664L621.7920,197.6185L623.0160,116.6196L624.2400,186.2832L625.4640,269.3279L626.6880,308.6277L627.9120,198.7513L629.1360,320.7323L630.3600,323.2791
            L631.5840,291.1501L632.8080,232.9127L634.0320,254.0903L635.2560,210.3325L636.4800,251.6437L637.7040,306.0658L638.9280,266.5514L640.1520,330.9812L641.3760,340.0681L642.6000,216.4702
            L643.8240,294.1658L645.0480,235.0799L646.2720,202.3544L647.4960,165.5173L648.7200,205.7483L649.9440,267.8762L651.1680,275.4695L652.3920,232.9232L653.6160,172.0177L654.8400,162.6092
            L656.0640,219.2757L657.2880,255.0929L658.5120,259.9592L659.7360,305.7806L660.9600,246.7173L662.1840,264.2818L663.4080,274.5720L664.6320,264.3877L665.8560,370.0426L667.0800,376.2151
            L668.3040,246.3321L669.5280,202.9913L670.7520,179.6836L671.9760,179.0538L673.2000,202.2506L674.4240,375.0324L675.6480,281.2488L676.8720,288.4420L678.0960,216.4059L679.3200,244.3516
            L680.5440,281.3888L681.7680,223.3704L682.9920,287.0870L684.2160,294.5586L685.4400,240.9084L686.6640,287.2380L687.8880,303.3821L689.1120,358.7047L690.3360,319.6255L691.5600,313.7558
            L692.7840,173.7226L694.0080,225.0799L695.2320,210.6125L696.4560,286.1918L697.6800,328.0717L698.9040,288.7017L700.1280,259.4514L701.3520,176.7301L702.5760,262.0653L703.8000,202.0161"/>
   <path d="M91.8000,91.8000L703.8000,91.8000"/>
   <path d="M91.8000,520.2000L703.8000,520.2000"/>
   <path d="M153.0000,91.8000L153.0000,97.9200"/>
   <path d="M153.0000,520.2000L153.0000,514.0800"/>
   <path d="M275.4000,91.8000L275.4000,97.9200"/>
   <path d="M275.4000,520.2000L275.4000,514.0800"/>
   <path d="M397.8000,91.8000L397.8000,97.9200"/>
   <path d="M397.8000,520.2000L397.8000,514.0800"/>
   <path d="M520.2000,91.8000L520.2000,97.9200"/>
   <path d="M520.2000,520.2000L520.2000,514.0800"/>
   <path d="M642.6000,91.8000L642.6000,97.9200"/>
   <path d="M642.6000,520.2000L642.6000,514.0800"/>
   <path d="M91.8000,91.8000L91.8000,104.0400"/>
   <path d="M91.8000,520.2000L91.8000,507.9600"/>
   <path d="M214.2000,91.8000L214.2000,104.0400"/>
   <path d="M214.2000,520.2000L214.2000,507.9600"/>
   <path d="M336.6000,91.8000L336.6000,104.0400"/>
   <path d="M336.6000,520.2000L336.6000,507.9600"/>
   <path d="M459.0000,91.8000L459.0000,104.0400"/>
   <path d="M459.0000,520.2000L459.0000,507.9600"/>
   <path d="M581.4000,91.8000L581.4000,104.0400"/>
   <path d="M581.4000,520.2000L581.4000,507.9600"/>
   <path d="M703.8000,91.8000L703.8000,104.0400"/>
   <path d="M703.8000,520.2000L703.8000,507.9600"/>
  </g>
  <g style="fill:#000000; fill-rule:nonzero">
   <text   style="font-family:'Times','Nimbus Roman No9 L'; font-style:normal; font-weight:normal; font-size:612.0000" transform="matrix(0.0280,0.0000,-0.0000,-0.0280,87.8000,74.6800)">0</text>
   <text   style="font-family:'Times','Nimbus Roman No9 L'; font-style:normal; font-weight:normal; font-size:612.0000" transform="matrix(0.0280,0.0000,-0.0000,-0.0280,205.7000,73.6800)">10</text>
   <text   style="font-family:'Times','Nimbus Roman No9 L'; font-style:normal; font-weight:normal; font-size:612.0000" transform="matrix(0.0280,0.0000,-0.0000,-0.0280,328.1000,74.6800)">20</text>
   <text   style="font-family:'Times','Nimbus Roman No9 L'; font-style:normal; font-weight:normal; font-size:612.0000" transform="matrix(0.0280,0.0000,-0.0000,-0.0280,450.5000,74.6800)">30</text>
   <text   style="font-family:'Times','Nimbus Roman No9 L'; font-style:normal; font-weight:normal; font-size:612.0000" transform="matrix(0.0280,0.0000,-0.0000,-0.0280,572.9000,74.6800)">40</text>
   <text   style="font-family:'Times','Nimbus Roman No9 L'; font-style:normal; font-weight:normal; font-size:612.0000" transform="matrix(0.0280,0.0000,-0.0000,-0.0280,695.3000,73.6800)">50</text>
   <text   style="font-family:'Times','Nimbus Roman No9 L'; font-style:normal; font-weight:normal; font-size:612.0000" transform="matrix(0.0280,0.0000,-0.0000,-0.0280,364.8000,55.5600)">Time (ps)</text>
  </g>
  <g style="fill:none; stroke:#000000; stroke-width:  0.9180; stroke-linecap:butt; stroke-linejoin:miter; stroke-dasharray:none">
   <path d="M91.8000,91.8000L91.8000,520.2000"/>
   <path d="M703.8000,91.8000L703.8000,520.2000"/>
   <path d="M91.8000,134.6400L97.9200,134.6400"/>
   <path d="M703.8000,134.6400L697.6800,134.6400"/>
   <path d="M91.8000,220.3200L97.9200,220.3200"/>
   <path d="M703.8000,220.3200L697.6800,220.3200"/>
   <path d="M91.8000,306.0000L97.9200,306.0000"/>
   <path d="M703.8000,306.0000L697.6800,306.0000"/>
   <path d="M91.8000,391.6800L97.9200,391.6800"/>
   <path d="M703.8000,391.6800L697.6800,391.6800"/>
   <path d="M91.8000,477.3600L97.9200,477.3600"/>
   <path d="M703.8000,477.3600L697.6800,477.3600"/>
   <path d="M91.8000,91.8000L104.0400,91.8000"/>
   <path d="M703.8000,91.8000L691.5600,91.8000"/>
   <path d="M91.8000,177.4800L104.0400,177.4800"/>
   <path d="M703.8000,177.4800L691.5600,177.4800"/>
   <path d="M91.8000,263.1600L104.0400,263.1600"/>
   <path d="M703.8000,263.1600L691.5600,263.1600"/>
   <path d="M91.8000,348.8400L104.0400,348.8400"/>
   <path d="M703.8000,348.8400L691.5600,348.8400"/>
   <path d="M91.8000,434.5200L104.0400,434.5200"/>
   <path d="M703.8000,434.5200L691.5600,434.5200"/>
   <path d="M91.8000,520.2000L104.0400,520.2000"/>
   <path d="M703.8000,520.2000L691.5600,520.2000"/>
  </g>
  <g style="fill:#000000; fill-rule:nonzero">
   <text   style="font-family:'Times','Nimbus Roman No9 L'; font-style:normal; font-weight:normal; font-size:612.0000" transform="matrix(0.0280,0.0000,-0.0000,-0.0280,68.6800,85.8000)">95</text>
   <text   style="font-family:'Times','Nimbus Roman No9 L'; font-style:normal; font-weight:normal; font-size:612.0000" transform="matrix(0.0280,0.0000,-0.0000,-0.0280,60.6800,171.4800)">100</text>
   <text   style="font-family:'Times','Nimbus Roman No9 L'; font-style:normal; font-weight:normal; font-size:612.0000" transform="matrix(0.0280,0.0000,-0.0000,-0.0280,60.6800,257.1600)">105</text>
   <text   style="font-family:'Times','Nimbus Roman No9 L'; font-style:normal; font-weight:normal; font-size:612.0000" transform="matrix(0.0280,0.0000,-0.0000,-0.0280,60.6800,342.8400)">110</text>
   <text   style="font-family:'Times','Nimbus Roman No9 L'; font-style:normal; font-weight:normal; font-size:612.0000" transform="matrix(0.0280,0.0000,-0.0000,-0.0280,60.6800,428.5200)">115</text>
   <text   style="font-family:'Times','Nimbus Roman No9 L'; font-style:normal; font-weight:normal; font-size:612.0000" transform="matrix(0.0280,0.0000,-0.0000,-0.0280,60.6800,514.2000)">120</text>
   <text   style="font-family:'Times','Nimbus Roman No9 L'; font-style:normal; font-weight:normal; font-size:612.0000" transform="matrix(0.0000,0.0280,0.0280,-0.0000,50.5600,265.0000)">Angle (deg)</text>
  </g>
  <g style="fill:none; stroke:#000000; stroke-width:  0.9180; stroke-linecap:butt; stroke-linejoin:miter; stroke-dasharray:none">
   <path d="M91.8000,91.8000L91.8000,520.2000L703.8000,520.2000L703.8000,91.8000z"/>
  </g>
  <g style="fill:#000000; fill-rule:nonzero">
   <text   style="font-family:'Times','Nimbus Roman No9 L'; font-style:normal; font-weight:normal; font-size:612.0000" transform="matrix(0.0420,0.0000,-0.0000,-0.0420,151.8000,562.9200)">CYS 14 - CYS 38 disulfide bridge: C-S-S angle</text>
  </g>
 </g>
</svg>
