<?xml version="1.0" encoding="ISO-8859-1"?>
<!DOCTYPE svg PUBLIC "-//W3C//DTD SVG 1.0//EN" "http://www.w3.org/TR/2001/REC-SVG-20010904/DTD/svg10.dtd">
<!-- generated by Grace-5.1.25 -->
<svg xml:space="preserve" width="11.0000in" height="8.5000in" viewBox="0.0000 0.0000 792.0000 612.0000">
 <g transform="translate(0,612.0000) scale(1,-1)">
 <desc></desc>
  <g style="fill:#FFFFFF; fill-rule:nonzero">
   <path  d="M0.0000,0.0000L0.0000,612.0000L792.0000,612.0000L792.0000,0.0000z"/>
  </g>
  <g style="fill:none; stroke:#000000; stroke-width:  0.9180; stroke-linecap:butt; stroke-linejoin:miter; stroke-dasharray:none">
   <path d="M93.0240,305.2489L94.2480,199.6140L95.4720,283.4176L96.6960,283.6718L97.9200,287.7759L99.1440,308.1748L100.3680,264.8707L101.5920,314.1010L102.8160,307.0938L104.0400,286.3436
            L105.2640,272.5005L106.4880,261.3407L107.7120,326.3433L108.9360,259.5472L110.1600,281.0571L111.3840,280.9443L112.6080,318.7178L113.8320,229.8533L115.0560,304.3292L116.2800,262.9601
            L117.5040,313.5341L118.7280,236.1408L119.9520,315.2991L121.1760,337.1704L122.4000,179.5763L123.6240,384.9413L124.8480,252.8384L126.0720,281.5127L127.2960,287.4203L128.5200,321.6609
            L129.7440,237.6374L130.9680,296.3025L132.1920,344.1619L133.4160,291.0317L134.6400,308.3319L135.8640,245.2386L137.0880,306.7840L138.3120,233.4190L139.5360,342.1984L140.7600,249.9381
            L141.9840,291.5943L143.2080,306.9182L144.4320,240.9118L145.6560,310.0455L146.8800,277.4743L148.1040,278.7652L149.3280,250.2038L150.5520,332.6465L151.7760,238.9940L153.0000,349.0385
            L154.2240,214.7122L155.4480,331.0214L156.6720,275.7093L157.8960,286.6435L159.1200,341.0902L160.3440,295.2657L161.5680,235.7752L162.7920,322.6990L164.0160,291.0574L165.2400,305.4945
            L166.4640,235.5411L167.6880,364.0753L168.9120,206.4056L170.1360,353.0854L171.3600,210.9894L172.5840,305.5345L173.8080,250.4137L175.0320,324.1056L176.2560,263.2314L177.4800,302.0045
            L178.7040,267.7539L179.9280,320.9683L181.1520,273.0346L182.3760,288.1986L183.6000,267.2569L184.8240,248.5973L186.0480,320.7141L187.2720,247.1635L188.4960,322.9618L189.7200,267.2655
            L190.9440,319.6574L192.1680,258.5818L193.3920,277.3586L194.6160,254.7462L195.8400,263.8412L197.0640,343.3522L198.2880,216.3930L199.5120,391.0417L200.7360,222.4591L201.9600,298.6615
            L203.1840,225.0752L204.4080,347.7676L205.6320,273.2545L206.8560,342.2326L208.0800,280.9372L209.3040,268.8234L210.5280,290.7261L211.7520,261.3079L212.9760,267.4626L214.2000,251.1420
            L215.4240,340.0692L216.6480,204.8362L217.8720,336.9619L219.0960,206.1100L220.3200,390.9631L221.5440,258.8474L222.7680,320.3100L223.9920,268.8591L225.2160,276.3376L226.4400,337.1190
            L227.6640,228.3911L228.8880,321.3481L230.1120,284.6471L231.3360,321.6623L232.5600,188.5341L233.7840,334.2130L235.0080,245.2729L236.2320,213.9026L237.4560,257.4966L238.6800,310.5482
            L239.9040,289.5680L241.1280,246.6366L242.3520,350.8778L243.5760,272.7233L244.8000,364.1524L246.0240,187.4546L247.2480,394.9144L248.4720,189.6780L249.6960,287.2161L250.9200,359.2344
            L252.1440,212.1176L253.3680,385.4982L254.5920,184.7257L255.8160,376.0248L257.0400,210.3083L258.2640,293.0366L259.4880,279.1636L260.7120,364.6994L261.9360,170.8612L263.1600,318.1737
            L264.3840,263.6769L265.6080,188.9254L266.8320,433.0306L268.0560,225.4608L269.2800,398.4487L270.5040,187.7102L271.7280,328.5296L272.9520,274.8782L274.1760,325.6964L275.4000,306.2442
            L276.6240,286.1108L277.8480,263.4156L279.0720,288.6841L280.2960,305.4545L281.5200,261.9191L282.7440,329.6277L283.9680,234.5058L285.1920,347.8775L286.4160,236.8677L287.6400,284.1445
            L288.8640,318.1808L290.0880,155.3660L291.3120,359.7513L292.5360,256.0628L293.7600,305.5102L294.9840,246.0097L296.2080,320.6056L297.4320,285.0570L298.6560,319.3132L299.8800,287.1204
            L301.1040,250.4565L302.3280,276.5861L303.5520,263.1629L304.7760,386.5363L306.0000,178.6938L307.2240,289.1824L308.4480,337.7059L309.6720,299.0642L310.8960,246.0397L312.1200,275.7093
            L313.3440,305.0304L314.5680,220.6998L315.7920,391.3330L317.0160,254.0494L318.2400,365.3291L319.4640,239.7508L320.6880,371.6937L321.9120,267.7253L323.1360,274.4583L324.3600,347.1978
            L325.5840,214.2639L326.8080,337.9501L328.0320,239.7708L329.2560,330.9643L330.4800,211.3436L331.7040,321.4681L332.9280,320.1643L334.1520,238.7512L335.3760,250.6065L336.6000,293.6349
            L337.8240,265.0992L339.0480,227.7570L340.2720,328.8037L341.4960,268.6307L342.7200,343.0395L343.9440,295.0658L345.1680,301.9045L346.3920,307.1681L347.6160,224.7154L348.8400,296.1525
            L350.0640,210.4225L351.2880,314.5352L352.5120,250.6964L353.7360,287.5502L354.9600,310.7224L356.1840,274.9281L357.4080,359.0930L358.6320,242.7339L359.8560,254.4192L361.0800,302.5899
            L362.3040,257.8136L363.5280,313.1043L364.7520,280.8729L365.9760,309.7371L367.2000,246.4895L368.4240,386.0423L369.6480,183.0820L370.8720,239.9764L372.0960,284.2401L373.3200,266.8071
            L374.5440,267.5125L375.7680,327.5071L376.9920,279.5877L378.2160,245.2643L379.4400,271.0283L380.6640,270.4228L381.8880,302.9198L383.1120,233.7232L384.3360,319.2461L385.5600,253.6538
            L386.7840,292.3697L388.0080,267.5340L389.2320,286.8277L390.4560,319.0619L391.6800,256.0100L392.9040,343.8106L394.1280,231.5141L395.3520,241.3045L396.5760,297.5677L397.8000,202.0273
            L399.0240,340.0221L400.2480,269.7202L401.4720,272.5777L402.6960,304.4877L403.9200,303.6395L405.1440,231.7354L406.3680,282.9264L407.5920,303.4896L408.8160,293.2008L410.0400,292.4811
            L411.2640,212.9701L412.4880,336.2964L413.7120,278.2411L414.9360,275.6793L416.1600,291.8942L417.3840,356.1128L418.6080,261.7092L419.8320,350.9449L421.0560,193.4593L422.2800,383.8217
            L423.5040,246.1268L424.7280,174.5083L425.9520,397.7704L427.1760,253.3768L428.4000,319.1162L429.6240,234.6900L430.8480,339.0596L432.0720,286.8619L433.2960,291.3530L434.5200,308.2205
            L435.7440,237.1318L436.9680,274.1099L438.1920,233.2320L439.4160,410.6010L440.6400,199.2084L441.8640,336.9062L443.0880,298.7043L444.3120,253.8566L445.5360,258.1077L446.7600,290.0507
            L447.9840,276.8088L449.2080,279.7619L450.4320,285.8252L451.6560,252.4457L452.8800,323.4516L454.1040,283.8589L455.3280,244.7902L456.5520,320.9612L457.7760,330.8672L459.0000,253.0598
            L460.2240,328.1197L461.4480,222.2021L462.6720,348.6586L463.8960,301.6646L465.1200,289.8079L466.3440,390.0864L467.5680,177.3872L468.7920,288.8754L470.0160,289.3338L471.2400,314.6351
            L472.4640,239.4395L473.6880,326.7974L474.9120,249.7811L476.1360,225.7935L477.3600,389.8579L478.5840,166.0103L479.8080,383.2962L481.0320,167.9467L482.2560,351.3419L483.4800,249.7582
            L484.7040,344.1776L485.9280,318.5664L487.1520,270.7127L488.3760,330.9300L489.6000,233.6175L490.8240,351.5803L492.0480,154.4721L493.2720,378.4253L494.4960,180.0118L495.7200,298.0932
            L496.9440,309.8185L498.1680,275.6079L499.3920,304.7748L500.6160,283.7332L501.8400,247.4349L503.0640,226.1848L504.2880,273.4473L505.5120,288.6012L506.7360,267.8667L507.9600,289.6194
            L509.1840,334.9484L510.4080,323.6801L511.6320,212.3575L512.8560,368.8777L514.0800,247.4049L515.3040,279.3421L516.5280,243.1466L517.7520,330.4674L518.9760,363.7626L520.2000,195.4785
            L521.4240,406.9296L522.6480,273.9014L523.8720,224.3712L525.0960,274.2827L526.3200,331.6083L527.5440,177.4943L528.7680,361.7691L529.9920,309.1102L531.2160,270.3271L532.4400,376.6989
            L533.6640,183.2848L534.8880,415.5347L536.1120,147.2492L537.3360,346.4038L538.5600,236.7520L539.7840,233.6232L541.0080,249.7654L542.2320,323.1403L543.4560,285.7424L544.6800,265.6547
            L545.9040,342.4768L547.1280,232.9478L548.3520,305.8244L549.5760,218.8834L550.8000,322.7304L552.0240,221.2025L553.2480,248.2674L554.4720,306.3099L555.6960,249.1613L556.9200,332.7222
            L558.1440,232.8093L559.3680,303.9265L560.5920,306.1985L561.8160,234.5200L563.0400,279.3150L564.2640,332.6136L565.4880,214.4238L566.7120,352.6770L567.9360,277.1487L569.1600,307.3066
            L570.3840,278.6152L571.6080,268.1566L572.8320,315.7518L574.0560,224.7654L575.2800,275.5393L576.5040,274.3184L577.7280,256.1271L578.9520,321.6209L580.1760,287.7345L581.4000,290.1463
            L582.6240,285.7481L583.8480,223.5444L585.0720,246.1668L586.2960,354.5577L587.5200,208.9388L588.7440,362.3874L589.9680,203.9094L591.1920,335.6139L592.4160,305.4031L593.6400,252.8970
            L594.8640,316.6515L596.0880,227.1516L597.3120,330.3088L598.5360,286.2936L599.7600,302.1187L600.9840,324.2627L602.2080,250.5865L603.4320,266.4273L604.6560,323.8728L605.8800,268.0266
            L607.1040,344.0376L608.3280,239.8208L609.5520,321.1054L610.7760,263.2714L612.0000,231.4284L613.2240,219.1048L614.4480,325.7521L615.6720,247.2064L616.8960,296.0982L618.1200,308.0992
            L619.3440,185.0027L620.5680,335.3111L621.7920,172.6619L623.0160,348.3531L624.2400,273.7272L625.4640,275.3565L626.6880,290.1806L627.9120,318.4593L629.1360,269.5889L630.3600,278.0340
            L631.5840,335.0641L632.8080,203.9094L634.0320,350.2780L635.2560,177.0473L636.4800,372.4077L637.7040,279.7776L638.9280,215.3748L640.1520,375.6293L641.3760,193.8920L642.6000,392.6496
            L643.8240,209.2244L645.0480,316.8871L646.2720,271.5566L647.4960,248.0346L648.7200,350.3651L649.9440,278.2711L651.1680,263.4699L652.3920,281.6469L653.6160,290.8689L654.8400,234.6071
            L656.0640,289.2253L657.2880,279.1208L658.5120,295.8569L659.7360,270.9583L660.9600,277.1615L662.1840,328.2040L663.4080,205.2189L664.6320,330.3217L665.8560,294.1605L667.0800,316.9942
            L668.3040,295.5128L669.5280,270.2600L670.7520,296.9822L671.9760,215.1378L673.2000,406.3684L674.4240,156.5655L675.6480,400.9806L676.8720,221.9322L678.0960,281.3213L679.3200,313.0986
            L680.5440,263.7155L681.7680,355.4402L682.9920,200.6550L684.2160,325.9634L685.4400,295.7355L686.6640,300.3323L687.8880,269.5317L689.1120,271.0697L690.3360,340.5605L691.5600,254.1665
            L692.7840,314.2867L694.0080,218.7920L695.2320,307.9135L696.4560,306.0843L697.6800,315.3134L698.9040,236.0309L700.1280,333.7275L701.3520,237.2118L702.5760,240.9289L703.8000,366.9199"/>
   <path d="M91.8000,91.8000L703.8000,91.8000"/>
   <path d="M91.8000,520.2000L703.8000,520.2000"/>
   <path d="M153.0000,91.8000L153.0000,97.9200"/>
   <path d="M153.0000,520.2000L153.0000,514.0800"/>
   <path d="M275.4000,91.8000L275.4000,97.9200"/>
   <path d="M275.4000,520.2000L275.4000,514.0800"/>
   <path d="M397.8000,91.8000L397.8000,97.9200"/>
   <path d="M397.8000,520.2000L397.8000,514.0800"/>
   <path d="M520.2000,91.8000L520.2000,97.9200"/>
   <path d="M520.2000,520.2000L520.2000,514.0800"/>
   <path d="M642.6000,91.8000L642.6000,97.9200"/>
   <path d="M642.6000,520.2000L642.6000,514.0800"/>
   <path d="M91.8000,91.8000L91.8000,104.0400"/>
   <path d="M91.8000,520.2000L91.8000,507.9600"/>
   <path d="M214.2000,91.8000L214.2000,104.0400"/>
   <path d="M214.2000,520.2000L214.2000,507.9600"/>
   <path d="M336.6000,91.8000L336.6000,104.0400"/>
   <path d="M336.6000,520.2000L336.6000,507.9600"/>
   <path d="M459.0000,91.8000L459.0000,104.0400"/>
   <path d="M459.0000,520.2000L459.0000,507.9600"/>
   <path d="M581.4000,91.8000L581.4000,104.0400"/>
   <path d="M581.4000,520.2000L581.4000,507.9600"/>
   <path d="M703.8000,91.8000L703.8000,104.0400"/>
   <path d="M703.8000,520.2000L703.8000,507.9600"/>
  </g>
  <g style="fill:#000000; fill-rule:nonzero">
   <text   style="font-family:'Times','Nimbus Roman No9 L'; font-style:normal; font-weight:normal; font-size:612.0000" transform="matrix(0.0280,0.0000,-0.0000,-0.0280,87.8000,74.6800)">0</text>
   <text   style="font-family:'Times','Nimbus Roman No9 L'; font-style:normal; font-weight:normal; font-size:612.0000" transform="matrix(0.0280,0.0000,-0.0000,-0.0280,205.7000,73.6800)">10</text>
   <text   style="font-family:'Times','Nimbus Roman No9 L'; font-style:normal; font-weight:normal; font-size:612.0000" transform="matrix(0.0280,0.0000,-0.0000,-0.0280,328.1000,74.6800)">20</text>
   <text   style="font-family:'Times','Nimbus Roman No9 L'; font-style:normal; font-weight:normal; font-size:612.0000" transform="matrix(0.0280,0.0000,-0.0000,-0.0280,450.5000,74.6800)">30</text>
   <text   style="font-family:'Times','Nimbus Roman No9 L'; font-style:normal; font-weight:normal; font-size:612.0000" transform="matrix(0.0280,0.0000,-0.0000,-0.0280,572.9000,74.6800)">40</text>
   <text   style="font-family:'Times','Nimbus Roman No9 L'; font-style:normal; font-weight:normal; font-size:612.0000" transform="matrix(0.0280,0.0000,-0.0000,-0.0280,695.3000,73.6800)">50</text>
   <text   style="font-family:'Times','Nimbus Roman No9 L'; font-style:normal; font-weight:normal; font-size:612.0000" transform="matrix(0.0280,0.0000,-0.0000,-0.0280,364.8000,55.5600)">Time (ps)</text>
  </g>
  <g style="fill:none; stroke:#000000; stroke-width:  0.9180; stroke-linecap:butt; stroke-linejoin:miter; stroke-dasharray:none">
   <path d="M91.8000,91.8000L91.8000,520.2000"/>
   <path d="M703.8000,91.8000L703.8000,520.2000"/>
   <path d="M91.8000,127.5000L97.9200,127.5000"/>
   <path d="M703.8000,127.5000L697.6800,127.5000"/>
   <path d="M91.8000,198.9000L97.9200,198.9000"/>
   <path d="M703.8000,198.9000L697.6800,198.9000"/>
   <path d="M91.8000,270.3000L97.9200,270.3000"/>
   <path d="M703.8000,270.3000L697.6800,270.3000"/>
   <path d="M91.8000,341.7000L97.9200,341.7000"/>
   <path d="M703.8000,341.7000L697.6800,341.7000"/>
   <path d="M91.8000,413.1000L97.9200,413.1000"/>
   <path d="M703.8000,413.1000L697.6800,413.1000"/>
   <path d="M91.8000,484.5000L97.9200,484.5000"/>
   <path d="M703.8000,484.5000L697.6800,484.5000"/>
   <path d="M91.8000,91.8000L104.0400,91.8000"/>
   <path d="M703.8000,91.8000L691.5600,91.8000"/>
   <path d="M91.8000,163.2000L104.0400,163.2000"/>
   <path d="M703.8000,163.2000L691.5600,163.2000"/>
   <path d="M91.8000,234.6000L104.0400,234.6000"/>
   <path d="M703.8000,234.6000L691.5600,234.6000"/>
   <path d="M91.8000,306.0000L104.0400,306.0000"/>
   <path d="M703.8000,306.0000L691.5600,306.0000"/>
   <path d="M91.8000,377.4000L104.0400,377.4000"/>
   <path d="M703.8000,377.4000L691.5600,377.4000"/>
   <path d="M91.8000,448.8000L104.0400,448.8000"/>
   <path d="M703.8000,448.8000L691.5600,448.8000"/>
   <path d="M91.8000,520.2000L104.0400,520.2000"/>
   <path d="M703.8000,520.2000L691.5600,520.2000"/>
  </g>
  <g style="fill:#000000; fill-rule:nonzero">
   <text   style="font-family:'Times','Nimbus Roman No9 L'; font-style:normal; font-weight:normal; font-size:612.0000" transform="matrix(0.0280,0.0000,-0.0000,-0.0280,64.6800,85.8000)">1.9</text>
   <text   style="font-family:'Times','Nimbus Roman No9 L'; font-style:normal; font-weight:normal; font-size:612.0000" transform="matrix(0.0280,0.0000,-0.0000,-0.0280,56.6800,157.2000)">1.95</text>
   <text   style="font-family:'Times','Nimbus Roman No9 L'; font-style:normal; font-weight:normal; font-size:612.0000" transform="matrix(0.0280,0.0000,-0.0000,-0.0280,77.6800,229.1000)">2</text>
   <text   style="font-family:'Times','Nimbus Roman No9 L'; font-style:normal; font-weight:normal; font-size:612.0000" transform="matrix(0.0280,0.0000,-0.0000,-0.0280,56.6800,300.0000)">2.05</text>
   <text   style="font-family:'Times','Nimbus Roman No9 L'; font-style:normal; font-weight:normal; font-size:612.0000" transform="matrix(0.0280,0.0000,-0.0000,-0.0280,65.6800,371.4000)">2.1</text>
   <text   style="font-family:'Times','Nimbus Roman No9 L'; font-style:normal; font-weight:normal; font-size:612.0000" transform="matrix(0.0280,0.0000,-0.0000,-0.0280,56.6800,442.8000)">2.15</text>
   <text   style="font-family:'Times','Nimbus Roman No9 L'; font-style:normal; font-weight:normal; font-size:612.0000" transform="matrix(0.0280,0.0000,-0.0000,-0.0280,64.6800,514.7000)">2.2</text>
   <text   style="font-family:'Times','Nimbus Roman No9 L'; font-style:normal; font-weight:normal; font-size:612.0000" transform="matrix(0.0000,0.0280,0.0280,-0.0000,47.5600,262.5000)">Distance (Å)</text>
  </g>
  <g style="fill:none; stroke:#000000; stroke-width:  0.9180; stroke-linecap:butt; stroke-linejoin:miter; stroke-dasharray:none">
   <path d="M91.8000,91.8000L91.8000,520.2000L703.8000,520.2000L703.8000,91.8000z"/>
  </g>
  <g style="fill:#000000; fill-rule:nonzero">
   <text   style="font-family:'Times','Nimbus Roman No9 L'; font-style:normal; font-weight:normal; font-size:612.0000" transform="matrix(0.0420,0.0000,-0.0000,-0.0420,150.3000,562.9200)">CYS 14 - CYS 38 disulfide bridge: S-S distance</text>
  </g>
 </g>
</svg>
