<?xml version="1.0" encoding="ISO-8859-1"?>
<!DOCTYPE svg PUBLIC "-//W3C//DTD SVG 1.0//EN" "http://www.w3.org/TR/2001/REC-SVG-20010904/DTD/svg10.dtd">
<!-- generated by Grace-5.1.25 -->
<svg xml:space="preserve" width="11.0000in" height="8.5000in" viewBox="0.0000 0.0000 792.0000 612.0000">
 <g transform="translate(0,612.0000) scale(1,-1)">
  <g style="fill:#FFFFFF; fill-rule:nonzero">
   <path  d="M0.0000,0.0000L0.0000,612.0000L792.0000,612.0000L792.0000,0.0000z"/>
  </g>
  <g style="fill:none; stroke:#000000; stroke-width:  0.9180; stroke-linecap:butt; stroke-linejoin:miter; stroke-dasharray:none">
   <path d="M91.8000,467.8431L93.0240,414.3795L94.2480,394.9122L95.4720,380.8698L96.6960,388.1390L97.9200,378.7113L99.1440,403.8949L100.3680,397.7314L101.5920,392.0633L102.8160,376.7126
            L104.0400,404.0520L104.0400,234.5253L105.2640,297.9801L106.4880,297.7790L107.7120,295.1087L108.9360,296.7672L110.1600,299.9857L111.3840,282.2181L112.6080,318.6665L113.8320,297.3287
            L115.0560,311.4828L116.2800,299.2651L116.2800,307.6943L117.5040,307.0012L118.7280,325.1286L119.9520,304.1729L121.1760,301.8453L122.4000,306.7542L123.6240,299.0068L124.8480,319.4506
            L126.0720,315.8812L127.2960,295.5381L128.5200,301.8629L128.5200,293.7817L129.7440,314.7467L130.9680,311.8600L132.1920,288.3100L133.4160,283.2643L134.6400,301.5700L135.8640,291.2969
            L137.0880,303.3249L138.3120,309.8773L139.5360,317.7565L140.7600,298.7262L140.7600,307.4122L141.9840,310.3344L143.2080,327.1920L144.4320,289.7299L145.6560,295.5571L146.8800,314.2564
            L148.1040,320.9862L149.3280,313.1186L150.5520,297.3990L151.7760,299.9363L153.0000,326.2167L153.0000,323.2941L154.2240,315.7512L155.4480,323.0008L156.6720,299.1990L157.8960,318.2406
            L159.1200,302.0343L160.3440,306.3981L161.5680,312.6696L162.7920,307.3451L164.0160,295.2823L165.2400,282.7112L165.2400,286.0517L166.4640,296.4911L167.6880,304.2735L168.9120,296.3160
            L170.1360,303.4334L171.3600,301.3968L172.5840,322.0111L173.8080,298.9405L175.0320,287.7247L176.2560,311.7324L177.4800,297.7838L177.4800,302.7104L178.7040,325.1495L179.9280,281.9088
            L181.1520,329.2536L182.3760,305.8179L183.6000,309.5631L184.8240,337.9242L186.0480,318.0777L187.2720,330.9198L188.4960,318.4990L189.7200,300.5248L189.7200,298.0405L190.9440,310.8614
            L192.1680,317.6823L193.3920,302.8698L194.6160,312.7790L195.8400,304.4752L197.0640,324.7860L198.2880,298.9966L199.5120,319.7917L200.7360,327.4697L201.9600,312.7186L201.9600,311.9095
            L203.1840,299.2168L204.4080,291.9144L205.6320,333.4629L206.8560,297.4820L208.0800,305.9270L209.3040,299.6300L210.5280,310.8072L211.7520,304.1844L212.9760,295.4780L214.2000,308.5106
            L214.2000,316.1022L215.4240,294.7641L216.6480,306.1006L217.8720,335.0599L219.0960,290.9103L220.3200,314.8468L221.5440,315.1517L222.7680,317.1275L223.9920,317.0352L225.2160,310.2631
            L226.4400,306.1207L226.4400,291.7802L227.6640,310.1171L228.8880,303.6948L230.1120,321.3980L231.3360,302.1312L232.5600,296.6113L233.7840,291.8790L235.0080,309.0023L236.2320,320.7873
            L237.4560,306.2231L238.6800,314.6807L238.6800,318.6966L239.9040,319.0470L241.1280,315.6237L242.3520,290.0316L243.5760,325.1869L244.8000,298.6603L246.0240,310.5764L247.2480,310.8941
            L248.4720,297.0827L249.6960,299.7180L250.9200,279.6889L250.9200,277.2291L252.1440,315.1940L253.3680,308.0195L254.5920,289.8752L255.8160,324.0901L257.0400,315.8822L258.2640,305.3065
            L259.4880,312.6850L260.7120,300.1653L261.9360,341.2157L263.1600,298.2940L263.1600,303.3722L264.3840,317.9065L265.6080,317.8091L266.8320,318.9303L268.0560,303.2928L269.2800,297.0276
            L270.5040,304.7273L271.7280,303.7808L272.9520,321.6044L274.1760,296.0907L275.4000,315.4766L275.4000,309.2823L276.6240,311.8141L277.8480,315.5783L279.0720,298.7923L280.2960,302.1125
            L281.5200,311.5154L282.7440,310.3256L283.9680,302.9669L285.1920,313.6341L286.4160,302.7910L287.6400,312.1566L287.6400,317.2832L288.8640,309.2308L290.0880,301.4113L291.3120,314.7144
            L292.5360,295.8082L293.7600,317.4629L294.9840,315.9906L296.2080,309.7990L297.4320,327.6120L298.6560,288.2388L299.8800,323.6232L299.8800,327.7841L301.1040,337.1929L302.3280,322.8684
            L303.5520,300.8701L304.7760,314.7701L306.0000,307.3033L307.2240,307.4564L308.4480,321.6960L309.6720,314.9440L310.8960,293.8483L312.1200,318.8054L312.1200,311.8374L313.3440,310.4803
            L314.5680,316.2497L315.7920,285.0853L317.0160,321.2282L318.2400,289.0073L319.4640,310.9502L320.6880,327.9674L321.9120,290.8530L323.1360,311.0566L324.3600,310.8195L324.3600,307.5010
            L325.5840,303.8834L326.8080,300.1156L328.0320,299.7791L329.2560,315.1199L330.4800,288.6825L331.7040,303.2645L332.9280,301.2017L334.1520,298.8580L335.3760,296.2599L336.6000,286.8194
            L336.6000,295.4361L337.8240,314.4667L339.0480,311.6459L340.2720,333.2983L341.4960,304.7283L342.7200,300.8940L343.9440,317.1056L345.1680,298.6117L346.3920,315.0258L347.6160,322.7729
            L348.8400,305.5386L348.8400,301.5970L350.0640,299.6079L351.2880,296.1541L352.5120,323.1444L353.7360,308.8394L354.9600,305.3217L356.1840,317.8217L357.4080,322.4931L358.6320,346.9829
            L359.8560,309.3747L361.0800,313.0555L361.0800,316.8611L362.3040,313.3240L363.5280,317.6216L364.7520,299.2289L365.9760,314.1675L367.2000,316.3672L368.4240,302.5018L369.6480,299.8294
            L370.8720,320.6146L372.0960,299.4375L373.3200,323.8027L373.3200,318.6435L374.5440,304.4484L375.7680,308.5884L376.9920,295.0721L378.2160,301.3147L379.4400,294.5728L380.6640,290.9708
            L381.8880,310.2559L383.1120,315.5377L384.3360,282.3478L385.5600,309.3586L385.5600,322.5485L386.7840,313.1223L388.0080,311.5901L389.2320,306.5615L390.4560,323.9780L391.6800,314.1462
            L392.9040,308.5516L394.1280,328.1099L395.3520,325.1200L396.5760,294.4892L397.8000,297.5053L397.8000,276.9759L399.0240,288.5340L400.2480,293.3385L401.4720,296.0964L402.6960,286.5572
            L403.9200,303.2193L405.1440,299.6310L406.3680,308.9994L407.5920,291.2158L408.8160,290.4049L410.0400,295.6894L410.0400,310.1698L411.2640,326.2023L412.4880,280.5109L413.7120,328.1671
            L414.9360,337.6598L416.1600,301.3352L417.3840,301.1554L418.6080,286.6972L419.8320,322.7342L421.0560,293.3589L422.2800,316.4553L422.2800,311.7110L423.5040,298.2448L424.7280,311.6195
            L425.9520,316.5632L427.1760,302.8744L428.4000,287.5882L429.6240,309.8302L430.8480,312.2725L432.0720,326.3714L433.2960,313.2519L434.5200,315.5524L434.5200,322.4769L435.7440,340.4599
            L436.9680,299.8562L438.1920,321.5722L439.4160,309.4977L440.6400,310.2091L441.8640,299.7510L443.0880,300.7177L444.3120,289.1156L445.5360,282.5490L446.7600,306.0319L446.7600,299.7548
            L447.9840,299.5189L449.2080,319.9152L450.4320,311.8609L451.6560,306.8013L452.8800,299.9764L454.1040,313.6457L455.3280,288.4886L456.5520,301.9769L457.7760,287.8678L459.0000,284.3763
            L459.0000,291.4560L460.2240,307.8761L461.4480,312.8180L462.6720,335.7998L463.8960,321.8423L465.1200,309.6758L466.3440,316.9978L467.5680,321.0857L468.7920,295.6058L470.0160,303.5864
            L471.2400,311.1429L471.2400,300.1622L472.4640,313.2846L473.6880,321.1349L474.9120,306.4365L476.1360,315.7927L477.3600,312.3729L478.5840,299.3848L479.8080,294.0534L481.0320,299.8420
            L482.2560,312.1249L483.4800,327.7105L483.4800,326.6713L484.7040,307.5782L485.9280,317.5122L487.1520,288.0182L488.3760,319.9037L489.6000,317.7725L490.8240,267.1195L492.0480,297.3330
            L493.2720,302.7391L494.4960,305.1693L495.7200,298.9179L495.7200,304.4914L496.9440,304.9443L498.1680,293.5029L499.3920,327.7563L500.6160,323.6730L501.8400,302.6091L503.0640,322.4640
            L504.2880,300.3085L505.5120,311.5300L506.7360,318.7347L507.9600,312.4249L507.9600,309.6243L509.1840,300.0897L510.4080,304.5607L511.6320,307.3317L512.8560,296.4249L514.0800,305.8189
            L515.3040,312.9462L516.5280,308.4314L517.7520,318.7677L518.9760,302.9300L520.2000,308.4203L520.2000,318.1369L521.4240,316.7432L522.6480,345.7518L523.8720,318.1821L525.0960,311.9828
            L526.3200,329.9636L527.5440,316.2922L528.7680,307.3257L529.9920,326.0865L531.2160,314.2687L532.4400,322.6698L532.4400,315.4783L533.6640,320.4538L534.8880,301.6083L536.1120,299.4244
            L537.3360,311.5405L538.5600,300.3339L539.7840,308.9122L541.0080,314.4618L542.2320,291.7191L543.4560,298.4872L544.6800,297.9775L544.6800,301.9059L545.9040,281.5388L547.1280,311.0305
            L548.3520,297.2983L549.5760,333.7982L550.8000,302.8476L552.0240,296.8167L553.2480,324.8909L554.4720,297.9823L555.6960,313.4037L556.9200,294.7843L556.9200,290.3893L558.1440,314.4060
            L559.3680,298.3525L560.5920,315.2760L561.8160,317.8095L563.0400,315.2092L564.2640,296.7492L565.4880,317.7284L566.7120,310.1533L567.9360,279.4515L569.1600,336.2277L569.1600,328.9832
            L570.3840,299.9294L571.6080,316.3977L572.8320,315.8110L574.0560,314.0649L575.2800,304.7836L576.5040,287.4093L577.7280,293.7752L578.9520,296.6911L580.1760,276.7490L581.4000,311.3006
            L581.4000,316.3250L582.6240,322.9216L583.8480,304.7697L585.0720,314.4090L586.2960,318.9246L587.5200,319.0075L588.7440,314.2787L589.9680,303.6974L591.1920,286.6449L592.4160,300.0742
            L593.6400,305.1919L593.6400,290.8443L594.8640,296.6430L596.0880,296.7593L597.3120,314.9447L598.5360,289.6395L599.7600,302.7787L600.9840,301.8630L602.2080,327.2500L603.4320,317.3198
            L604.6560,327.1865L605.8800,306.3361L605.8800,320.4734L607.1040,314.0287L608.3280,307.2445L609.5520,305.1817L610.7760,335.8568L612.0000,317.1554L613.2240,315.2935L614.4480,325.2193
            L615.6720,281.0275L616.8960,306.3908L618.1200,299.8369L618.1200,299.9513L619.3440,303.8359L620.5680,317.7270L621.7920,318.6000L623.0160,334.2272L624.2400,320.8651L625.4640,298.5427
            L626.6880,309.0831L627.9120,338.2304L629.1360,299.4028L630.3600,302.0213L630.3600,299.9877L631.5840,290.2866L632.8080,316.8493L634.0320,317.6482L635.2560,314.2570L636.4800,312.1306
            L637.7040,313.1734L638.9280,296.1752L640.1520,319.1355L641.3760,317.1240L642.6000,306.4751L642.6000,313.6077L643.8240,312.7821L645.0480,304.8603L646.2720,321.6702L647.4960,330.2480
            L648.7200,324.8759L649.9440,284.7663L651.1680,314.4613L652.3920,298.9425L653.6160,306.9737L654.8400,316.4237L654.8400,315.4728L656.0640,317.9047L657.2880,322.8858L658.5120,309.1211
            L659.7360,295.2943L660.9600,311.3928L662.1840,291.4266L663.4080,322.5984L664.6320,308.6891L665.8560,308.5290L667.0800,326.4769L667.0800,329.2140L668.3040,284.3324L669.5280,286.8201
            L670.7520,302.1869L671.9760,307.4154L673.2000,306.2763L674.4240,307.1316L675.6480,311.1442L676.8720,306.9587L678.0960,323.2156L679.3200,305.9663L679.3200,294.3710L680.5440,300.4519
            L681.7680,308.4913L682.9920,309.6057L684.2160,326.3371L685.4400,328.1351L686.6640,299.9210L687.8880,319.0916L689.1120,309.7156L690.3360,301.9914L691.5600,302.6563L691.5600,312.3975
            L692.7840,300.5739L694.0080,312.4486L695.2320,296.1097L696.4560,300.3707L697.6800,300.9977L698.9040,322.2912L700.1280,309.8435L701.3520,278.7013L702.5760,299.4924L703.8000,301.9159"/>
   <path d="M91.8000,91.8000L703.8000,91.8000"/>
   <path d="M91.8000,520.2000L703.8000,520.2000"/>
   <path d="M153.0000,91.8000L153.0000,97.9200"/>
   <path d="M153.0000,520.2000L153.0000,514.0800"/>
   <path d="M275.4000,91.8000L275.4000,97.9200"/>
   <path d="M275.4000,520.2000L275.4000,514.0800"/>
   <path d="M397.8000,91.8000L397.8000,97.9200"/>
   <path d="M397.8000,520.2000L397.8000,514.0800"/>
   <path d="M520.2000,91.8000L520.2000,97.9200"/>
   <path d="M520.2000,520.2000L520.2000,514.0800"/>
   <path d="M642.6000,91.8000L642.6000,97.9200"/>
   <path d="M642.6000,520.2000L642.6000,514.0800"/>
   <path d="M91.8000,91.8000L91.8000,104.0400"/>
   <path d="M91.8000,520.2000L91.8000,507.9600"/>
   <path d="M214.2000,91.8000L214.2000,104.0400"/>
   <path d="M214.2000,520.2000L214.2000,507.9600"/>
   <path d="M336.6000,91.8000L336.6000,104.0400"/>
   <path d="M336.6000,520.2000L336.6000,507.9600"/>
   <path d="M459.0000,91.8000L459.0000,104.0400"/>
   <path d="M459.0000,520.2000L459.0000,507.9600"/>
   <path d="M581.4000,91.8000L581.4000,104.0400"/>
   <path d="M581.4000,520.2000L581.4000,507.9600"/>
   <path d="M703.8000,91.8000L703.8000,104.0400"/>
   <path d="M703.8000,520.2000L703.8000,507.9600"/>
  </g>
  <g style="fill:#000000; fill-rule:nonzero">
   <text   style="font-family:'Times','Nimbus Roman No9 L'; font-style:normal; font-weight:normal; font-size:612.0000" transform="matrix(0.0280,0.0000,-0.0000,-0.0280,87.8000,74.6800)">0</text>
   <text   style="font-family:'Times','Nimbus Roman No9 L'; font-style:normal; font-weight:normal; font-size:612.0000" transform="matrix(0.0280,0.0000,-0.0000,-0.0280,205.7000,73.6800)">10</text>
   <text   style="font-family:'Times','Nimbus Roman No9 L'; font-style:normal; font-weight:normal; font-size:612.0000" transform="matrix(0.0280,0.0000,-0.0000,-0.0280,328.1000,74.6800)">20</text>
   <text   style="font-family:'Times','Nimbus Roman No9 L'; font-style:normal; font-weight:normal; font-size:612.0000" transform="matrix(0.0280,0.0000,-0.0000,-0.0280,450.5000,74.6800)">30</text>
   <text   style="font-family:'Times','Nimbus Roman No9 L'; font-style:normal; font-weight:normal; font-size:612.0000" transform="matrix(0.0280,0.0000,-0.0000,-0.0280,572.9000,74.6800)">40</text>
   <text   style="font-family:'Times','Nimbus Roman No9 L'; font-style:normal; font-weight:normal; font-size:612.0000" transform="matrix(0.0280,0.0000,-0.0000,-0.0280,695.3000,73.6800)">50</text>
   <text   style="font-family:'Times','Nimbus Roman No9 L'; font-style:normal; font-weight:normal; font-size:612.0000" transform="matrix(0.0280,0.0000,-0.0000,-0.0280,364.8000,55.5600)">Time (ps)</text>
  </g>
  <g style="fill:none; stroke:#000000; stroke-width:  0.9180; stroke-linecap:butt; stroke-linejoin:miter; stroke-dasharray:none">
   <path d="M91.8000,91.8000L91.8000,520.2000"/>
   <path d="M703.8000,91.8000L703.8000,520.2000"/>
   <path d="M91.8000,145.3500L97.9200,145.3500"/>
   <path d="M703.8000,145.3500L697.6800,145.3500"/>
   <path d="M91.8000,252.4500L97.9200,252.4500"/>
   <path d="M703.8000,252.4500L697.6800,252.4500"/>
   <path d="M91.8000,359.5500L97.9200,359.5500"/>
   <path d="M703.8000,359.5500L697.6800,359.5500"/>
   <path d="M91.8000,466.6500L97.9200,466.6500"/>
   <path d="M703.8000,466.6500L697.6800,466.6500"/>
   <path d="M91.8000,91.8000L104.0400,91.8000"/>
   <path d="M703.8000,91.8000L691.5600,91.8000"/>
   <path d="M91.8000,198.9000L104.0400,198.9000"/>
   <path d="M703.8000,198.9000L691.5600,198.9000"/>
   <path d="M91.8000,306.0000L104.0400,306.0000"/>
   <path d="M703.8000,306.0000L691.5600,306.0000"/>
   <path d="M91.8000,413.1000L104.0400,413.1000"/>
   <path d="M703.8000,413.1000L691.5600,413.1000"/>
   <path d="M91.8000,520.2000L104.0400,520.2000"/>
   <path d="M703.8000,520.2000L691.5600,520.2000"/>
  </g>
  <g style="fill:#000000; fill-rule:nonzero">
   <text   style="font-family:'Times','Nimbus Roman No9 L'; font-style:normal; font-weight:normal; font-size:612.0000" transform="matrix(0.0280,0.0000,-0.0000,-0.0280,60.6800,86.3000)">200</text>
   <text   style="font-family:'Times','Nimbus Roman No9 L'; font-style:normal; font-weight:normal; font-size:612.0000" transform="matrix(0.0280,0.0000,-0.0000,-0.0280,60.6800,192.9000)">250</text>
   <text   style="font-family:'Times','Nimbus Roman No9 L'; font-style:normal; font-weight:normal; font-size:612.0000" transform="matrix(0.0280,0.0000,-0.0000,-0.0280,60.6800,300.5000)">300</text>
   <text   style="font-family:'Times','Nimbus Roman No9 L'; font-style:normal; font-weight:normal; font-size:612.0000" transform="matrix(0.0280,0.0000,-0.0000,-0.0280,60.6800,407.1000)">350</text>
   <text   style="font-family:'Times','Nimbus Roman No9 L'; font-style:normal; font-weight:normal; font-size:612.0000" transform="matrix(0.0280,0.0000,-0.0000,-0.0280,60.6800,514.7000)">400</text>
   <text   style="font-family:'Times','Nimbus Roman No9 L'; font-style:normal; font-weight:normal; font-size:612.0000" transform="matrix(0.0000,0.0280,0.0280,-0.0000,49.5600,248.5000)">Temperature (K)</text>
  </g>
  <g style="fill:none; stroke:#000000; stroke-width:  0.9180; stroke-linecap:butt; stroke-linejoin:miter; stroke-dasharray:none">
   <path d="M91.8000,91.8000L91.8000,520.2000L703.8000,520.2000L703.8000,91.8000z"/>
  </g>
  <g style="fill:#000000; fill-rule:nonzero">
   <text   style="font-family:'Times','Nimbus Roman No9 L'; font-style:normal; font-weight:normal; font-size:612.0000" transform="matrix(0.0420,0.0000,-0.0000,-0.0420,216.8000,562.9200)">Temperature during production run</text>
  </g>
 </g>
</svg>
