<?xml version="1.0" encoding="ISO-8859-1"?>
<!DOCTYPE svg PUBLIC "-//W3C//DTD SVG 1.0//EN" "http://www.w3.org/TR/2001/REC-SVG-20010904/DTD/svg10.dtd">
<!-- generated by Grace-5.1.25 -->
<svg xml:space="preserve" width="11.0000in" height="8.5000in" viewBox="0.0000 0.0000 792.0000 612.0000">
 <g transform="translate(0,612.0000) scale(1,-1)">
  <g style="fill:#FFFFFF; fill-rule:nonzero">
   <path  d="M0.0000,0.0000L0.0000,612.0000L792.0000,612.0000L792.0000,0.0000z"/>
  </g>
  <g style="fill:none; stroke:#000000; stroke-width:  0.9180; stroke-linecap:butt; stroke-linejoin:miter; stroke-dasharray:none">
   <path d="M91.8000,271.6887L93.0240,271.9312L94.2480,272.0363L95.4720,272.2245L96.6960,272.2149L97.9200,272.1820L99.1440,272.1752L100.3680,272.0548L101.5920,272.2177L102.8160,272.2460
            L104.0400,272.0255L104.0400,236.9639L105.2640,236.7861L106.4880,236.6405L107.7120,236.7161L108.9360,236.5076L110.1600,236.5791L111.3840,236.7483L112.6080,236.6252L113.8320,236.6321
            L115.0560,236.5881L116.2800,236.7393L116.2800,238.4826L117.5040,238.4560L118.7280,238.2153L119.9520,238.5222L121.1760,238.4717L122.4000,238.2523L123.6240,238.5420L124.8480,238.4645
            L126.0720,238.1765L127.2960,238.4111L128.5200,238.4053L128.5200,236.7340L129.7440,236.5658L130.9680,236.4837L132.1920,236.6906L133.4160,236.6491L134.6400,236.5716L135.8640,236.6438
            L137.0880,236.7335L138.3120,236.7242L139.5360,236.6602L140.7600,236.7334L140.7600,238.5298L141.9840,238.4161L143.2080,238.3066L144.4320,238.7355L145.6560,238.4282L146.8800,238.3944
            L148.1040,238.5040L149.3280,238.3060L150.5520,238.3089L151.7760,238.4732L153.0000,238.4194L153.0000,237.8149L154.2240,237.7709L155.4480,237.7433L156.6720,237.9193L157.8960,237.6379
            L159.1200,237.8293L160.3440,237.7246L161.5680,237.8097L162.7920,237.8965L164.0160,237.9509L165.2400,237.9493L165.2400,238.6402L166.4640,238.5086L167.6880,238.4919L168.9120,238.6103
            L170.1360,238.3955L171.3600,238.4721L172.5840,238.4892L173.8080,238.2898L175.0320,238.3695L176.2560,238.5098L177.4800,238.2909L177.4800,239.3099L178.7040,239.4079L179.9280,239.6302
            L181.1520,239.3890L182.3760,239.4807L183.6000,239.3907L184.8240,239.3899L186.0480,239.4259L187.2720,239.3035L188.4960,239.2023L189.7200,239.5186L189.7200,239.0048L190.9440,238.8144
            L192.1680,238.9072L193.3920,238.9879L194.6160,238.7979L195.8400,238.9869L197.0640,238.8070L198.2880,238.7381L199.5120,238.8929L200.7360,238.7624L201.9600,238.8580L201.9600,238.6907
            L203.1840,238.7438L204.4080,238.8089L205.6320,238.5318L206.8560,238.7443L208.0800,238.7533L209.3040,238.7173L210.5280,238.7697L211.7520,238.7935L212.9760,238.6993L214.2000,238.8068
            L214.2000,240.3769L215.4240,240.3513L216.6480,240.3237L217.8720,240.3271L219.0960,240.3412L220.3200,240.2874L221.5440,240.1780L222.7680,240.2362L223.9920,240.3340L225.2160,240.3105
            L226.4400,240.2226L226.4400,237.2567L227.6640,237.1755L228.8880,237.3588L230.1120,237.1983L231.3360,237.3071L232.5600,237.3928L233.7840,237.1782L235.0080,237.1579L236.2320,237.3315
            L237.4560,237.4002L238.6800,237.2021L238.6800,238.0327L239.9040,238.1249L241.1280,238.1210L242.3520,238.2546L243.5760,238.0614L244.8000,238.0594L246.0240,238.1052L247.2480,238.0323
            L248.4720,238.1413L249.6960,238.0870L250.9200,238.2183L250.9200,237.7096L252.1440,237.3938L253.3680,237.4184L254.5920,237.6150L255.8160,237.4374L257.0400,237.4830L258.2640,237.4336
            L259.4880,237.4020L260.7120,237.4470L261.9360,237.3885L263.1600,237.4028L263.1600,238.4530L264.3840,238.5530L265.6080,238.6272L266.8320,238.4740L268.0560,238.5705L269.2800,238.6580
            L270.5040,238.6430L271.7280,238.4370L272.9520,238.4782L274.1760,238.7184L275.4000,238.4186L275.4000,237.1375L276.6240,236.9961L277.8480,237.1834L279.0720,237.1602L280.2960,237.0145
            L281.5200,237.2444L282.7440,237.0812L283.9680,237.1037L285.1920,237.1474L286.4160,237.3616L287.6400,237.1684L287.6400,238.2287L288.8640,238.2394L290.0880,238.2381L291.3120,238.1549
            L292.5360,238.3044L293.7600,238.0712L294.9840,237.9782L296.2080,238.0968L297.4320,238.0135L298.6560,238.3300L299.8800,238.1562L299.8800,239.0168L301.1040,238.7813L302.3280,239.0446
            L303.5520,239.2705L304.7760,239.1088L306.0000,238.9966L307.2240,238.9901L308.4480,238.8697L309.6720,239.0104L310.8960,239.0949L312.1200,239.0875L312.1200,237.6464L313.3440,237.5292
            L314.5680,237.5262L315.7920,237.6782L317.0160,237.3558L318.2400,237.6449L319.4640,237.4361L320.6880,237.3291L321.9120,237.6189L323.1360,237.6811L324.3600,237.4951L324.3600,236.8087
            L325.5840,236.7597L326.8080,236.8066L328.0320,236.8890L329.2560,236.7386L330.4800,237.0477L331.7040,236.8827L332.9280,236.8909L334.1520,236.9633L335.3760,236.9217L336.6000,236.8973
            L336.6000,238.6794L337.8240,238.5205L339.0480,238.6158L340.2720,238.5097L341.4960,238.5708L342.7200,238.5735L343.9440,238.6249L345.1680,238.4649L346.3920,238.6332L347.6160,238.5802
            L348.8400,238.5871L348.8400,237.7718L350.0640,237.7870L351.2880,237.9570L352.5120,237.6877L353.7360,237.7984L354.9600,237.7716L356.1840,237.7822L357.4080,237.7099L358.6320,237.6156
            L359.8560,237.7664L361.0800,237.7044L361.0800,238.4915L362.3040,238.6904L363.5280,238.4700L364.7520,238.5846L365.9760,238.5968L367.2000,238.4633L368.4240,238.5352L369.6480,238.4806
            L370.8720,238.4555L372.0960,238.6157L373.3200,238.5171L373.3200,237.4501L374.5440,237.3180L375.7680,237.3230L376.9920,237.5631L378.2160,237.5285L379.4400,237.5004L380.6640,237.3562
            L381.8880,237.3926L383.1120,237.3584L384.3360,237.5469L385.5600,237.3778L385.5600,240.1057L386.7840,239.9864L388.0080,240.1239L389.2320,240.2745L390.4560,240.1225L391.6800,240.0971
            L392.9040,240.1830L394.1280,240.0910L395.3520,240.3051L396.5760,240.2755L397.8000,240.0844L397.8000,235.8385L399.0240,235.9066L400.2480,235.7811L401.4720,235.8122L402.6960,235.8992
            L403.9200,235.7949L405.1440,235.7410L406.3680,235.7883L407.5920,235.8505L408.8160,235.8473L410.0400,235.9643L410.0400,238.9591L411.2640,238.8966L412.4880,238.9159L413.7120,238.8847
            L414.9360,238.7135L416.1600,238.8843L417.3840,238.9309L418.6080,238.9385L419.8320,238.7896L421.0560,238.7743L422.2800,238.8845L422.2800,237.9033L423.5040,237.8289L424.7280,237.8352
            L425.9520,237.7010L427.1760,237.9763L428.4000,238.0238L429.6240,237.8186L430.8480,237.8668L432.0720,237.8524L433.2960,237.7682L434.5200,237.7390L434.5200,239.1711L435.7440,239.2324
            L436.9680,239.2177L438.1920,239.2130L439.4160,239.1993L440.6400,239.1990L441.8640,239.2736L443.0880,239.3730L444.3120,239.3501L445.5360,239.3731L446.7600,239.3320L446.7600,238.0337
            L447.9840,237.9512L449.2080,237.8112L450.4320,237.8251L451.6560,237.9121L452.8800,237.8740L454.1040,237.9146L455.3280,237.9463L456.5520,238.0313L457.7760,238.0119L459.0000,238.0183
            L459.0000,239.4826L460.2240,239.3507L461.4480,239.4533L462.6720,239.2949L463.8960,239.3927L465.1200,239.5482L466.3440,239.3242L467.5680,239.4756L468.7920,239.6089L470.0160,239.4814
            L471.2400,239.3644L471.2400,237.0934L472.4640,237.1817L473.6880,237.0139L474.9120,237.0559L476.1360,237.0113L477.3600,236.9477L478.5840,237.1004L479.8080,237.2739L481.0320,237.1415
            L482.2560,237.0568L483.4800,237.0775L483.4800,236.8625L484.7040,236.8855L485.9280,236.8639L487.1520,236.9506L488.3760,236.7465L489.6000,236.7930L490.8240,237.0519L492.0480,236.8992
            L493.2720,236.7801L494.4960,236.8610L495.7200,236.9673L495.7200,238.1200L496.9440,238.1096L498.1680,238.0150L499.3920,237.9647L500.6160,237.9151L501.8400,237.9965L503.0640,237.9116
            L504.2880,238.0038L505.5120,238.0994L506.7360,238.0056L507.9600,237.8915L507.9600,237.3123L509.1840,237.4197L510.4080,237.4569L511.6320,237.5422L512.8560,237.4328L514.0800,237.4343
            L515.3040,237.3885L516.5280,237.4653L517.7520,237.4777L518.9760,237.4567L520.2000,237.5210L520.2000,239.5306L521.4240,239.5055L522.6480,239.4210L523.8720,239.3008L525.0960,239.4330
            L526.3200,239.4359L527.5440,239.5276L528.7680,239.5679L529.9920,239.3988L531.2160,239.3940L532.4400,239.4731L532.4400,237.9857L533.6640,237.9144L534.8880,237.9728L536.1120,238.0831
            L537.3360,237.8341L538.5600,237.8954L539.7840,237.9671L541.0080,237.8816L542.2320,238.0843L543.4560,237.9178L544.6800,237.9491L544.6800,238.7616L545.9040,238.8439L547.1280,238.7789
            L548.3520,238.8383L549.5760,238.8176L550.8000,238.9452L552.0240,238.7177L553.2480,238.8260L554.4720,238.8121L555.6960,238.7204L556.9200,238.8060L556.9200,237.8971L558.1440,237.8909
            L559.3680,237.8315L560.5920,237.8501L561.8160,237.7920L563.0400,237.8107L564.2640,237.9674L565.4880,237.7583L566.7120,237.9802L567.9360,238.1053L569.1600,237.7700L569.1600,236.2716
            L570.3840,236.3288L571.6080,236.3468L572.8320,236.2322L574.0560,236.3311L575.2800,236.4311L576.5040,236.4571L577.7280,236.3556L578.9520,236.3151L580.1760,236.4215L581.4000,236.1677
            L581.4000,237.2068L582.6240,237.2868L583.8480,237.3371L585.0720,237.4045L586.2960,237.2466L587.5200,237.2968L588.7440,237.3023L589.9680,237.3737L591.1920,237.4758L592.4160,237.3719
            L593.6400,237.2550L593.6400,234.2876L594.8640,234.3689L596.0880,234.3642L597.3120,234.3561L598.5360,234.4582L599.7600,234.4594L600.9840,234.3168L602.2080,234.0678L603.4320,234.4012
            L604.6560,234.4268L605.8800,234.2984L605.8800,237.2223L607.1040,237.2825L608.3280,237.3352L609.5520,237.1836L610.7760,237.1147L612.0000,237.1986L613.2240,237.1676L614.4480,237.2561
            L615.6720,237.3510L616.8960,237.2704L618.1200,237.2364L618.1200,237.2600L619.3440,237.2608L620.5680,237.1574L621.7920,237.2957L623.0160,237.1584L624.2400,237.2201L625.4640,237.2730
            L626.6880,237.3262L627.9120,237.0319L629.1360,237.1590L630.3600,237.2757L630.3600,236.8551L631.5840,236.8095L632.8080,236.9036L634.0320,236.8276L635.2560,236.8487L636.4800,236.8218
            L637.7040,236.7227L638.9280,236.8355L640.1520,236.7426L641.3760,236.8528L642.6000,236.8793L642.6000,238.3544L643.8240,238.1634L645.0480,238.2247L646.2720,238.1272L647.4960,238.1831
            L648.7200,238.1969L649.9440,238.3732L651.1680,238.1982L652.3920,238.1925L653.6160,238.2213L654.8400,238.1907L654.8400,237.9941L656.0640,237.8920L657.2880,237.9900L658.5120,238.0766
            L659.7360,238.1340L660.9600,237.9062L662.1840,238.1392L663.4080,238.0613L664.6320,237.9710L665.8560,237.8869L667.0800,237.8694L667.0800,238.4355L668.3040,238.7484L669.5280,238.5304
            L670.7520,238.6704L671.9760,238.6321L673.2000,238.5279L674.4240,238.8011L675.6480,238.6339L676.8720,238.5286L678.0960,238.5473L679.3200,238.5860L679.3200,236.1878L680.5440,236.0143
            L681.7680,236.1441L682.9920,236.0900L684.2160,236.0249L685.4400,236.1256L686.6640,236.1329L687.8880,235.9771L689.1120,236.0760L690.3360,236.2050L691.5600,236.1103L691.5600,238.1250
            L692.7840,238.0279L694.0080,238.1671L695.2320,238.2039L696.4560,238.1283L697.6800,238.1991L698.9040,238.2193L700.1280,238.1457L701.3520,238.3431L702.5760,238.0738L703.8000,238.1507"/>
  </g>
  <g style="fill:none; stroke:#FF0000; stroke-width:  0.9180; stroke-linecap:butt; stroke-linejoin:miter; stroke-dasharray:none">
   <path d="M91.8000,357.0370L93.0240,345.9797L94.2480,341.9534L95.4720,339.0492L96.6960,340.5526L97.9200,338.6027L99.1440,343.8112L100.3680,342.5365L101.5920,341.3642L102.8160,338.1894
            L104.0400,343.8437L104.0400,308.7821L105.2640,321.9058L106.4880,321.8643L107.7120,321.3120L108.9360,321.6550L110.1600,322.3207L111.3840,318.6459L112.6080,326.1842L113.8320,321.7711
            L115.0560,324.6985L116.2800,322.1716L116.2800,323.9150L117.5040,323.7716L118.7280,327.5207L119.9520,323.1866L121.1760,322.7053L122.4000,323.7205L123.6240,322.1182L124.8480,326.3464
            L126.0720,325.6082L127.2960,321.4008L128.5200,322.7089L128.5200,321.0375L129.7440,325.3735L130.9680,324.7765L132.1920,319.9059L133.4160,318.8623L134.6400,322.6483L135.8640,320.5236
            L137.0880,323.0113L138.3120,324.3664L139.5360,325.9960L140.7600,322.0602L140.7600,323.8566L141.9840,324.4610L143.2080,327.9475L144.4320,320.1995L145.6560,321.4047L146.8800,325.2721
            L148.1040,326.6640L149.3280,325.0368L150.5520,321.7857L151.7760,322.3104L153.0000,327.7458L153.0000,327.1413L154.2240,325.5813L155.4480,327.0807L156.6720,322.1579L157.8960,326.0961
            L159.1200,322.7444L160.3440,323.6469L161.5680,324.9439L162.7920,323.8427L164.0160,321.3479L165.2400,318.7479L165.2400,319.4388L166.4640,321.5979L167.6880,323.2075L168.9120,321.5617
            L170.1360,323.0337L171.3600,322.6125L172.5840,326.8760L173.8080,322.1045L175.0320,319.7848L176.2560,324.7501L177.4800,321.8653L177.4800,322.8842L178.7040,327.5250L179.9280,318.5820
            L181.1520,328.3739L182.3760,323.5269L183.6000,324.3015L184.8240,330.1671L186.0480,326.0625L187.2720,328.7185L188.4960,326.1496L189.7200,322.4321L189.7200,321.9183L190.9440,324.5700
            L192.1680,325.9807L193.3920,322.9172L194.6160,324.9666L195.8400,323.2492L197.0640,327.4499L198.2880,322.1161L199.5120,326.4169L200.7360,328.0049L201.9600,324.9541L201.9600,324.7867
            L203.1840,322.1616L204.4080,320.6513L205.6320,329.2444L206.8560,321.8028L208.0800,323.5494L209.3040,322.2471L210.5280,324.5588L211.7520,323.1890L212.9760,321.3884L214.2000,324.0838
            L214.2000,325.6539L215.4240,321.2407L216.6480,323.5853L217.8720,329.5747L219.0960,320.4437L220.3200,325.3942L221.5440,325.4573L222.7680,325.8659L223.9920,325.8468L225.2160,324.4462
            L226.4400,323.5895L226.4400,320.6236L227.6640,324.4160L228.8880,323.0878L230.1120,326.7492L231.3360,322.7644L232.5600,321.6228L233.7840,320.6440L235.0080,324.1855L236.2320,326.6229
            L237.4560,323.6107L238.6800,325.3599L238.6800,326.1905L239.9040,326.2629L241.1280,325.5549L242.3520,320.2619L243.5760,327.5328L244.8000,322.0465L246.0240,324.5110L247.2480,324.5767
            L248.4720,321.7203L249.6960,322.2653L250.9200,318.1229L250.9200,317.6141L252.1440,325.4660L253.3680,323.9822L254.5920,320.2296L255.8160,327.3059L257.0400,325.6084L258.2640,323.4211
            L259.4880,324.9471L260.7120,322.3578L261.9360,330.8479L263.1600,321.9708L263.1600,323.0211L264.3840,326.0270L265.6080,326.0069L266.8320,326.2388L268.0560,323.0046L269.2800,321.7089
            L270.5040,323.3013L271.7280,323.1056L272.9520,326.7919L274.1760,321.5151L275.4000,325.5245L275.4000,324.2434L276.6240,324.7670L277.8480,325.5455L279.0720,322.0738L280.2960,322.7605
            L281.5200,324.7052L282.7440,324.4592L283.9680,322.9372L285.1920,325.1434L286.4160,322.9009L287.6400,324.8379L287.6400,325.8981L288.8640,324.2327L290.0880,322.6155L291.3120,325.3669
            L292.5360,321.4567L293.7600,325.9353L294.9840,325.6308L296.2080,324.3502L297.4320,328.0343L298.6560,319.8911L299.8800,327.2094L299.8800,328.0699L301.1040,330.0159L302.3280,327.0533
            L303.5520,322.5036L304.7760,325.3784L306.0000,323.8341L307.2240,323.8657L308.4480,326.8108L309.6720,325.4143L310.8960,321.0513L312.1200,326.2130L312.1200,324.7718L313.3440,324.4912
            L314.5680,325.6844L315.7920,319.2389L317.0160,326.7140L318.2400,320.0501L319.4640,324.5884L320.6880,328.1078L321.9120,320.4318L323.1360,324.6104L324.3600,324.5613L324.3600,323.8750
            L325.5840,323.1268L326.8080,322.3475L328.0320,322.2779L329.2560,325.4507L330.4800,319.9829L331.7040,322.9988L332.9280,322.5721L334.1520,322.0874L335.3760,321.5501L336.6000,319.5976
            L336.6000,321.3797L337.8240,325.3156L339.0480,324.7322L340.2720,329.2104L341.4960,323.3015L342.7200,322.5085L343.9440,325.8614L345.1680,322.0365L346.3920,325.4313L347.6160,327.0335
            L348.8400,323.4691L348.8400,322.6539L350.0640,322.2425L351.2880,321.5282L352.5120,327.1104L353.7360,324.1518L354.9600,323.4243L356.1840,326.0095L357.4080,326.9757L358.6320,332.0407
            L359.8560,324.2625L361.0800,325.0238L361.0800,325.8108L362.3040,325.0793L363.5280,325.9681L364.7520,322.1641L365.9760,325.2537L367.2000,325.7087L368.4240,322.8410L369.6480,322.2883
            L370.8720,326.5871L372.0960,322.2073L373.3200,327.2465L373.3200,326.1795L374.5440,323.2436L375.7680,324.0999L376.9920,321.3044L378.2160,322.5955L379.4400,321.2011L380.6640,320.4562
            L381.8880,324.4447L383.1120,325.5371L384.3360,318.6728L385.5600,324.2592L385.5600,326.9871L386.7840,325.0376L388.0080,324.7207L389.2320,323.6807L390.4560,327.2828L391.6800,325.2493
            L392.9040,324.0923L394.1280,328.1373L395.3520,327.5189L396.5760,321.1839L397.8000,321.8076L397.8000,317.5618L399.0240,319.9522L400.2480,320.9459L401.4720,321.5163L402.6960,319.5434
            L403.9200,322.9894L405.1440,322.2473L406.3680,324.1849L407.5920,320.5069L408.8160,320.3391L410.0400,321.4321L410.0400,324.4269L411.2640,327.7428L412.4880,318.2929L413.7120,328.1491
            L414.9360,330.1124L416.1600,322.5998L417.3840,322.5626L418.6080,319.5723L419.8320,327.0255L421.0560,320.9501L422.2800,325.7269L422.2800,324.7457L423.5040,321.9606L424.7280,324.7268
            L425.9520,325.7492L427.1760,322.9181L428.4000,319.7566L429.6240,324.3567L430.8480,324.8618L432.0720,327.7778L433.2960,325.0644L434.5200,325.5402L434.5200,326.9723L435.7440,330.6916
            L436.9680,322.2939L438.1920,326.7852L439.4160,324.2879L440.6400,324.4351L441.8640,322.2721L443.0880,322.4720L444.3120,320.0725L445.5360,318.7144L446.7600,323.5711L446.7600,322.2729
            L447.9840,322.2241L449.2080,326.4425L450.4320,324.7767L451.6560,323.7303L452.8800,322.3187L454.1040,325.1458L455.3280,319.9428L456.5520,322.7325L457.7760,319.8144L459.0000,319.0923
            L459.0000,320.5565L460.2240,323.9525L461.4480,324.9746L462.6720,329.7278L463.8960,326.8411L465.1200,324.3248L466.3440,325.8391L467.5680,326.6846L468.7920,321.4148L470.0160,323.0654
            L471.2400,324.6282L471.2400,322.3572L472.4640,325.0711L473.6880,326.6947L474.9120,323.6548L476.1360,325.5899L477.3600,324.8826L478.5840,322.1964L479.8080,321.0937L481.0320,322.2909
            L482.2560,324.8313L483.4800,328.0547L483.4800,327.8398L484.7040,323.8910L485.9280,325.9455L487.1520,319.8455L488.3760,326.4401L489.6000,325.9993L490.8240,315.5232L492.0480,321.7720
            L493.2720,322.8901L494.4960,323.3927L495.7200,322.0998L495.7200,323.2525L496.9440,323.3462L498.1680,320.9799L499.3920,328.0642L500.6160,327.2197L501.8400,322.8632L503.0640,326.9696
            L504.2880,322.3874L505.5120,324.7082L506.7360,326.1983L507.9600,324.8933L507.9600,324.3141L509.1840,322.3422L510.4080,323.2669L511.6320,323.8400L512.8560,321.5842L514.0800,323.5271
            L515.3040,325.0012L516.5280,324.0674L517.7520,326.2052L518.9760,322.9296L520.2000,324.0651L520.2000,326.0747L521.4240,325.7864L522.6480,331.7860L523.8720,326.0840L525.0960,324.8019
            L526.3200,328.5207L527.5440,325.6932L528.7680,323.8387L529.9920,327.7188L531.2160,325.2747L532.4400,327.0122L532.4400,325.5249L533.6640,326.5539L534.8880,322.6562L536.1120,322.2046
            L537.3360,324.7104L538.5600,322.3927L539.7840,324.1668L541.0080,325.3146L542.2320,320.6110L543.4560,322.0107L544.6800,321.9053L544.6800,322.7178L545.9040,318.5055L547.1280,324.6049
            L548.3520,321.7648L549.5760,329.3138L550.8000,322.9126L552.0240,321.6652L553.2480,327.4716L554.4720,321.9063L555.6960,325.0958L556.9200,321.2449L556.9200,320.3359L558.1440,325.3031
            L559.3680,321.9829L560.5920,325.4830L561.8160,326.0070L563.0400,325.4692L564.2640,321.6513L565.4880,325.9902L566.7120,324.4235L567.9360,318.0738L569.1600,329.8162L569.1600,328.3179
            L570.3840,322.3090L571.6080,325.7150L572.8320,325.5937L574.0560,325.2325L575.2800,323.3130L576.5040,319.7196L577.7280,321.0362L578.9520,321.6393L580.1760,317.5148L581.4000,324.6608
            L581.4000,325.7000L582.6240,327.0643L583.8480,323.3101L585.0720,325.3037L586.2960,326.2376L587.5200,326.2548L588.7440,325.2767L589.9680,323.0883L591.1920,319.5615L592.4160,322.3390
            L593.6400,323.3974L593.6400,320.4300L594.8640,321.6293L596.0880,321.6534L597.3120,325.4145L598.5360,320.1808L599.7600,322.8983L600.9840,322.7089L602.2080,327.9595L603.4320,325.9057
            L604.6560,327.9463L605.8800,323.6340L605.8800,326.5579L607.1040,325.2250L608.3280,323.8219L609.5520,323.3953L610.7760,329.7395L612.0000,325.8717L613.2240,325.4866L614.4480,327.5395
            L615.6720,318.3997L616.8960,323.6454L618.1200,322.2899L618.1200,322.3135L619.3440,323.1170L620.5680,325.9899L621.7920,326.1705L623.0160,329.4025L624.2400,326.6390L625.4640,322.0222
            L626.6880,324.2022L627.9120,330.2304L629.1360,322.2001L630.3600,322.7417L630.3600,322.3211L631.5840,320.3147L632.8080,325.8084L634.0320,325.9736L635.2560,325.2722L636.4800,324.8325
            L637.7040,325.0482L638.9280,321.5326L640.1520,326.2812L641.3760,325.8652L642.6000,323.6628L642.6000,325.1380L643.8240,324.9672L645.0480,323.3288L646.2720,326.8055L647.4960,328.5795
            L648.7200,327.4685L649.9440,319.1730L651.1680,325.3145L652.3920,322.1049L653.6160,323.7659L654.8400,325.7204L654.8400,325.5237L656.0640,326.0267L657.2880,327.0569L658.5120,324.2100
            L659.7360,321.3504L660.9600,324.6799L662.1840,320.5505L663.4080,326.9974L664.6320,324.1207L665.8560,324.0876L667.0800,327.7996L667.0800,328.3657L668.3040,319.0832L669.5280,319.5977
            L670.7520,322.7759L671.9760,323.8573L673.2000,323.6217L674.4240,323.7986L675.6480,324.6285L676.8720,323.7628L678.0960,327.1251L679.3200,323.5576L679.3200,321.1594L680.5440,322.4171
            L681.7680,324.0798L682.9920,324.3103L684.2160,327.7707L685.4400,328.1425L686.6640,322.3073L687.8880,326.2722L689.1120,324.3330L690.3360,322.7355L691.5600,322.8730L691.5600,324.8877
            L692.7840,322.4423L694.0080,324.8982L695.2320,321.5190L696.4560,322.4003L697.6800,322.5300L698.9040,326.9339L700.1280,324.3594L701.3520,317.9186L702.5760,322.2186L703.8000,322.7199"/>
  </g>
  <g style="fill:none; stroke:#00FF00; stroke-width:  0.9180; stroke-linecap:butt; stroke-linejoin:miter; stroke-dasharray:none">
   <path d="M91.8000,105.3132L93.0240,116.6131L94.2480,120.7444L95.4720,123.8369L96.6960,122.3238L97.9200,124.2408L99.1440,119.0255L100.3680,120.1798L101.5920,121.5151L102.8160,124.7182
            L104.0400,118.8433L104.0400,118.8433L105.2640,105.5418L106.4880,105.4378L107.7120,106.0656L108.9360,105.5141L110.1600,104.9200L111.3840,108.7639L112.6080,101.1025L113.8320,105.5225
            L115.0560,102.5512L116.2800,105.2292L116.2800,105.2292L117.5040,105.3459L118.7280,101.3561L119.9520,105.9971L121.1760,106.4280L122.4000,105.1933L123.6240,107.0853L124.8480,102.7796
            L126.0720,103.2298L127.2960,107.6719L128.5200,106.3580L128.5200,106.3580L129.7440,101.8538L130.9680,102.3688L132.1920,107.4463L133.4160,108.4483L134.6400,104.5848L135.8640,106.7817
            L137.0880,104.3838L138.3120,103.0194L139.5360,101.3257L140.7600,105.3347L140.7600,105.3347L141.9840,104.6167L143.2080,101.0206L144.4320,109.1975L145.6560,107.6850L146.8800,103.7838
            L148.1040,102.5016L149.3280,103.9307L150.5520,107.1847L151.7760,106.8243L153.0000,101.3351L153.0000,101.3351L154.2240,102.8512L155.4480,101.3242L156.6720,106.4229L157.8960,102.2033
            L159.1200,105.7465L160.3440,104.7393L161.5680,103.5273L162.7920,104.7153L164.0160,107.2646L165.2400,109.8629L165.2400,109.8629L166.4640,107.5722L167.6880,105.9459L168.9120,107.7101
            L170.1360,106.0233L171.3600,106.5211L172.5840,102.2748L173.8080,106.8469L175.0320,109.2462L176.2560,104.4212L177.4800,107.0872L177.4800,107.0872L178.7040,102.5444L179.9280,111.7098
            L181.1520,101.6767L182.3760,106.6154L183.6000,105.7508L184.8240,99.8843L186.0480,104.0250L187.2720,101.2466L188.4960,103.7143L189.7200,107.7480L189.7200,107.7480L190.9440,104.9060
            L192.1680,103.5881L193.3920,106.7323L194.6160,104.4928L195.8400,106.3993L197.0640,102.0187L198.2880,107.2835L199.5120,103.1375L200.7360,101.4191L201.9600,104.5655L201.9600,104.5655
            L203.1840,107.2437L204.4080,108.8191L205.6320,99.9489L206.8560,107.6030L208.0800,105.8654L209.3040,107.1318L210.5280,104.8725L211.7520,106.2660L212.9760,107.9724L214.2000,105.3846
            L214.2000,105.3846L215.4240,109.7721L216.6480,107.3999L217.8720,101.4139L219.0960,110.5591L220.3200,105.5547L221.5440,105.3822L222.7680,105.0318L223.9920,105.1487L225.2160,106.5258
            L226.4400,107.2947L226.4400,107.2947L227.6640,103.4210L228.8880,104.9326L230.1120,101.1107L231.3360,105.2043L232.5600,106.4316L233.7840,107.1957L235.0080,103.6339L236.2320,101.3702
            L237.4560,104.4510L238.6800,102.5038L238.6800,102.5038L239.9040,102.5235L241.1280,103.2276L242.3520,108.6542L243.5760,101.1901L244.8000,106.6744L246.0240,104.2557L247.2480,104.1171
            L248.4720,107.0825L249.6960,106.4833L250.9200,110.7570L250.9200,110.7570L252.1440,102.5893L253.3680,104.0977L254.5920,108.0469L255.8160,100.7930L257.0400,102.5361L258.2640,104.6740
            L259.4880,103.1164L260.7120,105.7507L261.9360,97.2021L263.1600,106.0935L263.1600,106.0935L264.3840,103.1875L265.6080,103.2818L266.8320,102.8968L268.0560,106.2274L269.2800,107.6107
            L270.5040,106.0032L271.7280,105.9930L272.9520,102.3479L274.1760,107.8648L275.4000,103.5557L275.4000,103.5557L276.6240,102.8907L277.8480,102.2994L279.0720,105.7479L280.2960,104.9155
            L281.5200,103.2007L282.7440,103.2835L283.9680,104.8280L285.1920,102.6655L286.4160,105.1223L287.6400,102.9921L287.6400,102.9921L288.8640,104.6682L290.0880,106.2842L291.3120,103.4496
            L292.5360,107.5092L293.7600,102.7974L294.9840,103.0089L296.2080,104.4081L297.4320,100.6407L298.6560,109.1003L299.8800,101.6084L299.8800,101.6084L301.1040,99.4269L302.3280,102.6528
            L303.5520,107.4285L304.7760,104.3919L306.0000,105.8240L307.2240,105.7859L308.4480,102.7205L309.6720,104.2576L310.8960,108.7051L312.1200,103.5361L312.1200,103.5361L313.3440,103.6996
            L314.5680,102.5034L315.7920,109.1008L317.0160,101.3033L318.2400,108.2563L319.4640,103.5093L320.6880,99.8828L321.9120,107.8486L323.1360,103.7323L324.3600,103.5953L324.3600,103.5953
            L325.5840,104.2945L326.8080,105.1206L328.0320,105.2726L329.2560,101.9494L330.4800,107.7263L331.7040,104.5454L332.9280,104.9803L334.1520,105.5374L335.3760,106.0332L336.6000,107.9612
            L336.6000,107.9612L337.8240,103.8664L339.0480,104.5451L340.2720,99.9609L341.4960,105.9309L342.7200,106.7266L343.9440,103.4250L345.1680,107.0900L346.3920,103.8635L347.6160,102.2082
            L348.8400,105.7795L348.8400,105.7795L350.0640,106.2060L351.2880,107.0903L352.5120,101.2389L353.7360,104.3082L354.9600,105.0089L356.1840,102.4342L357.4080,101.3957L358.6320,96.2365
            L359.8560,104.1654L361.0800,103.3422L361.0800,103.3422L362.3040,104.2726L363.5280,103.1635L364.7520,107.0820L365.9760,104.0046L367.2000,103.4162L368.4240,106.3557L369.6480,106.8538
            L370.8720,102.5299L372.0960,107.0700L373.3200,101.9321L373.3200,101.9321L374.5440,104.7359L375.7680,103.8847L376.9920,106.9202L378.2160,105.5945L379.4400,106.9608L380.6640,107.5616
            L381.8880,103.6094L383.1120,102.4828L384.3360,109.5356L385.5600,103.7802L385.5600,103.7802L386.7840,105.6104L388.0080,106.0647L389.2320,107.2554L390.4560,103.5013L391.6800,105.5093
            L392.9040,106.7523L394.1280,102.6152L395.3520,103.4477L396.5760,109.7532L397.8000,108.9383L397.8000,108.9383L399.0240,106.6159L400.2480,105.4968L401.4720,104.9575L402.6960,107.0174
            L403.9200,103.4670L405.1440,104.1553L406.3680,102.2650L407.5920,106.0052L408.8160,106.1697L410.0400,105.1937L410.0400,105.1937L411.2640,101.8153L412.4880,111.2846L413.7120,101.3971
            L414.9360,99.2626L416.1600,106.9461L417.3840,107.0299L418.6080,110.0277L419.8320,102.4256L421.0560,108.4858L422.2800,103.8191L422.2800,103.8191L423.5040,106.5299L424.7280,103.7699
            L425.9520,102.6134L427.1760,105.7198L428.4000,108.9287L429.6240,104.1235L430.8480,103.6665L432.0720,100.7362L433.2960,103.3654L434.5200,102.8604L434.5200,102.8604L435.7440,99.2024
            L436.9680,107.5854L438.1920,103.0893L439.4160,105.5729L440.6400,105.4254L441.8640,107.6630L443.0880,107.5625L444.3120,109.9392L445.5360,111.3203L446.7600,106.4224L446.7600,106.4224
            L447.9840,106.3886L449.2080,102.0302L450.4320,103.7099L451.6560,104.8434L452.8800,106.2168L454.1040,103.4303L455.3280,108.6651L456.5520,105.9603L457.7760,108.8590L459.0000,109.5876
            L459.0000,109.5876L460.2240,106.0597L461.4480,105.1402L462.6720,100.2286L463.8960,103.2132L465.1200,105.8849L466.3440,104.1466L467.5680,103.4525L468.7920,108.8556L470.0160,107.0775
            L471.2400,105.3978L471.2400,105.3978L472.4640,102.7721L473.6880,100.9807L474.9120,104.0626L476.1360,102.0829L477.3600,102.7267L478.5840,105.5656L479.8080,106.8417L481.0320,105.5121
            L482.2560,102.8871L483.4800,99.6843L483.4800,99.6843L484.7040,103.6561L485.9280,101.5799L487.1520,107.7666L488.3760,100.9679L489.6000,101.4552L490.8240,112.1902L492.0480,105.7887
            L493.2720,104.5515L494.4960,104.1298L495.7200,105.5290L495.7200,105.5290L496.9440,105.4249L498.1680,107.6966L499.3920,100.5620L500.6160,101.3569L501.8400,105.7948L503.0640,101.6035
            L504.2880,106.2779L505.5120,104.0527L506.7360,102.4688L507.9600,103.6597L507.9600,103.6597L509.1840,105.7391L510.4080,104.8516L511.6320,104.3638L512.8560,106.5102L514.0800,104.5688
            L515.3040,103.0489L516.5280,104.0594L517.7520,101.9340L518.9760,105.1886L520.2000,104.1174L520.2000,104.1174L521.4240,104.3806L522.6480,98.2965L523.8720,103.8783L525.0960,105.2926
            L526.3200,101.5768L527.5440,104.4959L528.7680,106.3908L529.9920,102.3415L531.2160,104.7809L532.4400,103.1224L532.4400,103.1224L533.6640,102.0221L534.8880,105.9781L536.1120,106.5400
            L537.3360,103.7852L538.5600,106.1643L539.7840,104.4618L541.0080,103.2285L542.2320,108.1349L543.4560,106.5686L544.6800,106.7054L544.6800,106.7054L545.9040,111.0000L547.1280,104.8355
            L548.3520,107.7351L549.5760,100.1653L550.8000,106.6942L552.0240,107.7140L553.2480,102.0159L554.4720,107.5673L555.6960,104.2861L556.9200,108.2227L556.9200,108.2227L558.1440,103.2493
            L559.3680,106.5102L560.5920,103.0286L561.8160,102.4466L563.0400,103.0030L564.2640,106.9776L565.4880,102.4297L566.7120,104.2182L567.9360,110.6931L569.1600,98.6153L569.1600,98.6153
            L570.3840,104.6814L571.6080,101.2934L572.8320,101.3001L574.0560,101.7602L575.2800,103.7797L576.5040,107.3990L577.7280,105.9809L578.9520,105.3374L580.1760,109.5682L581.4000,102.1684
            L581.4000,102.1684L582.6240,100.8841L583.8480,104.6886L585.0720,102.7624L586.2960,101.6705L587.5200,101.7036L588.7440,102.6871L589.9680,104.9469L591.1920,108.5759L592.4160,105.6945
            L593.6400,104.5191L593.6400,104.5191L594.8640,103.4011L596.0880,103.3724L597.3120,99.6031L598.5360,104.9389L599.7600,102.2226L600.9840,102.2694L602.2080,96.7699L603.4320,99.1570
            L604.6560,97.1420L605.8800,101.3259L605.8800,101.3259L607.1040,102.7190L608.3280,104.1749L609.5520,104.4498L610.7760,98.0367L612.0000,101.9884L613.2240,102.3425L614.4480,100.3782
            L615.6720,109.6129L616.8960,104.2865L618.1200,105.6080L618.1200,105.6080L619.3440,104.8054L620.5680,101.8290L621.7920,101.7868L623.0160,98.4175L624.2400,101.2427L625.4640,105.9123
            L626.6880,103.7855L627.9120,97.4630L629.1360,105.6204L630.3600,105.1956L630.3600,105.1956L631.5840,107.1564L632.8080,101.7568L634.0320,101.5155L635.2560,102.2380L636.4800,102.6508
            L637.7040,102.3361L638.9280,105.9644L640.1520,101.1229L641.3760,101.6491L642.6000,103.8780L642.6000,103.8780L643.8240,103.8577L645.0480,105.5574L646.2720,101.9833L647.4960,100.2651
            L648.7200,101.3900L649.9440,109.8618L651.1680,103.5452L652.3920,106.7491L653.6160,105.1169L654.8400,103.1319L654.8400,103.1319L656.0640,102.5269L657.2880,101.5947L658.5120,104.5281
            L659.7360,107.4451L660.9600,103.8878L662.1840,108.2503L663.4080,101.7254L664.6320,104.5119L665.8560,104.4608L667.0800,100.7314L667.0800,100.7314L668.3040,110.3267L669.5280,109.5942
            L670.7520,106.5560L671.9760,105.4364L673.2000,105.5678L674.4240,105.6640L675.6480,104.6669L676.8720,105.4273L678.0960,102.0838L679.3200,105.6900L679.3200,105.6900L680.5440,104.2588
            L681.7680,102.7258L682.9920,102.4413L684.2160,98.9158L685.4400,98.6446L686.6640,104.4872L687.8880,100.3665L689.1120,102.4045L690.3360,104.1311L691.5600,103.8988L691.5600,103.8988
            L692.7840,106.2471L694.0080,103.9304L695.2320,107.3464L696.4560,106.3895L697.6800,106.3307L698.9040,101.9470L700.1280,104.4478L701.3520,111.0861L702.5760,106.5167L703.8000,106.0924"/>
  </g>
  <g style="fill:none; stroke:#000000; stroke-width:  0.9180; stroke-linecap:butt; stroke-linejoin:miter; stroke-dasharray:none">
   <path d="M91.8000,91.8000L703.8000,91.8000"/>
   <path d="M91.8000,520.2000L703.8000,520.2000"/>
   <path d="M153.0000,91.8000L153.0000,97.9200"/>
   <path d="M153.0000,520.2000L153.0000,514.0800"/>
   <path d="M275.4000,91.8000L275.4000,97.9200"/>
   <path d="M275.4000,520.2000L275.4000,514.0800"/>
   <path d="M397.8000,91.8000L397.8000,97.9200"/>
   <path d="M397.8000,520.2000L397.8000,514.0800"/>
   <path d="M520.2000,91.8000L520.2000,97.9200"/>
   <path d="M520.2000,520.2000L520.2000,514.0800"/>
   <path d="M642.6000,91.8000L642.6000,97.9200"/>
   <path d="M642.6000,520.2000L642.6000,514.0800"/>
   <path d="M91.8000,91.8000L91.8000,104.0400"/>
   <path d="M91.8000,520.2000L91.8000,507.9600"/>
   <path d="M214.2000,91.8000L214.2000,104.0400"/>
   <path d="M214.2000,520.2000L214.2000,507.9600"/>
   <path d="M336.6000,91.8000L336.6000,104.0400"/>
   <path d="M336.6000,520.2000L336.6000,507.9600"/>
   <path d="M459.0000,91.8000L459.0000,104.0400"/>
   <path d="M459.0000,520.2000L459.0000,507.9600"/>
   <path d="M581.4000,91.8000L581.4000,104.0400"/>
   <path d="M581.4000,520.2000L581.4000,507.9600"/>
   <path d="M703.8000,91.8000L703.8000,104.0400"/>
   <path d="M703.8000,520.2000L703.8000,507.9600"/>
  </g>
  <g style="fill:#000000; fill-rule:nonzero">
   <text   style="font-family:'Times','Nimbus Roman No9 L'; font-style:normal; font-weight:normal; font-size:612.0000" transform="matrix(0.0280,0.0000,-0.0000,-0.0280,87.8000,74.6800)">0</text>
   <text   style="font-family:'Times','Nimbus Roman No9 L'; font-style:normal; font-weight:normal; font-size:612.0000" transform="matrix(0.0280,0.0000,-0.0000,-0.0280,205.7000,73.6800)">10</text>
   <text   style="font-family:'Times','Nimbus Roman No9 L'; font-style:normal; font-weight:normal; font-size:612.0000" transform="matrix(0.0280,0.0000,-0.0000,-0.0280,328.1000,74.6800)">20</text>
   <text   style="font-family:'Times','Nimbus Roman No9 L'; font-style:normal; font-weight:normal; font-size:612.0000" transform="matrix(0.0280,0.0000,-0.0000,-0.0280,450.5000,74.6800)">30</text>
   <text   style="font-family:'Times','Nimbus Roman No9 L'; font-style:normal; font-weight:normal; font-size:612.0000" transform="matrix(0.0280,0.0000,-0.0000,-0.0280,572.9000,74.6800)">40</text>
   <text   style="font-family:'Times','Nimbus Roman No9 L'; font-style:normal; font-weight:normal; font-size:612.0000" transform="matrix(0.0280,0.0000,-0.0000,-0.0280,695.3000,73.6800)">50</text>
   <text   style="font-family:'Times','Nimbus Roman No9 L'; font-style:normal; font-weight:normal; font-size:612.0000" transform="matrix(0.0280,0.0000,-0.0000,-0.0280,364.8000,55.5600)">Time (ps)</text>
  </g>
  <g style="fill:none; stroke:#000000; stroke-width:  0.9180; stroke-linecap:butt; stroke-linejoin:miter; stroke-dasharray:none">
   <path d="M91.8000,91.8000L91.8000,520.2000"/>
   <path d="M703.8000,91.8000L703.8000,520.2000"/>
   <path d="M91.8000,149.4692L97.9200,149.4692"/>
   <path d="M703.8000,149.4692L697.6800,149.4692"/>
   <path d="M91.8000,231.8538L97.9200,231.8538"/>
   <path d="M703.8000,231.8538L697.6800,231.8538"/>
   <path d="M91.8000,314.2385L97.9200,314.2385"/>
   <path d="M703.8000,314.2385L697.6800,314.2385"/>
   <path d="M91.8000,396.6231L97.9200,396.6231"/>
   <path d="M703.8000,396.6231L697.6800,396.6231"/>
   <path d="M91.8000,479.0077L97.9200,479.0077"/>
   <path d="M703.8000,479.0077L697.6800,479.0077"/>
   <path d="M91.8000,108.2769L104.0400,108.2769"/>
   <path d="M703.8000,108.2769L691.5600,108.2769"/>
   <path d="M91.8000,190.6615L104.0400,190.6615"/>
   <path d="M703.8000,190.6615L691.5600,190.6615"/>
   <path d="M91.8000,273.0462L104.0400,273.0462"/>
   <path d="M703.8000,273.0462L691.5600,273.0462"/>
   <path d="M91.8000,355.4308L104.0400,355.4308"/>
   <path d="M703.8000,355.4308L691.5600,355.4308"/>
   <path d="M91.8000,437.8154L104.0400,437.8154"/>
   <path d="M703.8000,437.8154L691.5600,437.8154"/>
   <path d="M91.8000,520.2000L104.0400,520.2000"/>
   <path d="M703.8000,520.2000L691.5600,520.2000"/>
  </g>
  <g style="fill:#000000; fill-rule:nonzero">
   <text   style="font-family:'Times','Nimbus Roman No9 L'; font-style:normal; font-weight:normal; font-size:612.0000" transform="matrix(0.0280,0.0000,-0.0000,-0.0280,54.6800,102.2769)">-500</text>
   <text   style="font-family:'Times','Nimbus Roman No9 L'; font-style:normal; font-weight:normal; font-size:612.0000" transform="matrix(0.0280,0.0000,-0.0000,-0.0280,77.6800,185.1615)">0</text>
   <text   style="font-family:'Times','Nimbus Roman No9 L'; font-style:normal; font-weight:normal; font-size:612.0000" transform="matrix(0.0280,0.0000,-0.0000,-0.0280,60.6800,267.0462)">500</text>
   <text   style="font-family:'Times','Nimbus Roman No9 L'; font-style:normal; font-weight:normal; font-size:612.0000" transform="matrix(0.0280,0.0000,-0.0000,-0.0280,51.6800,349.4308)">1000</text>
   <text   style="font-family:'Times','Nimbus Roman No9 L'; font-style:normal; font-weight:normal; font-size:612.0000" transform="matrix(0.0280,0.0000,-0.0000,-0.0280,51.6800,431.8154)">1500</text>
   <text   style="font-family:'Times','Nimbus Roman No9 L'; font-style:normal; font-weight:normal; font-size:612.0000" transform="matrix(0.0280,0.0000,-0.0000,-0.0280,51.6800,514.7000)">2000</text>
   <text   style="font-family:'Times','Nimbus Roman No9 L'; font-style:normal; font-weight:normal; font-size:612.0000" transform="matrix(0.0000,0.0280,0.0280,-0.0000,41.5600,240.0000)">Energy (kcal/mole)</text>
  </g>
  <g style="fill:none; stroke:#000000; stroke-width:  0.9180; stroke-linecap:butt; stroke-linejoin:miter; stroke-dasharray:none">
   <path d="M91.8000,91.8000L91.8000,520.2000L703.8000,520.2000L703.8000,91.8000z"/>
  </g>
  <g style="fill:#FFFFFF; fill-rule:nonzero">
   <path  d="M520.2000,489.6000L520.2000,430.1200L629.6190,430.1200L629.6190,489.6000z"/>
  </g>
  <g style="fill:none; stroke:#000000; stroke-width:  0.9180; stroke-linecap:butt; stroke-linejoin:miter; stroke-dasharray:none">
   <path d="M520.2000,489.6000L520.2000,430.1200L629.6190,430.1200L629.6190,489.6000z"/>
  </g>
  <g style="fill:#000000; fill-rule:nonzero">
   <text   style="font-family:'Times','Nimbus Roman No9 L'; font-style:normal; font-weight:normal; font-size:612.0000" transform="matrix(0.0280,0.0000,-0.0000,-0.0280,563.4990,471.4800)">Total</text>
  </g>
  <g style="fill:none; stroke:#000000; stroke-width:  0.9180; stroke-linecap:butt; stroke-linejoin:miter; stroke-dasharray:none">
   <path d="M526.7790,477.4800L551.2590,477.4800"/>
  </g>
  <g style="fill:#000000; fill-rule:nonzero">
   <text   style="font-family:'Times','Nimbus Roman No9 L'; font-style:normal; font-weight:normal; font-size:612.0000" transform="matrix(0.0280,0.0000,-0.0000,-0.0280,563.4990,454.3600)">Kinetic</text>
  </g>
  <g style="fill:none; stroke:#FF0000; stroke-width:  0.9180; stroke-linecap:butt; stroke-linejoin:miter; stroke-dasharray:none">
   <path d="M526.7790,459.8600L551.2590,459.8600"/>
  </g>
  <g style="fill:#000000; fill-rule:nonzero">
   <text   style="font-family:'Times','Nimbus Roman No9 L'; font-style:normal; font-weight:normal; font-size:612.0000" transform="matrix(0.0280,0.0000,-0.0000,-0.0280,563.4990,436.2400)">Potential</text>
  </g>
  <g style="fill:none; stroke:#00FF00; stroke-width:  0.9180; stroke-linecap:butt; stroke-linejoin:miter; stroke-dasharray:none">
   <path d="M526.7790,442.2400L551.2590,442.2400"/>
  </g>
  <g style="fill:#000000; fill-rule:nonzero">
   <text   style="font-family:'Times','Nimbus Roman No9 L'; font-style:normal; font-weight:normal; font-size:612.0000" transform="matrix(0.0420,0.0000,-0.0000,-0.0420,245.3000,562.9200)">Energy during production run</text>
  </g>
 </g>
</svg>
