<?xml version="1.0" encoding="ISO-8859-1"?>
<!DOCTYPE svg PUBLIC "-//W3C//DTD SVG 1.0//EN" "http://www.w3.org/TR/2001/REC-SVG-20010904/DTD/svg10.dtd">
<!-- generated by Grace-5.1.25 -->
<svg xml:space="preserve" width="11.0000in" height="8.5000in" viewBox="0.0000 0.0000 792.0000 612.0000">
 <g transform="translate(0,612.0000) scale(1,-1)">
  <g style="fill:#FFFFFF; fill-rule:nonzero">
   <path  d="M0.0000,0.0000L0.0000,612.0000L792.0000,612.0000L792.0000,0.0000z"/>
  </g>
  <g style="fill:none; stroke:#000000; stroke-width:  0.9180; stroke-linecap:butt; stroke-linejoin:miter; stroke-dasharray:none">
   <path d="M91.8000,467.6410L94.8600,392.7113L97.9200,392.8238L100.9800,400.3920L104.0400,366.3610L107.1000,371.2989L110.1600,366.4446L113.2200,391.4092L116.2800,358.6212L119.3400,372.2435
            L122.4000,389.5761L122.4000,250.6918L125.4600,313.0918L128.5200,308.0251L131.5800,323.2828L134.6400,312.6778L137.7000,298.7318L140.7600,295.0566L143.8200,309.2291L146.8800,305.1916
            L149.9400,320.5405L153.0000,302.7750L153.0000,296.5493L156.0600,323.4729L159.1200,326.9398L162.1800,294.4534L165.2400,289.6820L168.3000,307.5718L171.3600,322.6082L174.4200,291.6673
            L177.4800,309.9377L180.5400,292.2819L183.6000,302.2572L183.6000,310.3977L186.6600,295.1757L189.7200,313.8869L192.7800,308.2128L195.8400,318.6122L198.9000,301.9527L201.9600,295.6008
            L205.0200,337.7899L208.0800,312.8943L211.1400,319.5831L214.2000,293.6906L214.2000,297.0256L217.2600,297.0743L220.3200,309.9725L223.3800,312.5063L226.4400,309.9835L229.5000,299.7908
            L232.5600,314.1717L235.6200,317.7569L238.6800,304.9321L241.7400,316.1513L244.8000,319.5158L244.8000,320.6645L247.8600,297.4612L250.9200,317.3065L253.9800,312.8729L257.0400,328.4689
            L260.1000,301.0022L263.1600,314.3580L266.2200,327.0965L269.2800,307.0076L272.3400,315.0530L275.4000,300.1872L275.4000,293.0110L278.4600,309.6524L281.5200,302.2415L284.5800,299.8575
            L287.6400,294.0158L290.7000,323.2325L293.7600,302.3135L296.8200,303.0969L299.8800,313.3462L302.9400,300.9889L306.0000,304.0337L306.0000,304.1301L309.0600,300.0691L312.1200,297.9300
            L315.1800,303.9353L318.2400,309.2320L321.3000,332.0787L324.3600,292.8751L327.4200,310.4025L330.4800,322.0262L333.5400,296.4889L336.6000,304.5743L336.6000,305.8374L339.6600,308.6870
            L342.7200,324.7790L345.7800,300.8254L348.8400,341.0921L351.9000,305.5636L354.9600,296.6461L358.0200,298.0520L361.0800,320.4272L364.1400,290.7519L367.2000,326.0061L367.2000,324.1124
            L370.2600,296.1204L373.3200,296.4228L376.3800,290.9650L379.4400,298.3654L382.5000,305.6237L385.5600,305.4570L388.6200,298.9716L391.6800,306.8367L394.7400,327.3024L397.8000,292.9155
            L397.8000,298.5934L400.8600,318.0556L403.9200,306.1598L406.9800,329.9094L410.0400,338.0932L413.1000,294.1080L416.1600,288.9755L419.2200,307.2125L422.2800,292.0367L425.3400,301.5003
            L428.4000,309.5508L428.4000,310.3079L431.4600,329.9563L434.5200,328.0665L437.5800,314.7850L440.6400,309.6377L443.7000,332.1265L446.7600,325.4841L449.8200,334.2824L452.8800,326.1398
            L455.9400,293.5580L459.0000,321.8865L459.0000,312.6426L462.0600,297.6893L465.1200,311.3949L468.1800,338.9534L471.2400,304.0104L474.3000,313.4688L477.3600,316.1981L480.4200,321.6043
            L483.4800,326.4186L486.5400,294.9542L489.6000,299.6759L489.6000,304.0682L492.6600,297.2071L495.7200,320.2434L498.7800,311.3972L501.8400,312.3573L504.9000,283.4212L507.9600,310.2453
            L511.0200,312.0469L514.0800,321.7556L517.1400,295.9197L520.2000,307.3452L520.2000,306.0030L523.2600,311.3765L526.3200,306.8230L529.3800,315.6957L532.4400,313.6474L535.5000,293.8684
            L538.5600,306.4882L541.6200,297.8667L544.6800,306.4458L547.7400,298.4076L550.8000,305.8656L550.8000,307.1737L553.8600,305.8967L556.9200,310.6872L559.9800,290.9818L563.0400,312.0171
            L566.1000,301.0403L569.1600,307.4753L572.2200,323.5446L575.2800,303.9136L578.3400,306.8354L581.4000,301.2483L581.4000,305.9065L584.4600,288.7174L587.5200,309.8768L590.5800,302.4846
            L593.6400,307.4718L596.7000,288.3639L599.7600,317.8293L602.8200,312.7341L605.8800,294.5086L608.9400,322.3780L612.0000,297.2374L612.0000,291.0781L615.0600,304.9894L618.1200,312.8842
            L621.1800,311.0379L624.2400,283.5531L627.3000,295.9190L630.3600,304.2645L633.4200,303.8561L636.4800,322.7071L639.5400,317.6505L642.6000,318.3330L642.6000,325.3684L645.6600,264.8518
            L648.7200,320.6158L651.7800,291.5973L654.8400,283.3560L657.9000,294.0682L660.9600,311.8224L664.0200,309.5151L667.0800,303.0660L670.1400,305.0566L673.2000,331.0709L673.2000,334.0755
            L676.2600,286.1914L679.3200,307.1805L682.3800,324.1276L685.4400,305.9891L688.5000,312.3036L691.5600,323.6253L694.6200,318.5531L697.6800,297.2291L700.7400,314.2826L703.8000,308.2585"/>
   <path d="M91.8000,91.8000L703.8000,91.8000"/>
   <path d="M91.8000,520.2000L703.8000,520.2000"/>
   <path d="M168.3000,91.8000L168.3000,97.9200"/>
   <path d="M168.3000,520.2000L168.3000,514.0800"/>
   <path d="M321.3000,91.8000L321.3000,97.9200"/>
   <path d="M321.3000,520.2000L321.3000,514.0800"/>
   <path d="M474.3000,91.8000L474.3000,97.9200"/>
   <path d="M474.3000,520.2000L474.3000,514.0800"/>
   <path d="M627.3000,91.8000L627.3000,97.9200"/>
   <path d="M627.3000,520.2000L627.3000,514.0800"/>
   <path d="M91.8000,91.8000L91.8000,104.0400"/>
   <path d="M91.8000,520.2000L91.8000,507.9600"/>
   <path d="M244.8000,91.8000L244.8000,104.0400"/>
   <path d="M244.8000,520.2000L244.8000,507.9600"/>
   <path d="M397.8000,91.8000L397.8000,104.0400"/>
   <path d="M397.8000,520.2000L397.8000,507.9600"/>
   <path d="M550.8000,91.8000L550.8000,104.0400"/>
   <path d="M550.8000,520.2000L550.8000,507.9600"/>
   <path d="M703.8000,91.8000L703.8000,104.0400"/>
   <path d="M703.8000,520.2000L703.8000,507.9600"/>
  </g>
  <g style="fill:#000000; fill-rule:nonzero">
   <text   style="font-family:'Times','Nimbus Roman No9 L'; font-style:normal; font-weight:normal; font-size:612.0000" transform="matrix(0.0280,0.0000,-0.0000,-0.0280,87.8000,74.6800)">0</text>
   <text   style="font-family:'Times','Nimbus Roman No9 L'; font-style:normal; font-weight:normal; font-size:612.0000" transform="matrix(0.0280,0.0000,-0.0000,-0.0280,240.8000,73.6800)">5</text>
   <text   style="font-family:'Times','Nimbus Roman No9 L'; font-style:normal; font-weight:normal; font-size:612.0000" transform="matrix(0.0280,0.0000,-0.0000,-0.0280,389.3000,73.6800)">10</text>
   <text   style="font-family:'Times','Nimbus Roman No9 L'; font-style:normal; font-weight:normal; font-size:612.0000" transform="matrix(0.0280,0.0000,-0.0000,-0.0280,542.3000,73.6800)">15</text>
   <text   style="font-family:'Times','Nimbus Roman No9 L'; font-style:normal; font-weight:normal; font-size:612.0000" transform="matrix(0.0280,0.0000,-0.0000,-0.0280,695.3000,74.6800)">20</text>
   <text   style="font-family:'Times','Nimbus Roman No9 L'; font-style:normal; font-weight:normal; font-size:612.0000" transform="matrix(0.0280,0.0000,-0.0000,-0.0280,364.8000,55.5600)">Time (ps)</text>
  </g>
  <g style="fill:none; stroke:#000000; stroke-width:  0.9180; stroke-linecap:butt; stroke-linejoin:miter; stroke-dasharray:none">
   <path d="M91.8000,91.8000L91.8000,520.2000"/>
   <path d="M703.8000,91.8000L703.8000,520.2000"/>
   <path d="M91.8000,113.2200L97.9200,113.2200"/>
   <path d="M703.8000,113.2200L697.6800,113.2200"/>
   <path d="M91.8000,156.0600L97.9200,156.0600"/>
   <path d="M703.8000,156.0600L697.6800,156.0600"/>
   <path d="M91.8000,198.9000L97.9200,198.9000"/>
   <path d="M703.8000,198.9000L697.6800,198.9000"/>
   <path d="M91.8000,241.7400L97.9200,241.7400"/>
   <path d="M703.8000,241.7400L697.6800,241.7400"/>
   <path d="M91.8000,284.5800L97.9200,284.5800"/>
   <path d="M703.8000,284.5800L697.6800,284.5800"/>
   <path d="M91.8000,327.4200L97.9200,327.4200"/>
   <path d="M703.8000,327.4200L697.6800,327.4200"/>
   <path d="M91.8000,370.2600L97.9200,370.2600"/>
   <path d="M703.8000,370.2600L697.6800,370.2600"/>
   <path d="M91.8000,413.1000L97.9200,413.1000"/>
   <path d="M703.8000,413.1000L697.6800,413.1000"/>
   <path d="M91.8000,455.9400L97.9200,455.9400"/>
   <path d="M703.8000,455.9400L697.6800,455.9400"/>
   <path d="M91.8000,498.7800L97.9200,498.7800"/>
   <path d="M703.8000,498.7800L697.6800,498.7800"/>
   <path d="M91.8000,91.8000L104.0400,91.8000"/>
   <path d="M703.8000,91.8000L691.5600,91.8000"/>
   <path d="M91.8000,134.6400L104.0400,134.6400"/>
   <path d="M703.8000,134.6400L691.5600,134.6400"/>
   <path d="M91.8000,177.4800L104.0400,177.4800"/>
   <path d="M703.8000,177.4800L691.5600,177.4800"/>
   <path d="M91.8000,220.3200L104.0400,220.3200"/>
   <path d="M703.8000,220.3200L691.5600,220.3200"/>
   <path d="M91.8000,263.1600L104.0400,263.1600"/>
   <path d="M703.8000,263.1600L691.5600,263.1600"/>
   <path d="M91.8000,306.0000L104.0400,306.0000"/>
   <path d="M703.8000,306.0000L691.5600,306.0000"/>
   <path d="M91.8000,348.8400L104.0400,348.8400"/>
   <path d="M703.8000,348.8400L691.5600,348.8400"/>
   <path d="M91.8000,391.6800L104.0400,391.6800"/>
   <path d="M703.8000,391.6800L691.5600,391.6800"/>
   <path d="M91.8000,434.5200L104.0400,434.5200"/>
   <path d="M703.8000,434.5200L691.5600,434.5200"/>
   <path d="M91.8000,477.3600L104.0400,477.3600"/>
   <path d="M703.8000,477.3600L691.5600,477.3600"/>
   <path d="M91.8000,520.2000L104.0400,520.2000"/>
   <path d="M703.8000,520.2000L691.5600,520.2000"/>
  </g>
  <g style="fill:#000000; fill-rule:nonzero">
   <text   style="font-family:'Times','Nimbus Roman No9 L'; font-style:normal; font-weight:normal; font-size:612.0000" transform="matrix(0.0280,0.0000,-0.0000,-0.0280,60.6800,86.3000)">200</text>
   <text   style="font-family:'Times','Nimbus Roman No9 L'; font-style:normal; font-weight:normal; font-size:612.0000" transform="matrix(0.0280,0.0000,-0.0000,-0.0280,60.6800,129.1400)">220</text>
   <text   style="font-family:'Times','Nimbus Roman No9 L'; font-style:normal; font-weight:normal; font-size:612.0000" transform="matrix(0.0280,0.0000,-0.0000,-0.0280,60.6800,171.9800)">240</text>
   <text   style="font-family:'Times','Nimbus Roman No9 L'; font-style:normal; font-weight:normal; font-size:612.0000" transform="matrix(0.0280,0.0000,-0.0000,-0.0280,60.6800,214.3200)">260</text>
   <text   style="font-family:'Times','Nimbus Roman No9 L'; font-style:normal; font-weight:normal; font-size:612.0000" transform="matrix(0.0280,0.0000,-0.0000,-0.0280,60.6800,257.6600)">280</text>
   <text   style="font-family:'Times','Nimbus Roman No9 L'; font-style:normal; font-weight:normal; font-size:612.0000" transform="matrix(0.0280,0.0000,-0.0000,-0.0280,60.6800,300.5000)">300</text>
   <text   style="font-family:'Times','Nimbus Roman No9 L'; font-style:normal; font-weight:normal; font-size:612.0000" transform="matrix(0.0280,0.0000,-0.0000,-0.0280,60.6800,343.3400)">320</text>
   <text   style="font-family:'Times','Nimbus Roman No9 L'; font-style:normal; font-weight:normal; font-size:612.0000" transform="matrix(0.0280,0.0000,-0.0000,-0.0280,60.6800,386.1800)">340</text>
   <text   style="font-family:'Times','Nimbus Roman No9 L'; font-style:normal; font-weight:normal; font-size:612.0000" transform="matrix(0.0280,0.0000,-0.0000,-0.0280,60.6800,428.5200)">360</text>
   <text   style="font-family:'Times','Nimbus Roman No9 L'; font-style:normal; font-weight:normal; font-size:612.0000" transform="matrix(0.0280,0.0000,-0.0000,-0.0280,60.6800,471.8600)">380</text>
   <text   style="font-family:'Times','Nimbus Roman No9 L'; font-style:normal; font-weight:normal; font-size:612.0000" transform="matrix(0.0280,0.0000,-0.0000,-0.0280,60.6800,514.7000)">400</text>
   <text   style="font-family:'Times','Nimbus Roman No9 L'; font-style:normal; font-weight:normal; font-size:612.0000" transform="matrix(0.0000,0.0280,0.0280,-0.0000,49.5600,248.5000)">Temperature (K)</text>
  </g>
  <g style="fill:none; stroke:#000000; stroke-width:  0.9180; stroke-linecap:butt; stroke-linejoin:miter; stroke-dasharray:none">
   <path d="M91.8000,91.8000L91.8000,520.2000L703.8000,520.2000L703.8000,91.8000z"/>
  </g>
  <g style="fill:#000000; fill-rule:nonzero">
   <text   style="font-family:'Times','Nimbus Roman No9 L'; font-style:normal; font-weight:normal; font-size:612.0000" transform="matrix(0.0420,0.0000,-0.0000,-0.0420,187.8000,562.9200)">Temperature during second equilibration</text>
  </g>
 </g>
</svg>
