<?xml version="1.0" encoding="ISO-8859-1"?>
<!DOCTYPE svg PUBLIC "-//W3C//DTD SVG 1.0//EN" "http://www.w3.org/TR/2001/REC-SVG-20010904/DTD/svg10.dtd">
<!-- generated by Grace-5.1.25 -->
<svg xml:space="preserve" width="11.0000in" height="8.5000in" viewBox="0.0000 0.0000 792.0000 612.0000">
 <g transform="translate(0,612.0000) scale(1,-1)">
  <g style="fill:#FFFFFF; fill-rule:nonzero">
   <path  d="M0.0000,0.0000L0.0000,612.0000L792.0000,612.0000L792.0000,0.0000z"/>
  </g>
  <g style="fill:none; stroke:#000000; stroke-width:  0.9180; stroke-linecap:butt; stroke-linejoin:miter; stroke-dasharray:none">
   <path d="M91.8000,265.8180L94.8600,266.3656L97.9200,266.2641L100.9800,265.9754L104.0400,266.5097L107.1000,266.4966L110.1600,266.3697L113.2200,266.4844L116.2800,266.5365L119.3400,266.5292
            L122.4000,266.5676L122.4000,237.8434L125.4600,237.4128L128.5200,237.3692L131.5800,237.3717L134.6400,237.3067L137.7000,237.4258L140.7600,237.3116L143.8200,237.3832L146.8800,237.4376
            L149.9400,237.2651L153.0000,237.3979L153.0000,236.1103L156.0600,235.9132L159.1200,235.8300L162.1800,236.0997L165.2400,236.1208L168.3000,235.9528L171.3600,235.8631L174.4200,236.0480
            L177.4800,236.0840L180.5400,236.0706L183.6000,236.1175L183.6000,237.8011L186.6600,237.9253L189.7200,237.7197L192.7800,237.6409L195.8400,237.6392L198.9000,237.7294L201.9600,237.8119
            L205.0200,237.5544L208.0800,237.6611L211.1400,237.5393L214.2000,237.7065L214.2000,238.3963L217.2600,238.4428L220.3200,238.3457L223.3800,238.3750L226.4400,238.4086L229.5000,238.5072
            L232.5600,238.3195L235.6200,238.3269L238.6800,238.4013L241.7400,238.3486L244.8000,238.3932L244.8000,238.6308L247.8600,238.5186L250.9200,238.4877L253.9800,238.5478L257.0400,238.4914
            L260.1000,238.5857L263.1600,238.5250L266.2200,238.5345L269.2800,238.5643L272.3400,238.4798L275.4000,238.6358L275.4000,237.1516L278.4600,236.9439L281.5200,236.9987L284.5800,237.1238
            L287.6400,237.1153L290.7000,236.9722L293.7600,237.0389L296.8200,237.1602L299.8800,237.0299L302.9400,236.9791L306.0000,237.1354L306.0000,237.1553L309.0600,237.1402L312.1200,236.9479
            L315.1800,237.0352L318.2400,237.0579L321.3000,236.8336L324.3600,237.0263L327.4200,237.0492L330.4800,236.8777L333.5400,237.1856L336.6000,237.0544L336.6000,237.3157L339.6600,237.3556
            L342.7200,237.2594L345.7800,237.3745L348.8400,237.2124L351.9000,237.2765L354.9600,237.3639L358.0200,237.3046L361.0800,237.2137L364.1400,237.2931L367.2000,237.1318L367.2000,236.7402
            L370.2600,236.8606L373.3200,237.0407L376.3800,236.8752L379.4400,236.9061L382.5000,236.7739L385.5600,236.7716L388.6200,236.9632L391.6800,236.8719L394.7400,236.6823L397.8000,236.8625
            L397.8000,238.0368L400.8600,237.9698L403.9200,238.0308L406.9800,237.8368L410.0400,238.0178L413.1000,238.0674L416.1600,237.9694L419.2200,237.9864L422.2800,237.8106L425.3400,238.0893
            L428.4000,238.0764L428.4000,238.2330L431.4600,238.0473L434.5200,238.1692L437.5800,238.2277L440.6400,238.0644L443.7000,238.1140L446.7600,238.1855L449.8200,238.0063L452.8800,237.9989
            L455.9400,238.3467L459.0000,237.9992L459.0000,236.0874L462.0600,236.1642L465.1200,236.2213L468.1800,236.0166L471.2400,236.2090L474.3000,236.1540L477.3600,236.1183L480.4200,236.0967
            L483.4800,236.2027L486.5400,236.3963L489.6000,236.1136L489.6000,237.0220L492.6600,237.0578L495.7200,237.0351L498.7800,237.1112L501.8400,237.1031L504.9000,237.0896L507.9600,237.0571
            L511.0200,237.0330L514.0800,236.9497L517.1400,237.0854L520.2000,237.0811L520.2000,236.8035L523.2600,236.7471L526.3200,236.7106L529.3800,236.6322L532.4400,236.7571L535.5000,236.7731
            L538.5600,236.8055L541.6200,236.7858L544.6800,236.7956L547.7400,236.7995L550.8000,236.8535L550.8000,237.1241L553.8600,237.0484L556.9200,237.0187L559.9800,237.0973L563.0400,237.1048
            L566.1000,236.9726L569.1600,236.9209L572.2200,237.1213L575.2800,236.8818L578.3400,236.9915L581.4000,236.9887L581.4000,237.9521L584.4600,237.9780L587.5200,237.9709L590.5800,237.9073
            L593.6400,237.9733L596.7000,238.2139L599.7600,237.9102L602.8200,237.9880L605.8800,238.1326L608.9400,237.8848L612.0000,237.9228L612.0000,236.6489L615.0600,236.6841L618.1200,236.4896
            L621.1800,236.6078L624.2400,236.6565L627.3000,236.5596L630.3600,236.5717L633.4200,236.6997L636.4800,236.5265L639.5400,236.6197L642.6000,236.6227L642.6000,238.0778L645.6600,238.1004
            L648.7200,238.1025L651.7800,238.1712L654.8400,238.2530L657.9000,238.2149L660.9600,238.2105L664.0200,238.2317L667.0800,238.1032L670.1400,238.2733L673.2000,238.0446L673.2000,238.6660
            L676.2600,238.6702L679.3200,238.6747L682.3800,238.5077L685.4400,238.6135L688.5000,238.6281L691.5600,238.5142L694.6200,238.6578L697.6800,238.7891L700.7400,238.7022L703.8000,238.7251"/>
  </g>
  <g style="fill:none; stroke:#FF0000; stroke-width:  0.9180; stroke-linecap:butt; stroke-linejoin:miter; stroke-dasharray:none">
   <path d="M91.8000,356.9952L94.8600,341.4982L97.9200,341.5215L100.9800,343.0868L104.0400,336.0484L107.1000,337.0697L110.1600,336.0657L113.2200,341.2289L116.2800,334.4477L119.3400,337.2651
            L122.4000,340.8498L122.4000,312.1256L125.4600,325.0313L128.5200,323.9834L131.5800,327.1390L134.6400,324.9456L137.7000,322.0613L140.7600,321.3012L143.8200,324.2324L146.8800,323.3973
            L149.9400,326.5718L153.0000,322.8975L153.0000,321.6099L156.0600,327.1783L159.1200,327.8953L162.1800,321.1765L165.2400,320.1896L168.3000,323.8896L171.3600,326.9995L174.4200,320.6002
            L177.4800,324.3789L180.5400,320.7273L183.6000,322.7904L183.6000,324.4741L186.6600,321.3259L189.7200,325.1957L192.7800,324.0222L195.8400,326.1730L198.9000,322.7275L201.9600,321.4138
            L205.0200,330.1394L208.0800,324.9904L211.1400,326.3738L214.2000,321.0187L214.2000,321.7084L217.2600,321.7185L220.3200,324.3861L223.3800,324.9102L226.4400,324.3884L229.5000,322.2803
            L232.5600,325.2546L235.6200,325.9961L238.6800,323.3437L241.7400,325.6640L244.8000,326.3599L244.8000,326.5975L247.8600,321.7985L250.9200,325.9030L253.9800,324.9860L257.0400,328.2116
            L260.1000,322.5309L263.1600,325.2932L266.2200,327.9277L269.2800,323.7729L272.3400,325.4369L275.4000,322.3623L275.4000,320.8781L278.4600,324.3199L281.5200,322.7872L284.5800,322.2941
            L287.6400,321.0860L290.7000,327.1286L293.7600,322.8021L296.8200,322.9641L299.8800,325.0839L302.9400,322.5281L306.0000,323.1579L306.0000,323.1778L309.0600,322.3379L312.1200,321.8955
            L315.1800,323.1375L318.2400,324.2330L321.3000,328.9581L324.3600,320.8500L327.4200,324.4751L330.4800,326.8791L333.5400,321.5974L336.6000,323.2697L336.6000,323.5309L339.6600,324.1203
            L342.7200,327.4484L345.7800,322.4943L348.8400,330.8223L351.9000,323.4743L354.9600,321.6300L358.0200,321.9207L361.0800,326.5484L364.1400,320.4109L367.2000,327.7022L367.2000,327.3106
            L370.2600,321.5212L373.3200,321.5838L376.3800,320.4550L379.4400,321.9855L382.5000,323.4867L385.5600,323.4522L388.6200,322.1109L391.6800,323.7376L394.7400,327.9703L397.8000,320.8584
            L397.8000,322.0327L400.8600,326.0579L403.9200,323.5976L406.9800,328.5095L410.0400,330.2021L413.1000,321.1050L416.1600,320.0435L419.2200,323.8153L422.2800,320.6766L425.3400,322.6339
            L428.4000,324.2989L428.4000,324.4555L431.4600,328.5192L434.5200,328.1283L437.5800,325.3814L440.6400,324.3169L443.7000,328.9680L446.7600,327.5943L449.8200,329.4139L452.8800,327.7299
            L455.9400,320.9913L459.0000,326.8502L459.0000,324.9384L462.0600,321.8457L465.1200,324.6803L468.1800,330.3800L471.2400,323.1530L474.3000,325.1092L477.3600,325.6737L480.4200,326.7918
            L483.4800,327.7875L486.5400,321.2800L489.6000,322.2566L489.6000,323.1650L492.6600,321.7460L495.7200,326.5104L498.7800,324.6808L501.8400,324.8794L504.9000,318.8948L507.9600,324.4426
            L511.0200,324.8152L514.0800,326.8231L517.1400,321.4797L520.2000,323.8427L520.2000,323.5652L523.2600,324.6765L526.3200,323.7348L529.3800,325.5698L532.4400,325.1462L535.5000,321.0555
            L538.5600,323.6655L541.6200,321.8824L544.6800,323.6567L547.7400,321.9943L550.8000,323.5367L550.8000,323.8073L553.8600,323.5432L556.9200,324.5339L559.9800,320.4585L563.0400,324.8090
            L566.1000,322.5388L569.1600,323.8696L572.2200,327.1931L575.2800,323.1330L578.3400,323.7373L581.4000,322.5818L581.4000,323.5452L584.4600,319.9901L587.5200,324.3663L590.5800,322.8375
            L593.6400,323.8689L596.7000,319.9170L599.7600,326.0111L602.8200,324.9573L605.8800,321.1879L608.9400,326.9518L612.0000,321.7522L612.0000,320.4784L615.0600,323.3555L618.1200,324.9883
            L621.1800,324.6065L624.2400,318.9220L627.3000,321.4796L630.3600,323.2056L633.4200,323.1211L636.4800,327.0199L639.5400,325.9741L642.6000,326.1153L642.6000,327.5703L645.6600,315.0542
            L648.7200,326.5874L651.7800,320.5857L654.8400,318.8813L657.9000,321.0968L660.9600,324.7687L664.0200,324.2915L667.0800,322.9577L670.1400,323.3694L673.2000,328.7497L673.2000,329.3711
            L676.2600,319.4677L679.3200,323.8087L682.3800,327.3137L685.4400,323.5623L688.5000,324.8683L691.5600,327.2098L694.6200,326.1608L697.6800,321.7505L700.7400,325.2776L703.8000,324.0316"/>
  </g>
  <g style="fill:none; stroke:#00FF00; stroke-width:  0.9180; stroke-linecap:butt; stroke-linejoin:miter; stroke-dasharray:none">
   <path d="M91.8000,99.4843L94.8600,115.5289L97.9200,115.4041L100.9800,113.5502L104.0400,121.1227L107.1000,120.0884L110.1600,120.9655L113.2200,115.9170L116.2800,122.7503L119.3400,119.9257
            L122.4000,116.3793L122.4000,116.3793L125.4600,103.0431L128.5200,104.0474L131.5800,100.8943L134.6400,103.0226L137.7000,106.0261L140.7600,106.6720L143.8200,103.8124L146.8800,104.7018
            L149.9400,101.3548L153.0000,105.1619L153.0000,105.1619L156.0600,99.3964L159.1200,98.5962L162.1800,105.5848L165.2400,106.5927L168.3000,102.7247L171.3600,99.5251L174.4200,106.1093
            L177.4800,102.3666L180.5400,106.0048L183.6000,103.9886L183.6000,103.9886L186.6600,107.2609L189.7200,103.1855L192.7800,104.2803L195.8400,102.1277L198.9000,105.6635L201.9600,107.0597
            L205.0200,98.0766L208.0800,103.3322L211.1400,101.8270L214.2000,107.3494L214.2000,107.3494L217.2600,107.3858L220.3200,104.6211L223.3800,104.1264L226.4400,104.6817L229.5000,106.8884
            L232.5600,103.7264L235.6200,102.9924L238.6800,105.7192L241.7400,103.3461L244.8000,102.6949L244.8000,102.6949L247.8600,107.3816L250.9200,103.2463L253.9800,104.2233L257.0400,100.9414
            L260.1000,106.7164L263.1600,103.8934L266.2200,101.2683L269.2800,105.4529L272.3400,103.7045L275.4000,106.9350L275.4000,106.9350L278.4600,103.2855L281.5200,104.8730L284.5800,105.4912
            L287.6400,106.6908L290.7000,100.5052L293.7600,104.8984L296.8200,104.8576L299.8800,102.6076L302.9400,105.1125L306.0000,104.6390L306.0000,104.6390L309.0600,105.4639L312.1200,105.7139
            L315.1800,104.5592L318.2400,103.4864L321.3000,98.5370L324.3600,106.8378L327.4200,103.2356L330.4800,100.6601L333.5400,106.2497L336.6000,104.4463L336.6000,104.4463L339.6600,103.8968
            L342.7200,100.4725L345.7800,105.5417L348.8400,97.0516L351.9000,104.4637L354.9600,106.3955L358.0200,106.0454L361.0800,101.3268L364.1400,107.5437L367.2000,100.0912L367.2000,100.0912
            L370.2600,106.0009L373.3200,106.1184L376.3800,107.0817L379.4400,105.5821L382.5000,103.9487L385.5600,103.9809L388.6200,105.5138L391.6800,103.7958L394.7400,99.3735L397.8000,106.6657
            L397.8000,106.6657L400.8600,102.5734L403.9200,105.0947L406.9800,99.9888L410.0400,98.4773L413.1000,107.6240L416.1600,108.5874L419.2200,104.8326L422.2800,107.7956L425.3400,106.1170
            L428.4000,104.4390L428.4000,104.4390L431.4600,100.1896L434.5200,100.7024L437.5800,103.5078L440.6400,104.4091L443.7000,99.8075L446.7600,101.2528L449.8200,99.2539L452.8800,100.9306
            L455.9400,108.0170L459.0000,101.8106L459.0000,101.8106L462.0600,104.9800L465.1200,102.2025L468.1800,96.2981L471.2400,103.7175L474.3000,101.7063L477.3600,101.1062L480.4200,99.9664
            L483.4800,99.0767L486.5400,105.7778L489.6000,104.5185L489.6000,104.5185L492.6600,105.9733L495.7200,101.1863L498.7800,103.0920L501.8400,102.8853L504.9000,108.8564L507.9600,103.2761
            L511.0200,102.8794L514.0800,100.7881L517.1400,106.2673L520.2000,103.8999L520.2000,103.8999L523.2600,102.7321L526.3200,103.6374L529.3800,101.7239L532.4400,102.2725L535.5000,106.3792
            L538.5600,103.8015L541.6200,105.5650L544.6800,103.8004L547.7400,105.4667L550.8000,103.9783L550.8000,103.9783L553.8600,104.1668L556.9200,103.1463L559.9800,107.3004L563.0400,102.9574
            L566.1000,105.0954L569.1600,103.7128L572.2200,100.5897L575.2800,104.4103L578.3400,103.9157L581.4000,105.0685L581.4000,105.0685L584.4600,108.6494L587.5200,104.2661L590.5800,105.7314
            L593.6400,104.7659L596.7000,108.9584L599.7600,102.5607L602.8200,103.6923L605.8800,107.6063L608.9400,101.5945L612.0000,106.8321L612.0000,106.8321L615.0600,103.9901L618.1200,102.1628
            L621.1800,102.6629L624.2400,108.3960L627.3000,105.7416L630.3600,104.0276L633.4200,104.2402L636.4800,100.1681L639.5400,101.3071L642.6000,101.1690L642.6000,101.1690L645.6600,113.7077
            L648.7200,102.1766L651.7800,108.2470L654.8400,110.0332L657.9000,107.7796L660.9600,104.1033L664.0200,104.6018L667.0800,105.8070L670.1400,105.5654L673.2000,99.9564L673.2000,99.9564
            L676.2600,109.8640L679.3200,105.5276L682.3800,101.8556L685.4400,105.7128L688.5000,104.4214L691.5600,101.9660L694.6200,103.1585L697.6800,107.7001L700.7400,104.0861L703.8000,105.3550"/>
  </g>
  <g style="fill:none; stroke:#000000; stroke-width:  0.9180; stroke-linecap:butt; stroke-linejoin:miter; stroke-dasharray:none">
   <path d="M91.8000,91.8000L703.8000,91.8000"/>
   <path d="M91.8000,520.2000L703.8000,520.2000"/>
   <path d="M168.3000,91.8000L168.3000,97.9200"/>
   <path d="M168.3000,520.2000L168.3000,514.0800"/>
   <path d="M321.3000,91.8000L321.3000,97.9200"/>
   <path d="M321.3000,520.2000L321.3000,514.0800"/>
   <path d="M474.3000,91.8000L474.3000,97.9200"/>
   <path d="M474.3000,520.2000L474.3000,514.0800"/>
   <path d="M627.3000,91.8000L627.3000,97.9200"/>
   <path d="M627.3000,520.2000L627.3000,514.0800"/>
   <path d="M91.8000,91.8000L91.8000,104.0400"/>
   <path d="M91.8000,520.2000L91.8000,507.9600"/>
   <path d="M244.8000,91.8000L244.8000,104.0400"/>
   <path d="M244.8000,520.2000L244.8000,507.9600"/>
   <path d="M397.8000,91.8000L397.8000,104.0400"/>
   <path d="M397.8000,520.2000L397.8000,507.9600"/>
   <path d="M550.8000,91.8000L550.8000,104.0400"/>
   <path d="M550.8000,520.2000L550.8000,507.9600"/>
   <path d="M703.8000,91.8000L703.8000,104.0400"/>
   <path d="M703.8000,520.2000L703.8000,507.9600"/>
  </g>
  <g style="fill:#000000; fill-rule:nonzero">
   <text   style="font-family:'Times','Nimbus Roman No9 L'; font-style:normal; font-weight:normal; font-size:612.0000" transform="matrix(0.0280,0.0000,-0.0000,-0.0280,87.8000,74.6800)">0</text>
   <text   style="font-family:'Times','Nimbus Roman No9 L'; font-style:normal; font-weight:normal; font-size:612.0000" transform="matrix(0.0280,0.0000,-0.0000,-0.0280,240.8000,73.6800)">5</text>
   <text   style="font-family:'Times','Nimbus Roman No9 L'; font-style:normal; font-weight:normal; font-size:612.0000" transform="matrix(0.0280,0.0000,-0.0000,-0.0280,389.3000,73.6800)">10</text>
   <text   style="font-family:'Times','Nimbus Roman No9 L'; font-style:normal; font-weight:normal; font-size:612.0000" transform="matrix(0.0280,0.0000,-0.0000,-0.0280,542.3000,73.6800)">15</text>
   <text   style="font-family:'Times','Nimbus Roman No9 L'; font-style:normal; font-weight:normal; font-size:612.0000" transform="matrix(0.0280,0.0000,-0.0000,-0.0280,695.3000,74.6800)">20</text>
   <text   style="font-family:'Times','Nimbus Roman No9 L'; font-style:normal; font-weight:normal; font-size:612.0000" transform="matrix(0.0280,0.0000,-0.0000,-0.0280,364.8000,55.5600)">Time (ps)</text>
  </g>
  <g style="fill:none; stroke:#000000; stroke-width:  0.9180; stroke-linecap:butt; stroke-linejoin:miter; stroke-dasharray:none">
   <path d="M91.8000,91.8000L91.8000,520.2000"/>
   <path d="M703.8000,91.8000L703.8000,520.2000"/>
   <path d="M91.8000,149.4692L97.9200,149.4692"/>
   <path d="M703.8000,149.4692L697.6800,149.4692"/>
   <path d="M91.8000,231.8538L97.9200,231.8538"/>
   <path d="M703.8000,231.8538L697.6800,231.8538"/>
   <path d="M91.8000,314.2385L97.9200,314.2385"/>
   <path d="M703.8000,314.2385L697.6800,314.2385"/>
   <path d="M91.8000,396.6231L97.9200,396.6231"/>
   <path d="M703.8000,396.6231L697.6800,396.6231"/>
   <path d="M91.8000,479.0077L97.9200,479.0077"/>
   <path d="M703.8000,479.0077L697.6800,479.0077"/>
   <path d="M91.8000,108.2769L104.0400,108.2769"/>
   <path d="M703.8000,108.2769L691.5600,108.2769"/>
   <path d="M91.8000,190.6615L104.0400,190.6615"/>
   <path d="M703.8000,190.6615L691.5600,190.6615"/>
   <path d="M91.8000,273.0462L104.0400,273.0462"/>
   <path d="M703.8000,273.0462L691.5600,273.0462"/>
   <path d="M91.8000,355.4308L104.0400,355.4308"/>
   <path d="M703.8000,355.4308L691.5600,355.4308"/>
   <path d="M91.8000,437.8154L104.0400,437.8154"/>
   <path d="M703.8000,437.8154L691.5600,437.8154"/>
   <path d="M91.8000,520.2000L104.0400,520.2000"/>
   <path d="M703.8000,520.2000L691.5600,520.2000"/>
  </g>
  <g style="fill:#000000; fill-rule:nonzero">
   <text   style="font-family:'Times','Nimbus Roman No9 L'; font-style:normal; font-weight:normal; font-size:612.0000" transform="matrix(0.0280,0.0000,-0.0000,-0.0280,54.6800,102.2769)">-500</text>
   <text   style="font-family:'Times','Nimbus Roman No9 L'; font-style:normal; font-weight:normal; font-size:612.0000" transform="matrix(0.0280,0.0000,-0.0000,-0.0280,77.6800,185.1615)">0</text>
   <text   style="font-family:'Times','Nimbus Roman No9 L'; font-style:normal; font-weight:normal; font-size:612.0000" transform="matrix(0.0280,0.0000,-0.0000,-0.0280,60.6800,267.0462)">500</text>
   <text   style="font-family:'Times','Nimbus Roman No9 L'; font-style:normal; font-weight:normal; font-size:612.0000" transform="matrix(0.0280,0.0000,-0.0000,-0.0280,51.6800,349.4308)">1000</text>
   <text   style="font-family:'Times','Nimbus Roman No9 L'; font-style:normal; font-weight:normal; font-size:612.0000" transform="matrix(0.0280,0.0000,-0.0000,-0.0280,51.6800,431.8154)">1500</text>
   <text   style="font-family:'Times','Nimbus Roman No9 L'; font-style:normal; font-weight:normal; font-size:612.0000" transform="matrix(0.0280,0.0000,-0.0000,-0.0280,51.6800,514.7000)">2000</text>
   <text   style="font-family:'Times','Nimbus Roman No9 L'; font-style:normal; font-weight:normal; font-size:612.0000" transform="matrix(0.0000,0.0280,0.0280,-0.0000,41.5600,240.0000)">Energy (kcal/mole)</text>
  </g>
  <g style="fill:none; stroke:#000000; stroke-width:  0.9180; stroke-linecap:butt; stroke-linejoin:miter; stroke-dasharray:none">
   <path d="M91.8000,91.8000L91.8000,520.2000L703.8000,520.2000L703.8000,91.8000z"/>
  </g>
  <g style="fill:#FFFFFF; fill-rule:nonzero">
   <path  d="M520.2000,489.6000L520.2000,430.1200L629.6190,430.1200L629.6190,489.6000z"/>
  </g>
  <g style="fill:none; stroke:#000000; stroke-width:  0.9180; stroke-linecap:butt; stroke-linejoin:miter; stroke-dasharray:none">
   <path d="M520.2000,489.6000L520.2000,430.1200L629.6190,430.1200L629.6190,489.6000z"/>
  </g>
  <g style="fill:#000000; fill-rule:nonzero">
   <text   style="font-family:'Times','Nimbus Roman No9 L'; font-style:normal; font-weight:normal; font-size:612.0000" transform="matrix(0.0280,0.0000,-0.0000,-0.0280,563.4990,471.4800)">Total</text>
  </g>
  <g style="fill:none; stroke:#000000; stroke-width:  0.9180; stroke-linecap:butt; stroke-linejoin:miter; stroke-dasharray:none">
   <path d="M526.7790,477.4800L551.2590,477.4800"/>
  </g>
  <g style="fill:#000000; fill-rule:nonzero">
   <text   style="font-family:'Times','Nimbus Roman No9 L'; font-style:normal; font-weight:normal; font-size:612.0000" transform="matrix(0.0280,0.0000,-0.0000,-0.0280,563.4990,454.3600)">Kinetic</text>
  </g>
  <g style="fill:none; stroke:#FF0000; stroke-width:  0.9180; stroke-linecap:butt; stroke-linejoin:miter; stroke-dasharray:none">
   <path d="M526.7790,459.8600L551.2590,459.8600"/>
  </g>
  <g style="fill:#000000; fill-rule:nonzero">
   <text   style="font-family:'Times','Nimbus Roman No9 L'; font-style:normal; font-weight:normal; font-size:612.0000" transform="matrix(0.0280,0.0000,-0.0000,-0.0280,563.4990,436.2400)">Potential</text>
  </g>
  <g style="fill:none; stroke:#00FF00; stroke-width:  0.9180; stroke-linecap:butt; stroke-linejoin:miter; stroke-dasharray:none">
   <path d="M526.7790,442.2400L551.2590,442.2400"/>
  </g>
  <g style="fill:#000000; fill-rule:nonzero">
   <text   style="font-family:'Times','Nimbus Roman No9 L'; font-style:normal; font-weight:normal; font-size:612.0000" transform="matrix(0.0420,0.0000,-0.0000,-0.0420,216.3000,562.9200)">Energy during second equilibration</text>
  </g>
 </g>
</svg>
